<svg width="125" height="34" viewBox="0 0 125 34" fill="none" xmlns="http://www.w3.org/2000/svg">
<path d="M11.3427 13.7762C15.4234 11.8246 18.6169 8.51279 20.4503 4.373C19.2675 3.13107 17.7298 2.24397 16.0739 1.71171L15.1868 1.41602C15.1277 1.5343 15.0685 1.71172 15.0685 1.83C13.6492 5.85151 10.7513 9.10419 6.84812 10.9375C4.12769 12.2386 2.11694 14.6042 1.1707 17.4429L0.875 18.33C0.99328 18.3891 1.1707 18.4483 1.28898 18.4483C2.41264 18.8622 3.53629 19.3945 4.60081 20.045C6.0793 17.3838 8.44489 15.1364 11.3427 13.7762Z" fill="#087443"/>
<path d="M28.4938 14.0137C26.3056 17.3255 23.2895 19.9868 19.5637 21.761C16.5475 23.1803 14.2411 25.8416 13.1766 29.0352L12.8809 30.0406C14.0045 31.0459 15.3647 31.8148 16.8432 32.2879L17.7303 32.5836C17.7895 32.4653 17.8486 32.2879 17.8486 32.1696C19.268 28.1481 22.1658 24.8954 26.069 23.0621C28.7895 21.761 30.8593 19.3954 31.7464 16.5567L32.0421 15.6696C30.8002 15.3148 29.6174 14.7233 28.4938 14.0137Z" fill="#16B364"/>
<path d="M10.515 26.9648C11.9934 23.4164 14.7139 20.5186 18.2031 18.8627C21.3967 17.325 24.058 14.9594 25.8913 12.0616C24.5311 10.7605 23.4074 9.28201 22.5795 7.50781C20.3913 11.5293 16.9612 14.782 12.7623 16.7928C10.3375 17.9164 8.38592 19.868 7.20312 22.2336C8.5042 23.4756 9.56872 25.0132 10.3967 26.7282C10.3967 26.7282 10.4558 26.8465 10.515 26.9648Z" fill="#099250"/>
<path d="M39.0898 24.0825H49.0561V21.32H42.2986V9.2075H39.0898V24.0825Z" fill="#101828"/>
<path d="M59.4684 13.3725H56.4934V19.2375C56.4934 20.5975 55.5797 21.6175 54.2834 21.6175C53.0722 21.6175 52.2222 20.6825 52.2222 19.3862V13.3725H49.2684V20.045C49.2684 22.4888 50.8409 24.2525 53.2422 24.2525C54.7084 24.2525 55.8984 23.615 56.4934 22.595V24.0825H59.4684V13.3725Z" fill="#101828"/>
<path d="M60.5736 24.0825H63.5486V18.005C63.5486 16.6238 64.3348 15.71 65.5673 15.71C66.7148 15.71 67.4373 16.6238 67.4373 18.005V24.0825H70.4123V18.005C70.4123 16.6238 71.1986 15.71 72.4311 15.71C73.5786 15.71 74.3223 16.6238 74.3223 18.005V24.0825H77.2761V17.07C77.2761 14.9238 75.7673 13.2025 73.4298 13.2025C71.7086 13.2025 70.3698 14.1163 69.8598 15.1575C69.3498 13.8825 68.2661 13.2025 66.5873 13.2025C65.1423 13.2025 64.1223 13.9038 63.5486 14.8813V13.3725H60.5736V24.0825Z" fill="#101828"/>
<path d="M78.2896 8.71875V11.8425H81.4346V8.71875H78.2896ZM78.3746 24.0825H81.3496V13.3725H78.3746V24.0825Z" fill="#101828"/>
<path d="M82.4586 24.0825H85.4336V18.2175C85.4336 16.8363 86.3474 15.8375 87.6436 15.8375C88.8761 15.8375 89.7049 16.7725 89.7049 18.0688V24.0825H92.6799V17.41C92.6799 14.945 91.1074 13.2025 88.6849 13.2025C87.2186 13.2025 86.0286 13.8188 85.4336 14.86V13.3725H82.4586V24.0825Z" fill="#101828"/>
<path d="M98.885 24.2525C102.179 24.2525 104.538 21.915 104.538 18.7275C104.538 15.54 102.179 13.2025 98.885 13.2025C95.5913 13.2025 93.2325 15.54 93.2325 18.7275C93.2325 21.915 95.5913 24.2525 98.885 24.2525ZM98.885 21.7025C97.2913 21.7025 96.2075 20.4913 96.2075 18.7275C96.2075 16.9425 97.2913 15.7313 98.885 15.7313C100.479 15.7313 101.563 16.9425 101.563 18.7275C101.563 20.4913 100.479 21.7025 98.885 21.7025Z" fill="#101828"/>
<path d="M115.312 13.3725H112.337V19.2375C112.337 20.5975 111.423 21.6175 110.127 21.6175C108.916 21.6175 108.066 20.6825 108.066 19.3862V13.3725H105.112V20.045C105.112 22.4888 106.684 24.2525 109.086 24.2525C110.552 24.2525 111.742 23.615 112.337 22.595V24.0825H115.312V13.3725Z" fill="#101828"/>
<path d="M120.327 24.2525C122.835 24.2525 124.492 22.9137 124.492 20.8737C124.492 16.0287 118.627 18.515 118.627 16.3263C118.627 15.6463 119.201 15.285 120.03 15.285C120.837 15.285 121.666 15.7738 121.793 16.6875H124.365C124.258 14.5838 122.516 13.2025 119.945 13.2025C117.756 13.2025 116.12 14.5412 116.12 16.4325C116.12 20.9375 121.878 18.7913 121.878 20.98C121.878 21.575 121.241 22.0213 120.327 22.0213C119.222 22.0213 118.478 21.4262 118.372 20.47H115.822C115.928 22.7863 117.713 24.2525 120.327 24.2525Z" fill="#101828"/>
</svg>
