<svg width="154" height="34" viewBox="0 0 154 34" fill="none" xmlns="http://www.w3.org/2000/svg">
<path d="M15.2944 22.1938C21.0321 22.1938 25.6833 17.5425 25.6833 11.8049C25.6833 6.06728 21.0321 1.41602 15.2944 1.41602H0.75V22.1938H15.2944Z" fill="#F38744"/>
<path d="M0.75 1.41602L25.6833 32.5827H9.06111L0.75 22.1938V1.41602Z" fill="#2E90FA"/>
<path d="M17.2285 22.0141C16.6018 22.1321 15.9553 22.1938 15.2944 22.1938H0.75V1.41602L17.2285 22.0141Z" fill="#53B1FD"/>
<path d="M42.7818 24.2815C41.3274 24.2815 40.0779 23.9906 39.0333 23.4088C38.002 22.8138 37.2086 21.9808 36.6533 20.9098C36.098 19.8256 35.8203 18.5497 35.8203 17.082C35.8203 15.6143 36.098 14.345 36.6533 13.274C37.2086 12.203 38.002 11.3766 39.0333 10.7948C40.0779 10.1998 41.3274 9.90234 42.7818 9.90234C43.7206 9.90234 44.6065 10.0478 45.4395 10.3387C46.2857 10.6296 46.9799 11.0461 47.522 11.5882L46.689 13.6112C46.094 13.1087 45.4858 12.7451 44.8643 12.5203C44.2429 12.2823 43.5751 12.1633 42.8611 12.1633C41.4464 12.1633 40.3688 12.5931 39.6283 13.4525C38.8879 14.2987 38.5176 15.5086 38.5176 17.082C38.5176 18.6555 38.8879 19.8719 39.6283 20.7313C40.3688 21.5908 41.4464 22.0205 42.8611 22.0205C43.5751 22.0205 44.2429 21.9081 44.8643 21.6833C45.4858 21.4453 46.094 21.0751 46.689 20.5727L47.522 22.5957C46.9799 23.1246 46.2857 23.5411 45.4395 23.8452C44.6065 24.1361 43.7206 24.2815 42.7818 24.2815Z" fill="#101828"/>
<path d="M53.2251 24.2815C52.2203 24.2815 51.3476 24.0766 50.6071 23.6667C49.8667 23.2568 49.2915 22.675 48.8816 21.9213C48.4718 21.1545 48.2668 20.2553 48.2668 19.224C48.2668 18.1927 48.4718 17.3002 48.8816 16.5465C49.2915 15.7928 49.8667 15.2111 50.6071 14.8012C51.3476 14.3913 52.2203 14.1863 53.2251 14.1863C54.23 14.1863 55.1027 14.3913 55.8431 14.8012C56.5836 15.2111 57.1588 15.7928 57.5686 16.5465C57.9785 17.3002 58.1835 18.1927 58.1835 19.224C58.1835 20.2553 57.9785 21.1545 57.5686 21.9213C57.1588 22.675 56.5836 23.2568 55.8431 23.6667C55.1027 24.0766 54.23 24.2815 53.2251 24.2815ZM53.2251 22.3973C53.9656 22.3973 54.5606 22.1329 55.0101 21.604C55.4597 21.0619 55.6845 20.2686 55.6845 19.224C55.6845 18.1662 55.4597 17.3795 55.0101 16.8638C54.5606 16.335 53.9656 16.0705 53.2251 16.0705C52.4847 16.0705 51.8897 16.335 51.4401 16.8638C50.9906 17.3795 50.7658 18.1662 50.7658 19.224C50.7658 20.2686 50.9906 21.0619 51.4401 21.604C51.8897 22.1329 52.4847 22.3973 53.2251 22.3973Z" fill="#101828"/>
<path d="M60.2694 24.0832V14.3847H62.6891V15.8722C62.9799 15.3433 63.3832 14.9334 63.8989 14.6425C64.4145 14.3384 65.0096 14.1863 65.6839 14.1863C67.1383 14.1863 68.0903 14.821 68.5399 16.0903C68.844 15.4953 69.2803 15.0326 69.8489 14.702C70.4174 14.3582 71.0653 14.1863 71.7925 14.1863C73.9742 14.1863 75.065 15.5152 75.065 18.1728V24.0832H72.5859V18.272C72.5859 17.5316 72.4603 16.9895 72.209 16.6457C71.9711 16.3019 71.5612 16.13 70.9794 16.13C70.3315 16.13 69.8224 16.3614 69.4522 16.8242C69.082 17.2737 68.8969 17.9018 68.8969 18.7083V24.0832H66.4177V18.272C66.4177 17.5316 66.2921 16.9895 66.0409 16.6457C65.8029 16.3019 65.3996 16.13 64.8311 16.13C64.1832 16.13 63.6741 16.3614 63.3039 16.8242C62.9337 17.2737 62.7486 17.9018 62.7486 18.7083V24.0832H60.2694Z" fill="#101828"/>
<path d="M77.6623 24.0832V14.3847H80.082V15.8722C80.3728 15.3433 80.7761 14.9334 81.2918 14.6425C81.8074 14.3384 82.4024 14.1863 83.0768 14.1863C84.5312 14.1863 85.4832 14.821 85.9328 16.0903C86.2369 15.4953 86.6732 15.0326 87.2418 14.702C87.8103 14.3582 88.4582 14.1863 89.1854 14.1863C91.3671 14.1863 92.4579 15.5152 92.4579 18.1728V24.0832H89.9788V18.272C89.9788 17.5316 89.8532 16.9895 89.602 16.6457C89.3639 16.3019 88.9541 16.13 88.3723 16.13C87.7244 16.13 87.2153 16.3614 86.8451 16.8242C86.4749 17.2737 86.2898 17.9018 86.2898 18.7083V24.0832H83.8106V18.272C83.8106 17.5316 83.685 16.9895 83.4338 16.6457C83.1958 16.3019 82.7925 16.13 82.2239 16.13C81.5761 16.13 81.067 16.3614 80.6968 16.8242C80.3266 17.2737 80.1414 17.9018 80.1414 18.7083V24.0832H77.6623Z" fill="#101828"/>
<path d="M98.2087 24.2815C97.5079 24.2815 96.8798 24.1493 96.3245 23.8848C95.7824 23.6072 95.3527 23.237 95.0354 22.7742C94.7312 22.3114 94.5792 21.7891 94.5792 21.2073C94.5792 20.4933 94.7643 19.9314 95.1345 19.5215C95.5047 19.0984 96.1064 18.7943 96.9394 18.6092C97.7724 18.4241 98.8896 18.3315 100.291 18.3315H100.985V17.915C100.985 17.2539 100.84 16.7779 100.549 16.487C100.258 16.1961 99.7689 16.0507 99.0813 16.0507C98.5392 16.0507 97.9839 16.1366 97.4154 16.3085C96.8468 16.4672 96.2716 16.7184 95.6899 17.0622L94.9758 15.3763C95.3196 15.1383 95.7229 14.9334 96.1857 14.7615C96.6617 14.5764 97.1575 14.4376 97.6732 14.345C98.2021 14.2392 98.6979 14.1863 99.1607 14.1863C100.575 14.1863 101.627 14.5169 102.314 15.178C103.002 15.8259 103.346 16.8374 103.346 18.2125V24.0832H101.025V22.5362C100.8 23.0783 100.443 23.508 99.954 23.8253C99.4648 24.1295 98.883 24.2815 98.2087 24.2815ZM98.7243 22.5758C99.3722 22.5758 99.9077 22.3511 100.331 21.9015C100.767 21.452 100.985 20.8834 100.985 20.1958V19.7595H100.311C99.0681 19.7595 98.2021 19.8587 97.7128 20.057C97.2369 20.2421 96.9989 20.5859 96.9989 21.0883C96.9989 21.5247 97.1509 21.8817 97.455 22.1593C97.7591 22.437 98.1822 22.5758 98.7243 22.5758Z" fill="#101828"/>
<path d="M105.862 24.0832V14.3847H108.282V15.892C108.612 15.3367 109.055 14.9136 109.61 14.6227C110.179 14.3318 110.814 14.1863 111.514 14.1863C113.802 14.1863 114.946 15.5152 114.946 18.1728V24.0832H112.466V18.2918C112.466 17.5382 112.321 16.9895 112.03 16.6457C111.752 16.3019 111.316 16.13 110.721 16.13C109.994 16.13 109.412 16.3614 108.976 16.8242C108.553 17.2737 108.341 17.8753 108.341 18.629V24.0832H105.862Z" fill="#101828"/>
<path d="M121.192 24.2815C120.346 24.2815 119.599 24.0766 118.951 23.6667C118.316 23.2568 117.821 22.675 117.464 21.9213C117.107 21.1545 116.928 20.2553 116.928 19.224C116.928 18.1795 117.107 17.287 117.464 16.5465C117.821 15.7928 118.316 15.2111 118.951 14.8012C119.599 14.3913 120.346 14.1863 121.192 14.1863C121.88 14.1863 122.501 14.3384 123.057 14.6425C123.612 14.9466 124.028 15.3499 124.306 15.8523V10.1007H126.785V24.0832H124.366V22.4767C124.101 23.032 123.685 23.475 123.116 23.8055C122.548 24.1228 121.906 24.2815 121.192 24.2815ZM121.886 22.3973C122.627 22.3973 123.222 22.1329 123.671 21.604C124.121 21.0619 124.346 20.2686 124.346 19.224C124.346 18.1662 124.121 17.3795 123.671 16.8638C123.222 16.335 122.627 16.0705 121.886 16.0705C121.146 16.0705 120.551 16.335 120.101 16.8638C119.652 17.3795 119.427 18.1662 119.427 19.224C119.427 20.2686 119.652 21.0619 120.101 21.604C120.551 22.1329 121.146 22.3973 121.886 22.3973Z" fill="#101828"/>
<path d="M133.104 23.2898V19.2637H129.177V17.5183H133.104V13.6112H134.929V17.5183H138.856V19.2637H134.929V23.2898H133.104Z" fill="#101828"/>
<path d="M141.486 24.0832V10.1007H147.555C149.089 10.1007 150.272 10.4709 151.105 11.2113C151.938 11.9386 152.355 12.9633 152.355 14.2855C152.355 15.3301 152.084 16.1961 151.542 16.8837C150.999 17.558 150.219 18.0142 149.201 18.2522C149.876 18.4637 150.431 18.9728 150.867 19.7793L153.208 24.0832H150.411L147.991 19.6207C147.753 19.1843 147.469 18.8868 147.139 18.7282C146.821 18.5695 146.411 18.4902 145.909 18.4902H144.025V24.0832H141.486ZM144.025 16.606H147.119C148.97 16.606 149.895 15.8523 149.895 14.345C149.895 12.8509 148.97 12.1038 147.119 12.1038H144.025V16.606Z" fill="#101828"/>
</svg>
