<svg width="117" height="34" viewBox="0 0 117 34" fill="none" xmlns="http://www.w3.org/2000/svg">
<path d="M11.1305 23.6775C17.2779 23.6775 22.2614 18.694 22.2614 12.5465C22.2614 11.8498 22.1974 11.168 22.075 10.5068C21.4137 10.3843 20.732 10.3203 20.0352 10.3203C13.8878 10.3203 8.9043 15.3038 8.9043 21.4513C8.9043 22.148 8.96831 22.8297 9.09077 23.491C9.75202 23.6134 10.4338 23.6775 11.1305 23.6775Z" fill="#175CD3"/>
<path fill-rule="evenodd" clip-rule="evenodd" d="M9.09123 23.4914C3.91792 22.5334 0 17.9977 0 12.547C0 6.39951 4.9835 1.41602 11.131 1.41602C16.5817 1.41602 21.1174 5.33393 22.0754 10.5072C21.4142 10.3848 20.7324 10.3208 20.0357 10.3208C13.8883 10.3208 8.90476 15.3043 8.90476 21.4517C8.90476 22.1484 8.96877 22.8302 9.09123 23.4914Z" fill="#1570EF"/>
<path fill-rule="evenodd" clip-rule="evenodd" d="M11.1315 23.6785C17.279 23.6785 22.2625 18.695 22.2625 12.5475C22.2625 11.8508 22.1985 11.1691 22.076 10.5078C27.2493 11.4659 31.1672 16.0015 31.1672 21.4523C31.1672 27.5997 26.1837 32.5832 20.0363 32.5832C14.5855 32.5832 10.0499 28.6653 9.0918 23.492C9.75305 23.6145 10.4348 23.6785 11.1315 23.6785Z" fill="#2E90FA"/>
<path d="M47.8474 24.2525C51.6512 24.2525 54.3924 22.1062 54.6687 18.9187H51.4812C51.2262 20.4487 49.7599 21.49 47.8474 21.49C45.4462 21.49 43.5974 19.8325 43.5974 16.645C43.5974 13.4575 45.4462 11.7787 47.8474 11.7787C49.7174 11.7787 51.1837 12.82 51.3962 14.3712H54.7324C54.3287 11.1625 51.5874 9.0375 47.8474 9.0375C43.8737 9.0375 40.3887 11.63 40.3887 16.645C40.3887 21.66 43.8099 24.2525 47.8474 24.2525Z" fill="#101828"/>
<path d="M60.5841 13.2025C57.6516 13.2025 55.9091 14.9238 55.7816 17.07H58.4166C58.4591 16.1775 59.1179 15.37 60.4141 15.37C61.6254 15.37 62.3266 15.9863 62.3266 16.8787C62.3266 17.325 62.0504 17.665 61.5191 17.665H59.7129C57.3754 17.665 55.8029 18.94 55.8029 21.0437C55.8029 22.8712 57.2266 24.2525 59.3091 24.2525C60.7754 24.2525 61.9654 23.5937 62.3266 22.595V24.0825H65.2591V17.1975C65.2591 14.775 63.2829 13.2025 60.5841 13.2025ZM60.0529 22.1062C59.2241 22.1062 58.6291 21.6175 58.6291 20.9162C58.6291 20.0875 59.2666 19.535 60.1591 19.535H62.3266V19.6837C62.3266 21.0437 61.4979 22.1062 60.0529 22.1062Z" fill="#101828"/>
<path d="M67.2442 28.4175H70.1979V23.1262C70.7717 23.8487 71.8129 24.2525 73.0242 24.2525C76.1054 24.2525 78.1879 22.0638 78.1879 18.7275C78.1879 15.3913 76.2754 13.2025 73.2792 13.2025C71.8979 13.2025 70.8354 13.7125 70.1979 14.5412V13.3725H67.2442V28.4175ZM72.6629 21.7025C71.0692 21.7025 70.0279 20.5125 70.0279 18.7275C70.0279 16.9213 71.0692 15.7313 72.6629 15.7313C74.2142 15.7313 75.2767 16.9213 75.2767 18.7275C75.2767 20.5125 74.2142 21.7025 72.6629 21.7025Z" fill="#101828"/>
<path d="M83.3889 24.2525C85.8964 24.2525 87.5539 22.9137 87.5539 20.8737C87.5539 16.0287 81.6889 18.515 81.6889 16.3262C81.6889 15.6462 82.2626 15.285 83.0914 15.285C83.8989 15.285 84.7276 15.7737 84.8551 16.6875H87.4264C87.3201 14.5837 85.5776 13.2025 83.0064 13.2025C80.8176 13.2025 79.1814 14.5412 79.1814 16.4325C79.1814 20.9375 84.9401 18.7913 84.9401 20.98C84.9401 21.575 84.3026 22.0213 83.3889 22.0213C82.2839 22.0213 81.5401 21.4262 81.4339 20.47H78.8839C78.9901 22.7862 80.7751 24.2525 83.3889 24.2525Z" fill="#101828"/>
<path d="M99.2203 13.3725H96.2453V19.2375C96.2453 20.5975 95.3315 21.6175 94.0353 21.6175C92.824 21.6175 91.974 20.6825 91.974 19.3862V13.3725H89.0203V20.045C89.0203 22.4887 90.5928 24.2525 92.994 24.2525C94.4603 24.2525 95.6503 23.615 96.2453 22.595V24.0825H99.2203V13.3725Z" fill="#101828"/>
<path d="M101.345 24.0825H104.299V8.71875H101.345V24.0825Z" fill="#101828"/>
<path d="M113.582 20.4487C113.348 21.3625 112.562 21.83 111.372 21.83C109.884 21.83 108.928 20.895 108.716 19.3862H116.408C116.429 19.1525 116.451 18.8337 116.451 18.43C116.451 15.9863 114.942 13.2025 111.159 13.2025C107.526 13.2025 105.868 15.9863 105.868 18.7063C105.868 21.405 107.738 24.2525 111.372 24.2525C114.007 24.2525 116.047 22.765 116.472 20.4487H113.582ZM111.159 15.37C112.583 15.37 113.412 16.3263 113.497 17.5162H108.758C109.013 16.0287 109.821 15.37 111.159 15.37Z" fill="#101828"/>
</svg>
