<svg width="130" height="34" viewBox="0 0 130 34" fill="none" xmlns="http://www.w3.org/2000/svg">
<g clip-path="url(#clip0_14915_14692)">
<path d="M20.1506 2.91829L17.1608 2.11719L14.6414 11.5201L12.3667 3.03108L9.37693 3.83219L11.8345 13.0039L5.71322 6.88263L3.52457 9.07128L10.2389 15.7856L1.87727 13.5451L1.07617 16.5349L10.2123 18.9829C10.1077 18.5317 10.0523 18.0617 10.0523 17.5786C10.0523 14.1597 12.8239 11.3882 16.2428 11.3882C19.6617 11.3882 22.4333 14.1597 22.4333 17.5786C22.4333 18.0585 22.3786 18.5257 22.2753 18.9742L30.5783 21.199L31.3794 18.2093L22.207 15.7515L30.5691 13.5109L29.768 10.5211L20.5959 12.9787L26.7172 6.8575L24.5286 4.66885L17.9074 11.29L20.1506 2.91829Z" fill="#FF4405"/>
<path d="M22.2666 19.009C22.0102 20.0927 21.4691 21.0663 20.7265 21.8463L26.7417 27.8615L28.9304 25.6729L22.2666 19.009Z" fill="#FF4405"/>
<path d="M20.6658 21.9092C19.9143 22.6767 18.9647 23.2495 17.8997 23.5446L20.0885 31.7134L23.0782 30.9122L20.6658 21.9092Z" fill="#FF4405"/>
<path d="M17.788 23.5745C17.2939 23.7016 16.776 23.7691 16.2423 23.7691C15.6705 23.7691 15.1168 23.6915 14.5911 23.5464L12.4003 31.7226L15.3901 32.5236L17.788 23.5745Z" fill="#FF4405"/>
<path d="M14.4854 23.5163C13.4367 23.2064 12.5039 22.6263 11.7678 21.8566L5.73778 27.8866L7.92644 30.0753L14.4854 23.5163Z" fill="#FF4405"/>
<path d="M11.7181 21.8033C10.9945 21.0287 10.4675 20.0682 10.2167 19.0012L1.88654 21.2333L2.68763 24.223L11.7181 21.8033Z" fill="#FF4405"/>
</g>
<path d="M49.3699 9.14453V19.9183L42.4637 9.14453H39.7012V24.0195H42.4637V13.3308L49.3699 24.0195H52.1324V9.14453H49.3699Z" fill="#101828"/>
<path d="M53.3772 11.9283H56.2247V9.14453H53.3772V11.9283ZM53.4197 24.0195V13.3945H56.1822V24.0195H53.4197Z" fill="#101828"/>
<path d="M68.0681 18.707C68.0681 15.0308 65.4543 13.2883 62.6918 13.267C59.9081 13.2458 57.3368 15.0308 57.3368 18.707C57.3368 22.3833 59.9081 24.1683 62.6918 24.147C65.2206 24.1258 66.9631 22.957 67.7706 21.0233L65.6243 20.1308C64.9656 21.4483 63.9243 21.9158 62.6918 21.937C61.6293 21.9583 60.4181 21.4483 60.1631 19.557H68.0043C68.0468 19.2808 68.0681 19.0045 68.0681 18.707ZM62.6918 15.4558C63.7543 15.477 64.8381 16.0508 65.1781 17.5808H60.2056C60.5668 16.0295 61.6506 15.4345 62.6918 15.4558Z" fill="#101828"/>
<path d="M74.4524 15.3708V13.267H72.7099V10.4195L69.9474 11.2695V13.267H68.2049V15.3708H69.9474V20.8745C69.9474 22.957 70.1174 24.0195 73.3474 24.0195H74.0911V21.597H73.3474C72.8374 21.597 72.7099 21.512 72.7099 20.8745V15.3708H74.4524Z" fill="#101828"/>
<path d="M78.5573 21.7033L84.4223 15.7108V13.3945H75.6248V15.7108H81.3198L75.4548 21.7033V24.0195H84.486V21.7033H78.5573Z" fill="#101828"/>
<path d="M85.4765 21.0233L88.2602 20.5983C88.4515 21.6608 89.7052 22.0645 90.4702 22.0645C91.2565 22.0645 92.6165 21.8945 92.6165 20.6195C92.6165 18.1333 85.7952 21.2358 85.7952 16.4758C85.7952 13.4158 89.344 13.2458 90.4702 13.2458C91.5327 13.2458 94.614 13.4158 95.2515 15.8808L92.6165 16.4333C92.3827 15.307 91.1927 15.0945 90.5552 15.0945C89.9177 15.0945 88.5577 15.2433 88.5577 16.4758C88.5577 18.9408 95.379 15.7958 95.379 20.6195C95.379 23.8708 91.639 24.147 90.4702 24.147C89.4077 24.147 86.029 23.8708 85.4765 21.0233Z" fill="#101828"/>
<path d="M98.9677 18.707C98.9677 21.2995 100.349 22.0858 101.794 22.0645C103.09 22.0433 103.983 21.512 104.514 20.0245L106.788 21.1295C105.959 23.297 103.94 24.1258 101.794 24.147C99.0103 24.1683 96.2053 22.3833 96.2053 18.707C96.2053 15.0308 99.0103 13.2458 101.794 13.267C103.94 13.2883 105.959 14.117 106.788 16.2845L104.514 17.3895C103.983 15.902 103.09 15.3708 101.794 15.3495C100.349 15.3283 98.9677 16.1145 98.9677 18.707Z" fill="#101828"/>
<path d="M114.204 13.2245C112.78 13.2245 111.484 13.9683 110.655 15.562V9.14453H107.893V24.0195H110.655V20.2583C110.655 15.392 112.674 14.9883 113.418 14.9883C114.608 14.9883 114.778 16.2208 114.778 18.027V24.0195H117.54V18.027C117.54 15.7745 117.179 13.2245 114.204 13.2245Z" fill="#101828"/>
<path d="M129.203 18.707C129.203 15.0308 126.59 13.2883 123.827 13.267C121.043 13.2458 118.472 15.0308 118.472 18.707C118.472 22.3833 121.043 24.1683 123.827 24.147C126.356 24.1258 128.098 22.957 128.906 21.0233L126.76 20.1308C126.101 21.4483 125.06 21.9158 123.827 21.937C122.765 21.9583 121.553 21.4483 121.298 19.557H129.14C129.182 19.2808 129.203 19.0045 129.203 18.707ZM123.827 15.4558C124.89 15.477 125.973 16.0508 126.313 17.5808H121.341C121.702 16.0295 122.786 15.4345 123.827 15.4558Z" fill="#101828"/>
<defs>
<clipPath id="clip0_14915_14692">
<rect width="31.1667" height="31.1667" fill="white" transform="translate(0.833984 1.41602)"/>
</clipPath>
</defs>
</svg>
