<svg width="119" height="34" viewBox="0 0 119 34" fill="none" xmlns="http://www.w3.org/2000/svg">
<path d="M30.4167 17.1771C30.4167 24.9551 24.1113 31.2604 16.3333 31.2604C8.55532 31.2604 2.25 24.9551 2.25 17.1771C2.25 9.39907 8.55532 3.09375 16.3333 3.09375C24.1113 3.09375 30.4167 9.39907 30.4167 17.1771Z" stroke="#6927DA" stroke-width="3"/>
<path d="M21.7846 22.6275C18.8981 25.5139 15.643 27.3819 12.7729 28.1199C9.86511 28.8677 7.64661 28.4063 6.37557 27.1353C5.10453 25.8642 4.64317 23.6457 5.3909 20.7379C6.12892 17.8678 7.99691 14.6127 10.8834 11.7262C13.7698 8.83976 17.025 6.97177 19.8951 6.23375C22.8029 5.48602 25.0214 5.94738 26.2924 7.21842C27.5635 8.48946 28.0248 10.708 27.2771 13.6158C26.5391 16.4859 24.6711 19.741 21.7846 22.6275Z" stroke="#6927DA" stroke-width="3"/>
<path d="M21.7837 11.7252C24.6702 14.6116 26.5382 17.8667 27.2762 20.7368C28.0239 23.6447 27.5626 25.8632 26.2915 27.1342C25.0205 28.4052 22.802 28.8666 19.8942 28.1189C17.0241 27.3808 13.7689 25.5129 10.8825 22.6264C7.99601 19.7399 6.12802 16.4848 5.39 13.6147C4.64227 10.7069 5.10363 8.48839 6.37467 7.21735C7.64571 5.94631 9.86421 5.48495 12.772 6.23268C15.6421 6.97071 18.8972 8.83869 21.7837 11.7252Z" stroke="#6927DA" stroke-width="3"/>
<path d="M45.2685 24.2525C48.6048 24.2525 50.8573 22.51 50.8573 19.7262C50.8573 13.84 43.0373 16.3475 43.0373 13.245C43.0373 12.3738 43.8235 11.7787 45.0773 11.7787C46.501 11.7787 47.3935 12.5437 47.4998 13.7125H50.5385C50.4535 10.8862 48.286 9.0375 45.0773 9.0375C42.0598 9.0375 39.9348 10.78 39.9348 13.245C39.9348 19.0887 47.6485 16.8575 47.6485 19.7687C47.6485 20.895 46.6923 21.49 45.2685 21.49C43.696 21.49 42.6973 20.5338 42.5698 19.025H39.5098C39.6373 22.1912 41.8898 24.2525 45.2685 24.2525Z" fill="#101828"/>
<path d="M51.5799 28.4175H54.5337V23.1262C55.1074 23.8487 56.1487 24.2525 57.3599 24.2525C60.4412 24.2525 62.5237 22.0638 62.5237 18.7275C62.5237 15.3913 60.6112 13.2025 57.6149 13.2025C56.2337 13.2025 55.1712 13.7125 54.5337 14.5412V13.3725H51.5799V28.4175ZM56.9987 21.7025C55.4049 21.7025 54.3637 20.5125 54.3637 18.7275C54.3637 16.9213 55.4049 15.7313 56.9987 15.7313C58.5499 15.7313 59.6124 16.9213 59.6124 18.7275C59.6124 20.5125 58.5499 21.7025 56.9987 21.7025Z" fill="#101828"/>
<path d="M63.2384 24.0825H66.1921V18.2175C66.1921 16.8362 67.1059 15.8375 68.4021 15.8375C69.6346 15.8375 70.4846 16.7725 70.4846 18.0688V24.0825H73.4384V17.41C73.4384 14.945 71.8659 13.2025 69.4646 13.2025C67.9771 13.2025 66.8084 13.8188 66.1921 14.86V8.71875H63.2384V24.0825Z" fill="#101828"/>
<path d="M81.7013 20.4487C81.4676 21.3625 80.6813 21.83 79.4913 21.83C78.0038 21.83 77.0476 20.895 76.8351 19.3862H84.5276C84.5488 19.1525 84.5701 18.8337 84.5701 18.43C84.5701 15.9863 83.0613 13.2025 79.2788 13.2025C75.6451 13.2025 73.9876 15.9863 73.9876 18.7063C73.9876 21.405 75.8576 24.2525 79.4913 24.2525C82.1263 24.2525 84.1663 22.765 84.5913 20.4487H81.7013ZM79.2788 15.37C80.7026 15.37 81.5313 16.3263 81.6163 17.5162H76.8776C77.1326 16.0287 77.9401 15.37 79.2788 15.37Z" fill="#101828"/>
<path d="M92.3167 15.8375V13.3725H90.7927C89.4964 13.3725 88.6889 13.8188 88.1152 15.1575V13.3725H85.1402V24.0825H88.1152V18.8762C88.1152 17.0487 88.7739 15.8375 90.2402 15.8375H92.3167Z" fill="#101828"/>
<path d="M102.517 13.3725H99.5417V19.2375C99.5417 20.5975 98.6279 21.6175 97.3317 21.6175C96.1204 21.6175 95.2704 20.6825 95.2704 19.3862V13.3725H92.3167V20.045C92.3167 22.4887 93.8892 24.2525 96.2904 24.2525C97.7567 24.2525 98.9467 23.615 99.5417 22.595V24.0825H102.517V13.3725Z" fill="#101828"/>
<path d="M103.792 24.0825H106.746V8.71875H103.792V24.0825Z" fill="#101828"/>
<path d="M115.178 20.4487C114.945 21.3625 114.158 21.83 112.968 21.83C111.481 21.83 110.525 20.895 110.312 19.3862H118.005C118.026 19.1525 118.047 18.8337 118.047 18.43C118.047 15.9863 116.538 13.2025 112.756 13.2025C109.122 13.2025 107.465 15.9863 107.465 18.7063C107.465 21.405 109.335 24.2525 112.968 24.2525C115.603 24.2525 117.643 22.765 118.068 20.4487H115.178ZM112.756 15.37C114.18 15.37 115.008 16.3263 115.093 17.5162H110.355C110.61 16.0287 111.417 15.37 112.756 15.37Z" fill="#101828"/>
</svg>
