<svg width="534" height="520" viewBox="0 0 534 520" fill="none" xmlns="http://www.w3.org/2000/svg">
<circle cx="260" cy="260" r="260" transform="matrix(-1 0 0 1 520 0)" fill="url(#paint0_linear_14915_15537)"/>
<g clip-path="url(#clip0_14915_15537)">
<path opacity="0.21" d="M269.395 145.13H217.646V122H269.366V145.13H269.395ZM218.737 144.067H268.305V123.063H218.737V144.067Z" fill="#051F39"/>
<path opacity="0.21" d="M235.72 167.283H184V144.124H235.72V167.283ZM185.09 166.191H234.658V145.187H185.09V166.191Z" fill="#051F39"/>
<path d="M409.37 234.117C407.017 226.302 402.895 219.112 396.983 212.546C391.051 205.98 382.988 200.562 372.753 196.272C362.518 191.982 349.508 189.847 333.744 189.847C321.156 189.847 308.347 191.539 295.277 194.942C282.207 198.346 270.866 203.2 261.234 209.505L273.762 243.946L267.046 249.384L276.778 252.244C286.389 247.209 295.136 243.543 303.039 241.267C310.921 238.991 319.306 237.864 328.194 237.864C337.061 237.864 343.778 239.999 348.342 244.289C352.907 248.579 355.179 253.755 355.179 259.797C355.179 267.109 352.826 273.594 348.161 279.274C343.456 284.954 338.288 290.694 332.618 296.495C328.676 300.523 324.856 304.692 321.156 308.962C317.456 313.253 314.179 317.845 311.363 322.779C308.528 327.694 306.256 332.991 304.527 338.671C302.798 344.351 301.933 350.715 301.933 357.765C301.933 360.041 301.973 362.76 302.114 365.902C302.134 366.486 302.174 367.05 302.194 367.614H292.985L303.019 374.422H351.841C351.579 372.911 351.459 371.139 351.459 369.124C351.459 367.11 351.459 365.6 351.459 364.573C351.459 360.282 352.323 356.053 354.053 351.904C355.782 347.734 357.933 343.767 360.527 339.98C363.121 336.193 365.997 332.608 369.214 329.204C372.411 325.801 375.508 322.578 378.464 319.557C382.405 315.528 386.467 311.238 390.669 306.707C394.852 302.155 398.572 297.381 401.769 292.326C404.966 287.27 407.62 281.792 409.711 275.85C411.803 269.929 412.868 263.443 412.868 256.373C412.889 249.384 411.702 241.932 409.37 234.117Z" fill="#B2D0EE"/>
<path d="M317.839 235.506C309.052 235.506 300.768 236.594 292.986 238.789C285.184 240.985 276.538 244.53 267.027 249.404L251.664 208.034C261.175 201.931 272.375 197.238 285.305 193.935C298.214 190.652 310.882 189 323.329 189C338.912 189 351.761 191.075 361.876 195.224C371.99 199.373 379.973 204.61 385.824 210.974C391.676 217.319 395.758 224.267 398.07 231.841C400.382 239.414 401.549 246.604 401.549 253.432C401.549 260.28 400.503 266.564 398.432 272.284C396.361 278.025 393.747 283.342 390.57 288.216C387.393 293.09 383.733 297.723 379.591 302.134C375.449 306.525 371.427 310.674 367.546 314.581C364.61 317.522 361.574 320.623 358.417 323.927C355.24 327.21 352.385 330.694 349.831 334.36C347.277 338.026 345.126 341.873 343.437 345.901C341.728 349.929 340.883 354.018 340.883 358.167C340.883 359.154 340.883 360.604 340.883 362.558C340.883 364.511 341.004 366.223 341.245 367.674H292.986C292.483 365.236 292.182 362.497 292.061 359.436C291.92 356.394 291.88 353.756 291.88 351.561C291.88 344.733 292.725 338.569 294.434 333.071C296.143 327.572 298.375 322.456 301.19 317.703C303.985 312.929 307.222 308.498 310.882 304.329C314.542 300.18 318.322 296.152 322.203 292.264C327.813 286.645 332.92 281.106 337.565 275.608C342.19 270.109 344.502 263.825 344.502 256.755C344.502 250.894 342.25 245.899 337.746 241.73C333.242 237.561 326.606 235.506 317.839 235.506Z" fill="#BED7EF"/>
<path d="M355.181 421.955C355.181 430.777 352.326 437.584 346.635 442.378C340.945 447.192 334.49 449.588 327.312 449.588C320.113 449.588 313.658 447.192 307.968 442.378C302.277 437.584 299.422 430.777 299.422 421.955C299.422 413.153 302.277 406.345 307.968 401.531C316.735 394.119 329.725 392.468 340 397.664C349.109 402.297 355.181 411.662 355.181 421.955Z" fill="#B2D0EE"/>
<path d="M345.628 421.955C345.628 430.777 342.773 437.585 337.083 442.378C331.392 447.192 324.937 449.589 317.759 449.589C310.56 449.589 304.106 447.192 298.415 442.378C292.724 437.585 289.869 430.777 289.869 421.955C289.869 413.153 292.724 406.346 298.415 401.532C304.106 396.738 310.56 394.321 317.759 394.321C324.958 394.321 331.392 396.718 337.083 401.532C342.793 406.346 345.628 413.153 345.628 421.955Z" fill="#BED7EF"/>
<path d="M470.287 448.628H47.5527V450.065H470.287V448.628Z" fill="#EBEFF2"/>
<path d="M142.073 198.5C146.962 198.5 150.928 194.543 150.931 189.661C150.934 184.779 146.973 180.821 142.084 180.821C137.194 180.821 133.228 184.779 133.225 189.661C133.222 194.543 137.184 198.5 142.073 198.5Z" fill="#C6E2FD"/>
<path d="M150.08 212.067C152.834 212.067 155.067 209.823 155.069 207.054C155.071 204.286 152.84 202.042 150.086 202.042C147.332 202.042 145.098 204.286 145.097 207.054C145.095 209.823 147.326 212.067 150.08 212.067Z" fill="#C6E2FD"/>
<path d="M120.163 179.909C139.443 179.909 155.099 164.279 155.131 144.999C155.163 125.719 139.559 110.09 120.279 110.09C100.999 110.09 85.3432 125.719 85.3113 144.999C85.2793 164.279 100.883 179.909 120.163 179.909Z" fill="#C6E2FD"/>
<path d="M106.818 149.421C109.25 149.421 111.221 147.447 111.221 145.011C111.221 142.576 109.25 140.602 106.818 140.602C104.387 140.602 102.416 142.576 102.416 145.011C102.416 147.447 104.387 149.421 106.818 149.421Z" fill="white"/>
<path d="M120.229 149.421C122.66 149.421 124.631 147.447 124.631 145.011C124.631 142.576 122.66 140.602 120.229 140.602C117.797 140.602 115.826 142.576 115.826 145.011C115.826 147.447 117.797 149.421 120.229 149.421Z" fill="white"/>
<path d="M133.604 149.421C136.035 149.421 138.006 147.447 138.006 145.011C138.006 142.576 136.035 140.602 133.604 140.602C131.172 140.602 129.201 142.576 129.201 145.011C129.201 147.447 131.172 149.421 133.604 149.421Z" fill="white"/>
<path d="M96.6292 430.902L100.009 443.987C100.89 447.408 104.2 449.701 107.826 449.454C118.918 448.713 142.017 445.962 155.257 436.192L151.489 417.323C133.285 416.3 116.242 417.323 101.488 422.296C97.8264 423.53 95.6784 427.269 96.6292 430.902Z" fill="#FFB156"/>
<path d="M117.862 441.307C117.686 441.307 117.51 441.166 117.439 440.99L112.897 424.66C112.827 424.413 112.967 424.166 113.214 424.13C113.46 424.06 113.707 424.201 113.742 424.448L118.284 440.778C118.355 441.025 118.214 441.272 117.968 441.307C117.932 441.307 117.897 441.307 117.862 441.307Z" fill="#292466"/>
<path d="M127.684 439.119C127.508 439.119 127.332 438.977 127.262 438.801L122.719 422.471C122.649 422.224 122.79 421.977 123.036 421.942C123.283 421.871 123.529 422.013 123.564 422.259L128.107 438.59C128.177 438.836 128.036 439.083 127.79 439.119C127.755 439.119 127.719 439.119 127.684 439.119Z" fill="#292466"/>
<path d="M139.1 360.185L96.7754 372.777L128.219 415.912L173.326 419.51L235.58 393.163L211.918 357.505L139.1 360.185Z" fill="#203C6B"/>
<path d="M191.283 366.181C284.242 338.635 299.172 420.92 154.135 435.875C149.029 430.09 143.043 420.074 140.648 411.715L217.234 376.268L191.283 366.181Z" fill="#3A67B3"/>
<path d="M195.222 425.154C190.891 423.743 186.701 420.992 186.701 420.992L171.771 425.683L175.187 441.978L190.715 445.152C195.434 436.476 195.715 429.386 195.222 425.154Z" fill="#FFC4AA"/>
<path d="M139.097 360.186C52.5821 343.715 30.1874 426.988 175.189 441.978C180.295 436.193 184.344 429.386 186.703 420.992C164.414 406.073 139.52 391.859 112.231 378.35L139.097 360.186Z" fill="#264B89"/>
<path d="M238.393 420.32C227.302 413.478 205.823 425.328 200.435 425.928C198.851 426.104 197.055 425.752 195.259 425.187C195.752 429.385 195.47 436.509 190.752 445.15L193.393 445.679C193.393 445.679 211.632 452.381 230.964 448.466C248.746 444.868 247.091 425.716 238.393 420.32Z" fill="#FFB156"/>
<path d="M223.285 442.751C223.25 442.751 223.18 442.751 223.145 442.716C222.898 442.645 222.793 442.398 222.863 442.151C224.166 437.989 224.764 429.771 220.926 424.234C220.785 424.022 220.821 423.776 221.032 423.634C221.243 423.493 221.49 423.529 221.631 423.74C225.609 429.525 225.046 438.095 223.673 442.433C223.638 442.645 223.462 442.751 223.285 442.751Z" fill="#292466"/>
<path d="M214.59 444.409C214.555 444.409 214.485 444.409 214.449 444.374C214.203 444.303 214.097 444.056 214.168 443.809C215.47 439.648 216.069 431.43 212.231 425.892C212.09 425.681 212.125 425.434 212.337 425.293C212.548 425.152 212.794 425.187 212.935 425.398C216.914 431.183 216.351 439.753 214.978 444.092C214.942 444.303 214.766 444.409 214.59 444.409Z" fill="#292466"/>
<path d="M117.491 250.747C117.491 250.747 141.534 234.242 140.753 230.738C140.21 228.25 134.238 231.894 134.238 231.894C134.238 231.894 142.586 221.662 142.145 220.436C141.398 218.229 135.629 222.363 135.629 222.363C135.629 222.363 139.532 216.582 137.665 215.636C135.799 214.69 131.727 218.264 131.727 218.264C131.727 218.264 134.102 215.04 132.983 214.199C131.863 213.358 127.044 216.827 127.044 216.827C127.044 216.827 128.775 212.762 125.11 214.304C121.445 215.846 102.689 244.157 102.689 244.157L117.491 250.747Z" fill="#FFC6AD"/>
<path d="M206.11 376.938L126.426 380.042L117.623 307.28C117.623 307.28 144.278 281.956 154.56 272.609L171.884 271.728C225.653 296.205 216.85 326.749 206.11 376.938Z" fill="url(#paint1_linear_14915_15537)"/>
<path d="M171.883 271.728C171.883 271.728 233.362 276.983 252.764 319.201C271.743 360.502 193.784 375.21 193.784 375.21L171.883 271.728Z" fill="url(#paint2_linear_14915_15537)"/>
<path d="M101.599 280.792L127.021 249.825L103.254 235.399C93.359 242.312 74.1686 257.937 57.936 275.643C54.3444 279.558 51.5627 284.107 50.1542 289.151C48.957 293.454 48.7458 297.686 49.4148 301.813C51.1754 312.641 59.6614 320.965 70.9996 322.305C80.6828 323.434 117.655 320.541 147.585 311.724L156.388 277.688C151.846 275.114 118.218 274.655 101.599 280.792Z" fill="url(#paint3_linear_14915_15537)"/>
<path d="M177.512 255.575V256.704L177.335 274.233L177.3 276.138C177.265 279.1 176.068 281.816 174.096 283.756C172.159 285.696 169.448 286.93 166.49 286.93C160.469 286.965 155.575 282.133 155.504 276.102L155.293 254.411L177.512 255.575Z" fill="#FFC6AD"/>
<path d="M177.51 256.703L177.334 274.232C167.616 270.247 163.602 259.701 163.602 259.701L177.51 256.703Z" fill="#F4AA89"/>
<path d="M181.353 226.088C184.839 230.285 195.015 254.022 184.698 262.134C173.078 271.269 155.402 256.279 155.402 256.279L153.043 228.627L168.395 224.571L181.353 226.088Z" fill="#FFC6AD"/>
<path d="M145.223 224.571C145.223 224.571 111.174 242.347 138.956 293.595C142.512 300.19 150.399 303.047 157.16 299.838C164.414 296.381 167.16 287.528 163.216 280.51C158.674 272.433 154.308 262.028 156.174 254.304L145.223 224.571Z" fill="#292466"/>
<path d="M154.917 239.479C158.506 235.884 158.506 230.055 154.917 226.461C151.328 222.866 145.509 222.866 141.92 226.461C138.331 230.055 138.331 235.884 141.92 239.479C145.509 243.074 151.328 243.074 154.917 239.479Z" fill="url(#paint4_linear_14915_15537)"/>
<path d="M159.768 244.041C158.782 238.292 158.184 234.342 163.959 231.379C163.959 231.379 184.417 235.117 188.325 227.358C192.234 219.634 186.283 207.43 173.818 215.895C141.916 209.652 137.655 239.562 147.303 249.543L156.846 248.062C158.782 247.779 160.085 245.981 159.768 244.041Z" fill="#292466"/>
<path d="M175.61 245.452C176.368 245.452 176.983 244.836 176.983 244.077C176.983 243.317 176.368 242.701 175.61 242.701C174.851 242.701 174.236 243.317 174.236 244.077C174.236 244.836 174.851 245.452 175.61 245.452Z" fill="#292466"/>
<path d="M184.799 240.901C185.557 240.901 186.172 240.286 186.172 239.526C186.172 238.766 185.557 238.15 184.799 238.15C184.041 238.15 183.426 238.766 183.426 239.526C183.426 240.286 184.041 240.901 184.799 240.901Z" fill="#292466"/>
<path d="M183.851 248.274C183.746 248.274 183.675 248.239 183.569 248.168C183.429 248.027 183.393 247.78 183.569 247.639C184.098 247.075 184.696 246.264 184.45 245.664C184.203 245.064 183.077 244.782 182.584 244.782C181.492 244.782 180.964 242.842 180.893 242.454C180.858 242.243 180.964 242.031 181.175 241.996C181.386 241.961 181.598 242.066 181.633 242.278C181.844 243.089 182.267 244.006 182.584 244.006C183.112 244.006 184.696 244.253 185.154 245.347C185.506 246.123 185.154 247.075 184.098 248.168C184.062 248.239 183.957 248.274 183.851 248.274Z" fill="#292466"/>
<path d="M183.922 253.423C183.852 253.423 183.781 253.387 183.711 253.352C181.141 251.624 178.57 253.07 178.535 253.07C178.359 253.176 178.112 253.105 178.007 252.929C177.901 252.752 177.971 252.506 178.148 252.4C178.253 252.329 181.176 250.707 184.133 252.682C184.31 252.788 184.345 253.035 184.239 253.211C184.169 253.387 184.063 253.423 183.922 253.423Z" fill="#292466"/>
<path d="M175.012 238.186C175.786 239.632 174.448 239.949 172.864 240.796C171.279 241.642 169.66 241.96 169.307 241.254C168.955 240.549 169.906 239.314 171.491 238.468C173.075 237.621 174.413 237.057 175.012 238.186Z" fill="#292466"/>
<path d="M180.751 235.541C181.103 236.846 182.054 236.282 183.462 235.894C184.871 235.506 185.997 234.801 185.857 234.201C185.68 233.566 184.413 233.39 183.004 233.743C181.631 234.13 180.504 234.518 180.751 235.541Z" fill="#292466"/>
<path d="M158.986 254.198C160.815 251.823 160.114 248.21 157.42 246.127C154.726 244.045 151.058 244.282 149.229 246.657C147.399 249.032 148.1 252.645 150.795 254.728C153.489 256.81 157.156 256.573 158.986 254.198Z" fill="#FFC6AD"/>
<path d="M156.491 252.47C156.28 252.47 156.104 252.293 156.104 252.082C156.104 250.953 155.54 249.895 154.625 249.26C153.815 248.731 152.9 248.59 152.09 248.907C151.878 248.978 151.667 248.907 151.597 248.696C151.526 248.484 151.597 248.272 151.808 248.202C152.829 247.779 154.062 247.92 155.047 248.625C156.174 249.401 156.878 250.671 156.878 252.082C156.878 252.293 156.702 252.47 156.491 252.47Z" fill="#292466"/>
<path d="M101.25 280.469L87.3633 295.517L88.0097 296.115L101.897 281.068L101.25 280.469Z" fill="#E96900"/>
<path d="M199.204 345.196L198.957 344.35C209.063 341.246 218.887 337.578 227.795 326.433L228.5 326.997C219.415 338.319 209.45 342.057 199.204 345.196Z" fill="#E96900"/>
<path d="M205.656 311H119.599C116.5 311 114 313.716 114 317.066V378.613C114 381.963 116.5 384.679 119.599 384.679H205.656C208.755 384.679 211.255 381.963 211.255 378.613V317.066C211.29 313.716 208.755 311 205.656 311Z" fill="#051F39"/>
<circle cx="162" cy="348" r="10" fill="white"/>
<g clip-path="url(#clip1_14915_15537)">
<path fill-rule="evenodd" clip-rule="evenodd" d="M159.062 346.575C159.062 346.575 158.512 347.124 157.893 347.743C157.309 348.327 157 349.083 157 349.908C157 350.698 157.309 351.489 157.893 352.039C157.928 352.073 157.928 352.073 157.962 352.107C158.546 352.691 159.302 353.001 160.093 353.001C160.883 353.001 161.674 352.691 162.258 352.107C162.876 351.489 163.426 350.939 163.426 350.939C163.701 350.664 163.701 350.252 163.426 349.977C163.151 349.702 162.739 349.702 162.464 349.977C162.464 349.977 161.914 350.526 161.296 351.145C160.986 351.454 160.54 351.626 160.093 351.626C159.646 351.626 159.199 351.454 158.89 351.145L158.821 351.076C158.512 350.767 158.34 350.32 158.34 349.874C158.34 349.427 158.512 348.98 158.821 348.671C159.44 348.052 159.99 347.502 159.99 347.502C160.265 347.228 160.265 346.815 159.99 346.54C159.749 346.334 159.337 346.334 159.062 346.575Z" fill="#051F39"/>
<path fill-rule="evenodd" clip-rule="evenodd" d="M163.048 345.99L159.989 349.048C159.714 349.323 159.714 349.736 159.989 350.011C160.264 350.286 160.677 350.286 160.952 350.011L164.01 346.952C164.285 346.677 164.285 346.265 164.01 345.99C163.735 345.749 163.323 345.749 163.048 345.99Z" fill="#051F39"/>
<path fill-rule="evenodd" clip-rule="evenodd" d="M164.94 349.426C164.94 349.426 165.489 348.876 166.108 348.258C166.692 347.674 167.001 346.918 167.001 346.127C167.001 345.337 166.692 344.546 166.108 343.997C166.074 343.962 166.074 343.962 166.039 343.928C165.489 343.309 164.699 343 163.909 343C163.118 343 162.328 343.309 161.744 343.893C161.125 344.512 160.575 345.062 160.575 345.062C160.3 345.337 160.3 345.749 160.575 346.024C160.85 346.299 161.263 346.299 161.538 346.024C161.538 346.024 162.087 345.474 162.706 344.856C163.015 344.546 163.462 344.375 163.909 344.375C164.355 344.375 164.802 344.546 165.111 344.856L165.18 344.924C165.489 345.234 165.661 345.68 165.661 346.127C165.661 346.574 165.489 347.021 165.18 347.33C164.562 347.948 164.012 348.498 164.012 348.498C163.737 348.773 163.737 349.186 164.012 349.46C164.252 349.701 164.665 349.701 164.94 349.426Z" fill="#051F39"/>
</g>
<path d="M415.426 351.33C418.881 353.776 423.31 355.314 426.322 358.109C427.563 359.227 428.626 360.346 429.689 361.534C430.486 362.372 432.701 363.77 433.055 364.818C433.232 365.308 433.144 364.679 433.055 364.189V364.12C432.789 362.023 432.524 359.856 432.435 357.69C432.346 355.523 432.524 353.427 432.346 351.26C432.081 348.255 430.929 345.32 427.828 343.433C426.322 342.524 424.373 341.965 422.956 340.917C421.627 339.938 422.159 338.82 422.956 337.772C423.665 336.723 424.551 335.745 424.905 334.627C425.259 333.299 424.639 331.901 423.753 330.783C421.982 328.407 417.906 325.681 414.097 326.03C410.908 326.31 410.554 329.245 410.642 331.272C410.642 333.229 410.908 335.186 410.997 337.143C410.997 339.169 410.554 341.126 410.554 343.153C410.199 346.578 412.237 349.163 415.426 351.33Z" fill="#A8D4FF"/>
<path d="M447.671 382.64C448.646 380.823 449.709 379.145 451.126 377.468C452.987 375.162 455.113 372.995 456.353 370.409C457.593 367.823 457.416 365.028 457.593 362.302C457.682 360.276 458.479 358.319 458.213 356.292C458.125 355.313 457.416 353.776 455.822 353.916C454.581 354.055 453.873 355.244 453.341 356.012C452.544 357.34 451.924 358.808 451.304 360.206C451.038 360.765 450.861 361.324 450.506 361.883C450.329 362.163 449.798 362.931 449.266 362.861C448.38 362.652 449.177 359.786 449.355 359.297C450.063 356.711 451.038 354.335 451.215 351.679C451.392 347.835 451.038 343.223 446.254 341.126C445.014 340.567 443.419 340.218 442.267 341.056C441.116 341.895 440.761 343.293 440.584 344.411C440.053 347.975 441.116 351.33 442.533 354.684C443.685 357.48 445.102 360.276 445.279 363.281C445.368 366.146 443.508 368.662 442.622 371.318C441.204 375.581 441.47 377.887 441.47 379.285C441.47 381.032 441.559 382.71 441.736 384.457C441.913 386.064 442.09 387.672 442.267 389.209C442.356 389.559 442.356 389.838 442.445 390.188C441.647 388.72 441.382 387.043 440.761 385.575C439.61 382.919 438.281 380.403 437.218 377.748C436.332 375.581 435.446 373.345 434.294 371.248C433.143 369.291 431.814 367.194 429.688 365.727C428.448 364.818 426.853 364.329 425.17 364.329C424.107 364.329 423.132 364.609 422.069 364.818C420.829 365.098 419.766 364.958 418.791 364.329C415.336 362.232 414.362 358.528 411.793 355.942C409.933 353.986 405.415 350.631 402.137 352.798C400.365 353.916 399.922 356.152 400.011 357.829C400.099 359.926 401.251 361.883 402.668 363.63C404.174 365.517 406.035 367.194 407.452 369.081C408.249 370.2 408.338 371.318 408.249 372.576C408.161 373.764 407.984 374.952 408.515 376.14C410.11 379.635 414.982 379.145 418.791 379.215C421.449 379.285 424.284 379.565 426.853 380.264C429.776 381.032 431.637 382.57 432.7 384.806C433.497 386.484 433.852 388.301 435.269 389.768C435.978 390.397 436.864 390.887 437.838 391.236C439.344 391.725 443.862 392.005 443.862 391.655C443.951 390.537 444.659 389.419 445.014 388.371C445.811 386.414 446.697 384.527 447.671 382.64Z" fill="#A8D4FF"/>
<path d="M468.668 382.011C468.314 379.984 468.313 377.817 467.162 375.93C467.073 375.79 466.807 375.79 466.719 375.86C465.833 376.21 465.833 377.328 465.744 378.027C465.656 379.145 465.744 380.263 465.567 381.382C465.301 383.338 464.681 385.365 463.795 387.182C462.821 389.279 460.961 390.467 458.303 391.096C456.62 391.515 454.937 391.865 453.519 392.773C452.279 393.542 451.393 394.66 450.684 395.848C448.913 398.993 448.027 402.488 447.229 405.912C446.698 408.149 446.255 410.455 445.546 412.691C444.837 414.928 444.129 417.164 443.686 419.471C443.597 419.61 443.509 419.68 443.509 419.82C443.331 420.17 444.04 420.379 444.217 420.03C446.964 416.675 450.33 413.67 454.937 411.853C456.974 411.014 459.72 410.874 461.492 409.546C462.821 408.568 462.998 407.031 462.821 405.703C462.555 403.955 461.492 402.488 460.341 400.95C459.72 400.112 459.012 399.203 459.277 398.225C459.543 397.246 460.518 396.547 461.492 396.058C463.353 395.15 465.656 394.73 467.162 393.332C468.579 392.074 469.377 390.537 469.554 388.86C469.642 386.623 469.111 384.177 468.668 382.011Z" fill="#A8D4FF"/>
<path d="M431.194 393.543C428.803 391.096 425.791 388.93 422.513 387.183C420.741 386.274 416.577 384.457 415.78 387.183C415.248 388.79 417.286 390.328 418.526 391.376C420.475 392.844 422.779 394.172 424.373 395.919C422.336 396.408 420.209 396.548 418.438 397.666C416.312 398.994 415.426 401.51 417.463 403.117C418.438 403.886 419.855 404.375 421.095 404.864C422.779 405.493 424.373 406.053 426.056 406.612C429.688 407.8 433.409 409.058 436.51 411.015C439.699 413.041 442.622 416.396 442.888 419.681C442.888 419.96 442.8 419.681 442.977 419.541C443.065 419.611 443.508 419.471 443.508 419.261C443.42 414.439 442.357 409.827 439.788 405.354C437.573 401.23 434.649 397.107 431.194 393.543Z" fill="#A8D4FF"/>
<path opacity="0.6" d="M422.779 348.393C424.108 350.56 425.526 352.726 427.032 354.893C428.449 356.92 429.866 359.016 430.929 361.183C432.258 363.908 433.587 366.564 435.005 369.22C436.422 372.015 437.751 374.881 438.814 377.746C440.851 383.407 442.357 389.208 443.066 395.079C443.42 398.084 443.598 401.019 443.509 404.024C443.42 406.331 443.066 408.707 442.8 411.013C442.535 413.459 442.269 415.905 442.535 418.281C442.712 420.308 443.155 422.754 445.192 424.152C445.547 424.432 446.167 424.082 445.901 423.733C443.509 419.889 443.686 415.696 444.129 411.572C444.395 409.266 444.749 406.96 444.838 404.653C444.927 401.718 444.838 398.783 444.484 395.847C443.775 390.116 442.357 384.456 440.497 378.864C439.523 375.999 438.371 373.204 436.954 370.478C435.536 367.752 433.942 365.027 432.613 362.301C430.221 357.269 426.5 352.866 423.222 348.184C423.045 347.974 422.602 348.184 422.779 348.393Z" fill="#3588D8"/>
<path opacity="0.6" d="M443.243 389.35C443.597 385.716 444.04 382.222 445.634 378.727C446.343 377.12 447.229 375.512 447.938 373.905C448.558 372.577 449.355 370.69 448.912 369.292C448.824 369.153 448.558 369.153 448.469 369.292C448.203 370.131 448.203 371.04 448.026 371.878C447.849 372.717 447.495 373.486 447.229 374.254C446.52 375.932 445.634 377.539 444.837 379.216C443.331 382.431 442.534 385.996 442.888 389.42C442.888 389.56 443.154 389.56 443.243 389.35Z" fill="#3588D8"/>
<path opacity="0.6" d="M416.4 368.383C418.261 371.878 423.753 372.087 427.74 372.856C430.575 373.415 432.701 374.953 434.207 376.91C435.89 379.076 437.042 381.592 437.927 383.968H438.016C436.864 379.775 435.27 374.743 429.777 372.786C425.348 371.249 419.59 372.018 416.755 368.244C416.755 368.104 416.312 368.174 416.4 368.383Z" fill="#3588D8"/>
<path opacity="0.6" d="M440.318 388.79C440.495 389 440.761 389.279 440.938 389.489C441.027 389.629 441.204 389.699 441.292 389.769C441.47 389.838 441.647 389.978 441.824 389.978C441.913 389.978 442.001 389.908 441.913 389.838C441.824 389.699 441.647 389.629 441.558 389.559C441.47 389.489 441.292 389.349 441.204 389.279C440.938 389.07 440.672 388.86 440.495 388.65C440.318 388.72 440.229 388.79 440.318 388.79Z" fill="#3588D8"/>
<path opacity="0.6" d="M428.803 399.904C431.993 401.93 434.916 404.376 437.219 407.032C438.371 408.29 439.346 409.618 440.32 411.016C441.294 412.483 442.003 414.091 442.8 415.628C442.889 415.768 443.155 415.768 443.155 415.628C442.712 412.344 440.054 409.548 437.928 406.753C436.865 405.355 435.448 404.167 434.03 402.979C432.524 401.721 430.93 400.602 429.158 399.624C428.892 399.484 428.626 399.764 428.803 399.904Z" fill="#3588D8"/>
<path opacity="0.6" d="M454.049 396.06C452.543 396.758 452.455 398.645 452.455 399.834C452.366 402.14 453.163 404.376 451.835 406.543C450.683 408.57 448.823 410.247 447.317 412.064C445.899 413.811 444.57 416.048 444.57 418.144C444.57 418.284 444.836 418.354 444.836 418.214C445.368 417.236 445.633 416.187 445.988 415.209C446.431 414.091 447.051 413.042 447.848 412.064C449.266 410.317 451.037 408.779 452.189 406.892C453.429 404.935 453.252 402.979 453.163 400.882C453.075 399.554 452.898 397.318 454.315 396.339C454.581 396.199 454.315 395.92 454.049 396.06Z" fill="#3588D8"/>
<path d="M443.373 418.212C438.869 418.145 431.378 418.078 427.62 418.047C426.404 418.037 425.466 419.105 425.626 420.31L428.286 440.295C428.914 445.334 433.135 449 438.074 449H443.193H443.732H448.851C453.79 449 458.011 445.243 458.639 440.295L461.302 420.292C461.461 419.093 460.534 418.036 459.324 418.046C455.539 418.077 447.928 418.144 443.373 418.212Z" fill="#4991FF"/>
<g opacity="0.75">
<path d="M103.371 89.7057H38.3041C38.1342 89.7057 37.9992 89.5706 37.9992 89.4007C37.9992 89.2308 38.1342 89.0957 38.3041 89.0957H103.371C103.541 89.0957 103.676 89.2308 103.676 89.4007C103.676 89.5706 103.541 89.7057 103.371 89.7057Z" fill="#8997A6"/>
<path d="M50.2479 125.25C50.0301 125.25 49.8514 125.072 49.8514 124.854V89.4014C49.8514 89.2315 49.9604 89.0833 50.1172 89.0267C50.2741 88.97 50.4527 89.0223 50.5572 89.153C58.147 98.7078 66.0375 103.344 73.9758 102.938C86.428 102.302 94.8761 89.3142 94.9589 89.1835C95.0765 89.0005 95.3205 88.9439 95.5079 89.0615C95.6909 89.1792 95.7475 89.4232 95.6299 89.6105C95.5427 89.7456 86.8768 103.069 74.0194 103.727C66.0506 104.137 58.1906 99.6925 50.6444 90.5168V124.845C50.6444 125.072 50.4658 125.25 50.2479 125.25Z" fill="#8997A6"/>
<path d="M55.2311 131.664C54.3553 130.527 53.5711 130.653 53.0526 129.486C52.4775 128.187 53.1441 127.346 52.5385 126.231C52.0636 125.36 51.1486 124.933 50.4384 124.71C50.4384 124.706 50.4384 124.702 50.4384 124.697C50.4297 124.697 50.4254 124.702 50.4167 124.706C50.4079 124.702 50.4036 124.702 50.3948 124.697C50.3948 124.702 50.3948 124.706 50.3948 124.71C49.6847 124.933 48.7697 125.36 48.2948 126.231C47.6892 127.346 48.3514 128.192 47.7807 129.486C47.2622 130.653 46.478 130.527 45.6022 131.664C44.6437 132.91 44.208 134.849 44.7308 136.457C45.4061 138.548 47.6935 140.047 50.3948 140.108C50.4036 140.108 50.4079 140.108 50.4167 140.108C50.4254 140.108 50.4297 140.108 50.4384 140.108C53.1397 140.047 55.4271 138.548 56.1025 136.457C56.6209 134.849 56.1896 132.91 55.2311 131.664Z" fill="white"/>
<path d="M50.4919 140.543C53.3587 140.464 55.7769 138.883 56.5175 136.591C57.0578 134.918 56.6831 132.835 55.5764 131.397C55.1407 130.831 54.7137 130.539 54.3695 130.304C53.9731 130.034 53.6855 129.838 53.4546 129.306C53.2106 128.757 53.228 128.3 53.2455 127.82C53.2629 127.289 53.2847 126.687 52.9231 126.021C52.5004 125.245 51.7292 124.67 50.6313 124.309C50.5877 124.287 50.5442 124.274 50.4962 124.265C50.3917 124.239 50.2827 124.261 50.1912 124.313C49.102 124.67 48.3352 125.245 47.9169 126.021C47.5553 126.687 47.5771 127.289 47.5945 127.82C47.6119 128.304 47.6294 128.757 47.3854 129.306C47.1501 129.838 46.8625 130.034 46.4704 130.304C46.1262 130.539 45.6992 130.831 45.2635 131.397C44.1612 132.831 43.7822 134.918 44.3224 136.591C45.0675 138.891 47.5073 140.477 50.3916 140.543C50.4091 140.547 50.4309 140.547 50.4439 140.547C50.457 140.543 50.4744 140.543 50.4919 140.543ZM52.1562 126.439C52.4046 126.897 52.3915 127.293 52.3741 127.794C52.3566 128.326 52.3348 128.931 52.6573 129.668C52.9927 130.426 53.4459 130.735 53.8816 131.031C54.204 131.254 54.5395 131.48 54.888 131.938C55.8117 133.136 56.1385 134.944 55.6897 136.329C55.0667 138.246 52.9056 139.623 50.4309 139.676C50.4221 139.676 50.4134 139.676 50.4047 139.676C47.93 139.623 45.7689 138.246 45.1459 136.329C44.6971 134.94 45.0283 133.136 45.9476 131.938C46.3005 131.48 46.6316 131.254 46.9584 131.031C47.3941 130.735 47.8472 130.426 48.1827 129.668C48.5051 128.936 48.4833 128.33 48.4659 127.794C48.4484 127.293 48.4354 126.901 48.6837 126.439C48.9887 125.877 49.5725 125.446 50.4221 125.163C51.2674 125.446 51.8512 125.877 52.1562 126.439Z" fill="#8997A6"/>
<path d="M50.7671 126.23C50.6234 126.235 50.5101 126.357 50.5188 126.501C50.5188 126.518 50.5885 128.4 50.741 130.322C50.7758 130.744 50.8107 131.123 50.8456 131.468C50.5231 131.437 50.1877 131.428 49.8652 131.441C49.9611 130.309 50.009 128.762 49.9698 126.653C49.9654 126.509 49.8478 126.396 49.704 126.4C49.5603 126.405 49.447 126.522 49.4513 126.666C49.4905 128.84 49.4383 130.387 49.3424 131.489C49.0461 131.529 48.7629 131.594 48.5189 131.685C47.8785 131.925 47.4863 132.365 47.4036 132.931C47.3164 133.524 47.604 134.16 48.1268 134.557C48.458 134.805 48.7368 134.727 48.8718 134.657C49.0766 134.552 49.5603 134.304 49.8173 131.964C50.1746 131.942 50.5493 131.955 50.9022 131.995C51.181 134.404 51.4643 134.609 51.6167 134.718C51.8956 134.918 52.3487 134.936 52.78 134.369C53.2462 133.755 53.5599 132.574 52.9892 132.121C52.6668 131.864 52.0655 131.659 51.3771 131.542C51.3379 131.163 51.2987 130.727 51.2595 130.235C51.107 128.344 51.0416 126.505 51.0416 126.488C51.0373 126.348 50.924 126.239 50.7846 126.239C50.7758 126.23 50.7715 126.23 50.7671 126.23ZM48.4362 134.138C48.0658 133.864 47.8567 133.406 47.9133 133.006C47.9656 132.631 48.2401 132.343 48.6976 132.173C48.8762 132.108 49.0766 132.056 49.2858 132.021C49.0853 133.772 48.7673 134.125 48.6279 134.195C48.6191 134.199 48.6017 134.208 48.5799 134.208C48.5494 134.204 48.5059 134.191 48.4362 134.138ZM51.9173 134.295C51.8694 134.252 51.6559 133.955 51.4294 132.073C51.974 132.178 52.4315 132.339 52.658 132.522C52.9064 132.718 52.7452 133.55 52.3618 134.051C52.2921 134.143 52.1352 134.326 52.0001 134.321C51.9696 134.321 51.9435 134.313 51.9173 134.295Z" fill="#FF7300"/>
<path d="M47.5173 126.958C47.6306 125.429 47.7395 124.183 48.2101 123.046C48.4018 122.579 48.6588 122.279 48.942 122.083C49.491 121.704 50.1184 121.686 50.4931 121.721C50.8678 121.699 51.4952 121.734 52.0355 122.126C52.3143 122.331 52.5583 122.636 52.7369 123.107C53.1726 124.257 53.2467 125.503 53.3164 127.037L47.5173 126.958Z" fill="#FF7300"/>
<path d="M47.3693 125.102L53.5736 125.189C53.7218 125.189 53.8438 125.315 53.8438 125.463C53.8438 125.611 53.7174 125.733 53.5693 125.733L47.365 125.646C47.2168 125.646 47.0948 125.52 47.0948 125.372C47.0948 125.219 47.2212 125.097 47.3693 125.102Z" fill="#FF7300"/>
<path d="M47.342 123.912L53.5463 123.999C53.6944 123.999 53.8164 124.126 53.8164 124.274C53.8164 124.422 53.6901 124.544 53.5419 124.544L47.3376 124.457C47.1895 124.457 47.0675 124.33 47.0675 124.182C47.0675 124.03 47.1895 123.912 47.342 123.912Z" fill="#FF7300"/>
</g>
</g>
<g filter="url(#filter0_d_14915_15537)">
<path d="M308 71.8122C308 62.0013 308 57.0959 311.048 54.048C314.096 51.0002 319.001 51.0002 328.812 51.0002H460.188C469.999 51.0002 474.904 51.0002 477.952 54.048C481 57.0959 481 62.0013 481 71.8122V107.372C481 117.183 481 122.088 477.952 125.136C474.904 128.184 469.999 128.184 460.188 128.184H359.787C356.399 128.184 354.705 128.184 353.123 128.703C351.542 129.223 350.177 130.227 347.449 132.236L328.812 145.955L328.182 137.128C327.804 131.841 323.404 127.745 318.104 127.745C312.524 127.745 308 123.221 308 117.641V71.8122Z" fill="white"/>
</g>
<circle cx="347.023" cy="88.7211" r="24.7143" fill="white" fill-opacity="0.8" stroke="#EBEFF2" stroke-width="1.30075" stroke-linecap="round"/>
<path opacity="0.15" d="M345.968 85.9879C345.838 85.9749 345.682 85.9749 345.539 85.9879C342.443 85.8838 339.984 83.3473 339.984 80.2255C339.984 77.0387 342.56 74.4502 345.76 74.4502C348.947 74.4502 351.535 77.0387 351.535 80.2255C351.522 83.3473 349.064 85.8838 345.968 85.9879Z" fill="#FF7300"/>
<path d="M339.464 90.7872C336.317 92.8945 336.317 96.3284 339.464 98.4226C343.041 100.816 348.908 100.816 352.485 98.4226C355.633 96.3154 355.633 92.8814 352.485 90.7872C348.921 88.4069 343.054 88.4069 339.464 90.7872Z" stroke="#FF7300" stroke-width="1.95113" stroke-linecap="round" stroke-linejoin="round"/>
<rect x="384.744" y="71.8115" width="84.5489" height="9.31065" rx="4.65532" fill="#EBEFF2"/>
<rect x="384.744" y="87.626" width="23.4135" height="5.20301" rx="2.6015" fill="#EBEFF2"/>
<rect x="414.662" y="87.626" width="40.3233" height="5.20301" rx="2.6015" fill="#EBEFF2"/>
<rect x="384.744" y="99.333" width="76.7444" height="5.20301" rx="2.6015" fill="#EBEFF2"/>
<defs>
<filter id="filter0_d_14915_15537" x="255.97" y="18.4812" width="277.06" height="199.015" filterUnits="userSpaceOnUse" color-interpolation-filters="sRGB">
<feFlood flood-opacity="0" result="BackgroundImageFix"/>
<feColorMatrix in="SourceAlpha" type="matrix" values="0 0 0 0 0 0 0 0 0 0 0 0 0 0 0 0 0 0 127 0" result="hardAlpha"/>
<feOffset dy="19.5113"/>
<feGaussianBlur stdDeviation="26.015"/>
<feComposite in2="hardAlpha" operator="out"/>
<feColorMatrix type="matrix" values="0 0 0 0 0.117647 0 0 0 0 0.129412 0 0 0 0 0.176471 0 0 0 0.08 0"/>
<feBlend mode="normal" in2="BackgroundImageFix" result="effect1_dropShadow_14915_15537"/>
<feBlend mode="normal" in="SourceGraphic" in2="effect1_dropShadow_14915_15537" result="shape"/>
</filter>
<linearGradient id="paint0_linear_14915_15537" x1="490.269" y1="-35.5605" x2="41.5" y2="503" gradientUnits="userSpaceOnUse">
<stop stop-color="#FFECE2"/>
<stop offset="1" stop-color="#FFF1EA" stop-opacity="0"/>
</linearGradient>
<linearGradient id="paint1_linear_14915_15537" x1="214.161" y1="325.964" x2="117.536" y2="325.964" gradientUnits="userSpaceOnUse">
<stop stop-color="#FAB882"/>
<stop offset="1" stop-color="#FF7300"/>
</linearGradient>
<linearGradient id="paint2_linear_14915_15537" x1="255.713" y1="323.544" x2="70.8731" y2="288.749" gradientUnits="userSpaceOnUse">
<stop stop-color="#FAB882"/>
<stop offset="1" stop-color="#FF7300" stop-opacity="0.8"/>
</linearGradient>
<linearGradient id="paint3_linear_14915_15537" x1="156.351" y1="279.032" x2="48.9423" y2="279.032" gradientUnits="userSpaceOnUse">
<stop stop-color="#FAB882"/>
<stop offset="1" stop-color="#FF7300" stop-opacity="0.8"/>
</linearGradient>
<linearGradient id="paint4_linear_14915_15537" x1="154.922" y1="226.475" x2="141.897" y2="239.479" gradientUnits="userSpaceOnUse">
<stop stop-color="#FAB882"/>
<stop offset="1" stop-color="#FF7300"/>
</linearGradient>
<clipPath id="clip0_14915_15537">
<rect width="432" height="380" fill="white" transform="translate(38 89)"/>
</clipPath>
<clipPath id="clip1_14915_15537">
<rect width="10" height="10" fill="white" transform="translate(157 343)"/>
</clipPath>
</defs>
</svg>
