<svg width="1920" height="720" viewBox="0 0 1920 720" fill="none" xmlns="http://www.w3.org/2000/svg">
<rect width="1920" height="720" transform="matrix(-1 0 0 1 1920 0)" fill="url(#paint0_linear_15948_41957)"/>
<path opacity="0.1" d="M107.711 178.643L74 126.015L130.719 126.498L107.711 178.643Z" stroke="#FF7300" stroke-width="2"/>
<path opacity="0.1" d="M126.92 190.091L93.209 137.462L149.928 137.945L126.92 190.091Z" stroke="#FF7300" stroke-width="2"/>
<path d="M1777.21 633.683L1770.62 640.281C1767.88 643.017 1763.45 643.017 1760.72 640.282C1757.98 637.548 1757.98 633.117 1760.72 630.384L1773.92 617.184C1776.65 614.451 1781.08 614.451 1783.81 617.184C1784.72 618.096 1786.2 618.096 1787.11 617.184C1788.02 616.273 1788.02 614.796 1787.11 613.885C1782.56 609.329 1775.17 609.329 1770.62 613.885L1757.42 627.084C1752.86 631.64 1752.86 639.025 1757.42 643.581C1761.97 648.139 1769.36 648.139 1773.92 643.581L1780.51 636.983C1781.43 636.071 1781.43 634.594 1780.51 633.683C1779.6 632.772 1778.13 632.772 1777.21 633.683Z" fill="#FF7300"/>
<path d="M1806.58 610.915C1811.14 606.359 1811.14 598.974 1806.58 594.418C1802.03 589.862 1794.64 589.862 1790.08 594.417L1782.16 602.335C1781.25 603.246 1781.25 604.723 1782.16 605.635C1783.08 606.546 1784.55 606.546 1785.46 605.635L1793.38 597.718C1796.12 594.984 1800.55 594.984 1803.28 597.718C1806.01 600.451 1806.01 604.882 1803.28 607.615L1788.76 622.133C1786.03 624.866 1781.6 624.866 1778.87 622.133C1777.95 621.222 1776.48 621.222 1775.57 622.133C1774.66 623.044 1774.66 624.521 1775.57 625.433C1780.12 629.988 1787.51 629.988 1792.06 625.433L1806.58 610.915Z" fill="#FF7300"/>
<path d="M1797.65 631.35C1796.74 630.439 1795.26 630.439 1794.35 631.35C1793.44 632.262 1793.44 633.739 1794.35 634.65L1801.35 641.648C1802.26 642.559 1803.74 642.559 1804.65 641.648C1805.56 640.737 1805.56 639.259 1804.65 638.348L1797.65 631.35Z" fill="#FF7300"/>
<path d="M1766.35 606.653C1767.26 607.564 1768.74 607.564 1769.65 606.653C1770.56 605.742 1770.56 604.264 1769.65 603.353L1762.65 596.348C1761.74 595.437 1760.26 595.437 1759.35 596.348C1758.44 597.26 1758.44 598.737 1759.35 599.648L1766.35 606.653Z" fill="#FF7300"/>
<path d="M1807.67 626H1800.67C1799.38 626 1798.33 627.045 1798.33 628.333C1798.33 629.622 1799.38 630.667 1800.67 630.667H1807.67C1808.95 630.667 1810 629.622 1810 628.333C1810 627.045 1808.95 626 1807.67 626Z" fill="#FF7300"/>
<path d="M1772.67 602.667C1773.95 602.667 1775 601.622 1775 600.333V593.333C1775 592.045 1773.95 591 1772.67 591C1771.38 591 1770.33 592.045 1770.33 593.333V600.333C1770.33 601.622 1771.38 602.667 1772.67 602.667Z" fill="#FF7300"/>
<path d="M1756.33 612H1763.33C1764.62 612 1765.67 610.955 1765.67 609.666C1765.67 608.378 1764.62 607.333 1763.33 607.333H1756.33C1755.04 607.333 1754 608.378 1754 609.666C1754 610.955 1755.04 612 1756.33 612Z" fill="#FF7300"/>
<path d="M1791.33 635.333C1790.04 635.333 1789 636.378 1789 637.666V644.666C1789 645.955 1790.04 646.999 1791.33 646.999C1792.62 646.999 1793.67 645.955 1793.67 644.666V637.666C1793.67 636.378 1792.62 635.333 1791.33 635.333Z" fill="#FF7300"/>
<defs>
<linearGradient id="paint0_linear_15948_41957" x1="960" y1="0" x2="960" y2="720" gradientUnits="userSpaceOnUse">
<stop stop-color="#FFF8F2" stop-opacity="0.71"/>
<stop offset="1" stop-color="#FFF2E7"/>
</linearGradient>
</defs>
</svg>
