<svg width="520" height="520" viewBox="0 0 520 520" fill="none" xmlns="http://www.w3.org/2000/svg">
<circle cx="260" cy="260" r="260" transform="matrix(-1 0 0 1 520 0)" fill="url(#paint0_linear_15029_10185)"/>
<g clip-path="url(#clip0_15029_10185)">
<path d="M351.635 427.811C351.525 428.025 351.415 428.239 351.299 428.447H121.857C117.342 422.924 114.565 415.971 114.29 408.399C114.218 406.332 114.114 404.265 113.98 402.197C112.743 383.33 108.96 364.609 102.034 347.002C95.4126 330.153 81.1146 315.072 83.0827 295.947C85.7631 266.377 116.996 261 136.587 246.122C138.927 244.103 140.992 241.926 142.88 239.62C146.444 235.021 150.014 229.645 152.694 224.269C158.938 205.456 164.293 185.746 178.573 171.409C191.067 158.866 210.7 158.866 224.627 168.645C228.002 170.908 231.462 173.745 234.953 177.214C276.859 218.814 255.44 245.461 319.697 244.06C360.189 243.173 343.102 308.117 339.867 330.991C337.576 347.154 334.507 363.838 337.631 380.107C339.178 388.167 342.517 395.17 346.598 402.197C346.671 402.325 346.743 402.46 346.824 402.588C351.307 410.259 356.064 418.992 351.635 427.811Z" fill="url(#paint1_linear_15029_10185)"/>
<mask id="mask0_15029_10185" style="mask-type:luminance" maskUnits="userSpaceOnUse" x="281" y="251" width="223" height="178">
<path d="M281.387 416.812C281.387 423.237 331.198 428.447 392.645 428.447C454.091 428.447 503.902 423.237 503.902 416.812C503.902 410.386 467.483 251.983 406.037 251.983C344.59 251.984 281.387 410.386 281.387 416.812Z" fill="white"/>
</mask>
<g mask="url(#mask0_15029_10185)">
<path d="M419.76 408.382C388.998 428.169 393.123 451.65 383.057 449.71C382.535 449.61 382.078 449.475 381.656 449.279C374.366 445.984 382.369 429.223 364.956 398.858C353.954 379.636 332.602 344.668 344.467 333.378C354.63 323.725 367.076 355.101 382.225 342.483C393.24 333.314 364.26 320.243 372.659 309.641C381.96 297.897 394.969 321.418 401.491 309.158C407.994 296.909 399.563 274.544 411.95 274.87C412.144 274.874 412.333 274.895 412.506 274.909C424.27 275.782 423.037 294.223 421.638 306.269C420.217 318.504 418.981 322.113 422.759 322.25C426.536 322.386 441.048 310.916 445.858 321.641C450.664 332.383 422.746 346.041 420.484 361.629C418.218 377.234 441.251 356.927 442.704 372.382C443.526 381.269 435.047 398.567 419.76 408.382Z" fill="#B7DBFF"/>
<path opacity="0.5" d="M430.32 378.003L396.404 394.51L403.429 353.737L403.456 353.774L427.335 334.167L404.024 350.278L412.229 302.658L406.072 330.297L389.966 319.916L405.494 332.896L396.103 375.061L360.955 354.574L395.556 377.523L383.918 430.671L388.918 431.666L395.891 397.485L430.32 378.003Z" fill="#3588D8"/>
</g>
<g filter="url(#filter0_d_15029_10185)">
<path d="M375.68 428.473H177.54C170.337 428.473 164.498 422.611 164.498 415.38V107.016C164.498 99.7847 170.337 93.9229 177.54 93.9229H375.68C382.883 93.9229 388.722 99.7847 388.722 107.016V415.38C388.721 422.611 382.882 428.473 375.68 428.473Z" fill="white"/>
</g>
<path d="M370.846 132.448H182.373C181.114 132.448 180.094 131.424 180.094 130.16V120.507C180.094 119.243 181.114 118.219 182.373 118.219H370.844C372.103 118.219 373.124 119.243 373.124 120.507V130.16C373.125 131.424 372.104 132.448 370.846 132.448Z" stroke="#F2F5F6" stroke-width="2" stroke-miterlimit="10" stroke-linecap="round"/>
<path d="M369.71 216.935H182.373C181.114 216.935 180.094 215.911 180.094 214.647V143.723C180.094 142.46 181.114 141.435 182.373 141.435H369.71C370.969 141.435 371.989 142.46 371.989 143.723V214.647C371.989 215.91 370.969 216.935 369.71 216.935Z" fill="#F2F5F6"/>
<path d="M355.989 368.614H196.094C188.551 368.614 184.78 368.614 182.437 370.957C180.094 373.301 180.094 377.072 180.094 384.614V388.178C180.094 395.721 180.094 399.492 182.437 401.835C184.78 404.178 188.551 404.178 196.094 404.178H355.989C363.532 404.178 367.303 404.178 369.646 401.835C371.989 399.492 371.989 395.721 371.989 388.178V384.614C371.989 377.072 371.989 373.301 369.646 370.957C367.303 368.614 363.532 368.614 355.989 368.614Z" fill="#FFF1EA"/>
<path d="M236.08 277.69H181.708C180.818 277.69 180.096 276.966 180.096 276.071V230.602C180.096 229.708 180.818 228.983 181.708 228.983H236.08C236.971 228.983 237.693 229.708 237.693 230.602V276.071C237.693 276.966 236.971 277.69 236.08 277.69Z" fill="#F2F5F6"/>
<path d="M236.834 290.912H180.953C180.716 290.912 180.525 290.721 180.525 290.483V286.849C180.525 286.611 180.716 286.419 180.953 286.419H236.834C237.07 286.419 237.261 286.611 237.261 286.849V290.483C237.261 290.721 237.069 290.912 236.834 290.912Z" fill="#EBEFF2"/>
<path d="M303.666 290.912H247.785C247.548 290.912 247.357 290.721 247.357 290.483V286.849C247.357 286.611 247.548 286.419 247.785 286.419H303.666C303.902 286.419 304.093 286.611 304.093 286.849V290.483C304.093 290.721 303.902 290.912 303.666 290.912Z" fill="#EBEFF2"/>
<path d="M370.633 314.957H180.818C180.582 314.957 180.391 314.766 180.391 314.528V310.892C180.391 310.655 180.582 310.463 180.818 310.463H370.633C370.869 310.463 371.06 310.655 371.06 310.892V314.528C371.06 314.766 370.869 314.957 370.633 314.957Z" fill="#EBEFF2"/>
<path d="M370.633 325.943H180.818C180.582 325.943 180.391 325.751 180.391 325.514V321.879C180.391 321.641 180.582 321.45 180.818 321.45H370.633C370.869 321.45 371.06 321.641 371.06 321.879V325.514C371.06 325.751 370.869 325.943 370.633 325.943Z" fill="#EBEFF2"/>
<path d="M370.633 336.929H180.818C180.582 336.929 180.391 336.737 180.391 336.5V332.865C180.391 332.628 180.582 332.436 180.818 332.436H370.633C370.869 332.436 371.06 332.628 371.06 332.865V336.5C371.06 336.737 370.869 336.929 370.633 336.929Z" fill="#EBEFF2"/>
<path d="M370.633 347.915H180.818C180.582 347.915 180.391 347.723 180.391 347.486V343.85C180.391 343.613 180.582 343.421 180.818 343.421H370.633C370.869 343.421 371.06 343.613 371.06 343.85V347.486C371.06 347.722 370.869 347.915 370.633 347.915Z" fill="#EBEFF2"/>
<path d="M370.633 358.9H180.818C180.582 358.9 180.391 358.709 180.391 358.471V354.836C180.391 354.599 180.582 354.407 180.818 354.407H370.633C370.869 354.407 371.06 354.599 371.06 354.836V358.471C371.06 358.709 370.869 358.9 370.633 358.9Z" fill="#EBEFF2"/>
<path d="M370.498 290.912H314.617C314.38 290.912 314.189 290.721 314.189 290.483V286.849C314.189 286.611 314.38 286.419 314.617 286.419H370.498C370.734 286.419 370.925 286.611 370.925 286.849V290.483C370.925 290.721 370.734 290.912 370.498 290.912Z" fill="#EBEFF2"/>
<path d="M236.834 299.479H180.953C180.716 299.479 180.525 299.287 180.525 299.05V295.414C180.525 295.177 180.716 294.985 180.953 294.985H236.834C237.07 294.985 237.261 295.177 237.261 295.414V299.05C237.261 299.286 237.069 299.479 236.834 299.479Z" fill="#EBEFF2"/>
<path d="M303.666 299.479H247.785C247.548 299.479 247.357 299.287 247.357 299.05V295.414C247.357 295.177 247.548 294.985 247.785 294.985H303.666C303.902 294.985 304.093 295.177 304.093 295.414V299.05C304.093 299.286 303.902 299.479 303.666 299.479Z" fill="#EBEFF2"/>
<path d="M370.498 299.479H314.617C314.38 299.479 314.189 299.287 314.189 299.05V295.414C314.189 295.177 314.38 294.985 314.617 294.985H370.498C370.734 294.985 370.925 295.177 370.925 295.414V299.05C370.925 299.286 370.734 299.479 370.498 299.479Z" fill="#EBEFF2"/>
<path d="M302.912 277.69H248.54C247.65 277.69 246.928 276.966 246.928 276.071V230.602C246.928 229.708 247.65 228.983 248.54 228.983H302.912C303.803 228.983 304.525 229.708 304.525 230.602V276.071C304.525 276.966 303.803 277.69 302.912 277.69Z" fill="#F2F5F6"/>
<path d="M369.744 277.69H315.372C314.482 277.69 313.76 276.966 313.76 276.071V230.602C313.76 229.708 314.482 228.983 315.372 228.983H369.744C370.635 228.983 371.357 229.708 371.357 230.602V276.071C371.358 276.966 370.635 277.69 369.744 277.69Z" fill="#F2F5F6"/>
<path d="M146.653 458.369C179.961 458.369 206.962 454.041 206.962 448.702C206.962 443.363 179.961 439.035 146.653 439.035C113.345 439.035 86.3438 443.363 86.3438 448.702C86.3438 454.041 113.345 458.369 146.653 458.369Z" fill="url(#paint2_linear_15029_10185)"/>
<path d="M99.1997 269.627C98.2086 270.987 98.1574 272.823 98.808 274.376C101.851 281.641 112.898 307.448 116.29 307.483C120.24 307.522 105.949 269.375 103.901 268.923C102.365 268.584 100.554 267.769 99.1997 269.627Z" fill="#F2BC97"/>
<g filter="url(#filter1_d_15029_10185)">
<path d="M242.737 285.34L143.313 353.76C142.198 354.526 140.678 354.241 139.914 353.122L110.544 310.105C109.78 308.986 110.064 307.459 111.179 306.693L210.603 238.273C211.718 237.506 213.239 237.791 214.002 238.911L243.372 281.926C244.136 283.045 243.852 284.573 242.737 285.34Z" fill="white"/>
</g>
<path d="M182.4 279.598L197.971 268.883C203.06 265.381 210.014 266.683 213.501 271.793C216.99 276.902 215.692 283.883 210.603 287.384L185.682 304.532C180.593 308.035 173.639 306.732 170.151 301.623C168.272 298.871 167.782 295.576 168.525 292.574" stroke="#0061BF" stroke-width="2" stroke-miterlimit="10" stroke-linecap="round"/>
<path d="M172.112 311.252L156.542 321.967C151.453 325.469 144.499 324.167 141.011 319.057C137.522 313.948 138.82 306.967 143.909 303.466L168.83 286.317C173.919 282.815 180.873 284.118 184.36 289.227C186.238 291.979 186.729 295.274 185.987 298.276" stroke="#FF7300" stroke-width="2" stroke-miterlimit="10" stroke-linecap="round"/>
<path d="M125.507 250.481C124.282 249.605 122.627 249.657 121.319 250.402C115.442 253.743 95.9264 265.264 98.0585 269.8C100.566 275.133 117.276 263.875 121.703 260.001C125.392 256.77 128.468 252.597 125.507 250.481Z" fill="#F2BC97"/>
<path d="M121.974 248.147L105.75 259.571L112.172 269.525L123.663 260.815L121.974 248.147Z" fill="url(#paint3_linear_15029_10185)"/>
<path d="M117.342 299.825C114.957 301.113 117.635 304.991 118.597 306.281C120.164 308.38 123.579 309.644 124.419 309.035C125.258 308.425 121.408 303.859 121.485 303.558C121.56 303.257 123.646 305.299 124.376 304.644C125.107 303.99 122.693 300.932 121.261 300.096C119.831 299.259 118.836 299.019 117.342 299.825Z" fill="#F2BC97"/>
<path d="M140.578 369.024C127.753 362.356 135.271 421.595 139.959 436.367C144.646 451.14 145.745 434.999 145.759 410.522C145.775 386.047 145.624 371.648 140.578 369.024Z" fill="#F2BC97"/>
<path d="M138.975 435.582L136.979 425.865L145.843 425.679L145.323 437.009L138.975 435.582Z" fill="#F2BC97"/>
<path d="M114.656 364.689C110.522 348.788 66.4633 389.147 57.6118 401.879C48.7591 414.61 63.1535 406.598 83.7272 392.883C104.301 379.168 116.283 370.946 114.656 364.689Z" fill="#F2BC97"/>
<path d="M130.841 333.983C131.667 356.027 136.075 373.758 140.686 373.583C145.297 373.409 148.367 355.398 147.54 333.352C146.713 311.308 142.306 293.578 137.693 293.752C133.084 293.926 130.016 311.939 130.841 333.983Z" fill="#F2BC97"/>
<path d="M109.524 321.797C105.119 343.41 105.214 361.684 109.735 362.612C114.257 363.541 121.492 346.772 125.897 325.16C130.301 303.547 130.207 285.273 125.685 284.345C121.163 283.418 113.929 300.185 109.524 321.797Z" fill="#F2BC97"/>
<path d="M153.508 254.548C155.034 254.607 156.344 255.668 156.954 257.066C159.696 263.339 170.615 288.466 166.13 290.754C160.858 293.442 152.057 270.254 150.816 264.449C149.783 259.611 149.819 254.404 153.508 254.548Z" fill="#F2BC97"/>
<path d="M163.881 273.31L168.351 285.227L177.192 294.9L168.6 297.443C168.6 297.443 163.285 292.456 162.043 290.661C160.801 288.867 155.785 278.545 155.785 278.545L163.881 273.31Z" fill="#F2BC97"/>
<path d="M163.183 288.582C162.732 290.314 163.393 292.15 164.641 293.431C170.471 299.425 191.42 320.622 194.789 319.329C198.71 317.822 169.762 285.69 167.56 286.045C165.908 286.312 163.799 286.214 163.183 288.582Z" fill="#F2BC97"/>
<path d="M191.679 320.441C190.204 318.909 188.988 316.951 190.46 315.524C191.894 314.128 192.634 314.102 194.873 315.159C196.637 315.991 198.945 315.795 198.315 316.759C197.691 317.745 196.336 318.062 196.347 318.433C195.998 321.538 192.49 321.301 191.679 320.441Z" fill="#F2BC97"/>
<path d="M144.394 240.23L140.226 235.932L138.352 247.978C138.352 247.978 142.086 251.652 142.198 251.256C142.311 250.86 143.494 247.976 143.494 247.976" fill="#F2BC97"/>
<path d="M152.869 264.285V264.306C152.828 264.716 152.768 265.104 152.686 265.532C152.626 265.839 152.564 266.146 152.504 266.472C152.484 266.614 152.443 266.737 152.422 266.881C152.381 267.086 152.321 267.269 152.28 267.452C152.259 267.555 152.239 267.636 152.218 267.718C151.892 268.984 151.568 270.026 151.201 270.986C150.896 271.803 150.591 272.559 150.285 273.335C149.369 275.602 148.454 277.912 147.782 282.243C146.541 290.291 145.971 294.377 145.971 294.377C145.971 294.377 130.771 296.338 114.879 290.229C114.879 290.229 114.96 289.943 115.083 289.412C115.815 286.327 118.358 274.887 117.566 265.634C117.484 264.755 117.383 263.897 117.24 263.081C115.388 252.05 121.757 243.735 133.925 246.002C139.317 247.002 142.716 247.758 144.994 248.596C147.842 249.639 148.982 250.782 150.244 252.662C151.994 255.256 153.52 258.892 152.869 264.285Z" fill="url(#paint4_linear_15029_10185)"/>
<path opacity="0.5" d="M152.28 267.452C152.259 267.555 152.239 267.636 152.218 267.717C151.892 268.984 151.567 270.026 151.2 270.986C150.895 271.803 150.591 272.559 150.284 273.335C149.572 269.31 147.537 265.838 147.537 265.838L152.28 267.452Z" fill="#D8D0BC"/>
<g opacity="0.5">
<path d="M115.08 289.42C115.817 286.332 118.358 274.891 117.56 265.641L121.299 263.36C121.299 263.36 118.291 281.541 115.08 289.42Z" fill="url(#paint5_linear_15029_10185)"/>
</g>
<path d="M155.89 225.133L140.615 218.458L141.945 241.995C141.945 241.995 144.547 244.646 149.945 240.288C155.345 235.929 155.89 225.133 155.89 225.133Z" fill="#F2BC97"/>
<path d="M137.827 213.792C137.827 213.792 131.034 213.001 127.632 217.742C124.229 222.483 125.445 232.082 120.127 233.65C119.596 233.807 119.004 233.959 118.372 234.118C112.12 235.694 117.432 239.337 111.434 241.895C106.086 244.175 106.418 247.579 107.411 253.812C107.763 256.025 107.971 263.865 116.894 263.447C122.448 263.187 128.384 262.159 133.062 258.954C135.762 257.104 137.622 254.297 138.832 251.289C140.037 248.298 140.2 244.838 142.12 242.161C143.842 239.762 147.367 238.926 148.407 235.987C149.067 234.121 146.469 231.775 149.23 229.636C151.99 227.495 156.389 226.115 156.424 224.308C156.457 222.502 156.776 216.984 149.49 213.481C142.201 209.976 137.827 213.792 137.827 213.792Z" fill="#292466"/>
<path d="M164.974 273.409L155.041 280.09L147.495 265.832L144.541 248.471L144.995 248.6C144.995 248.6 153.398 250.974 157.128 255.06C160.405 258.65 164.974 273.409 164.974 273.409Z" fill="url(#paint6_linear_15029_10185)"/>
<path d="M145.676 435.987C145.676 435.987 147.926 438.921 152.863 442.764C157.8 446.606 159.109 445.798 159.211 447.213C159.312 448.629 138.557 447.213 138.557 447.213L138.976 435.581C138.976 435.581 145.676 435.684 145.676 435.987Z" fill="#FFA53C"/>
<path d="M63.0248 405.615C63.0248 405.615 62.4346 409.27 63.0235 415.513C63.611 421.758 65.0964 422.162 64.1368 423.205C63.1773 424.248 50 408.089 50 408.089L58.7345 400.434C58.7345 400.434 63.2456 405.406 63.0248 405.615Z" fill="#FFA53C"/>
<path d="M145.937 297.759C145.937 297.759 149.537 318.724 149.106 350.527C148.675 382.33 146.197 426.03 146.197 426.03C146.197 426.03 136.884 426.541 136.822 426.174C129.029 379.3 133.806 368.59 133.806 368.59L126.191 331.415C126.191 331.415 121.738 359.467 117.859 366.39C113.98 373.313 74.9752 400.283 74.9752 400.283L67.5762 389.683C81.3686 374.466 104.282 359.395 104.282 359.395C104.282 359.395 98.7508 311.078 113.549 292.761" fill="#264B89"/>
<path d="M145.938 297.76C133.467 297.789 118.976 295.084 113.254 293.491C114.213 291.183 114.876 290.22 114.876 290.22L145.747 294.068C145.747 294.068 145.817 295.412 145.938 297.76Z" fill="#315A9E"/>
<g opacity="0.5">
<path d="M430.913 228.275L425.537 251.544L404.557 246.658L411.576 216.281L425.475 219.518L430.913 228.275Z" fill="#DAE3EF"/>
<path d="M423.832 226.627L430.913 228.275L425.475 219.518L423.832 226.627Z" fill="#E9EEF4"/>
<path d="M427.768 231.9L411.115 228.021L410.917 228.879L427.57 232.758L427.768 231.9Z" fill="#F9FBFC"/>
<path d="M426.95 235.436L410.297 231.558L410.099 232.415L426.751 236.294L426.95 235.436Z" fill="#F9FBFC"/>
<path d="M426.133 238.972L409.48 235.093L409.282 235.95L425.935 239.829L426.133 238.972Z" fill="#F9FBFC"/>
</g>
<path d="M289.496 170.8H307.986C314.03 170.8 318.93 175.719 318.93 181.787C318.93 187.854 314.03 192.773 307.986 192.773H278.393C272.35 192.773 267.451 187.854 267.451 181.787C267.451 178.518 268.873 175.584 271.128 173.572" stroke="#0061BF" stroke-width="3" stroke-miterlimit="10" stroke-linecap="round"/>
<path d="M263.721 190.654H245.23C239.187 190.654 234.287 185.735 234.287 179.668C234.287 173.601 239.187 168.682 245.23 168.682H274.823C280.867 168.682 285.767 173.601 285.767 179.668C285.767 182.936 284.345 185.871 282.09 187.883" stroke="#FF7300" stroke-width="3" stroke-miterlimit="10" stroke-linecap="round"/>
<path d="M168.401 79.083C145.058 79.083 126.068 98.1485 126.068 121.582C126.068 145.016 145.059 164.082 168.401 164.082C191.743 164.082 210.733 145.017 210.733 121.582C210.733 98.1475 191.742 79.083 168.401 79.083Z" fill="white"/>
<path opacity="0.3" d="M168.403 87.7879C186.964 87.7879 202.064 102.947 202.064 121.582C202.064 140.216 186.963 155.375 168.403 155.375C149.843 155.375 134.742 140.216 134.742 121.582C134.742 102.947 149.841 87.7879 168.403 87.7879ZM168.403 78.9512C144.988 78.9512 125.939 98.075 125.939 121.582C125.939 145.088 144.988 164.212 168.403 164.212C191.817 164.212 210.866 145.088 210.866 121.582C210.866 98.075 191.817 78.9512 168.403 78.9512Z" fill="#FF7300"/>
<path opacity="0.3" d="M143.072 121.582C143.072 135.626 154.412 147.01 168.401 147.01C182.39 147.01 193.73 135.626 193.73 121.582C193.73 107.538 182.39 96.1533 168.401 96.1533C154.412 96.1533 143.072 107.538 143.072 121.582ZM151.606 121.582C151.606 112.27 159.125 104.722 168.4 104.722C177.675 104.722 185.194 112.27 185.194 121.582C185.194 130.893 177.675 138.442 168.4 138.442C159.125 138.442 151.606 130.893 151.606 121.582Z" fill="#FF7300"/>
<path opacity="0.3" d="M168.401 130.012C173.038 130.012 176.798 126.238 176.798 121.582C176.798 116.927 173.038 113.152 168.401 113.152C163.763 113.152 160.004 116.927 160.004 121.582C160.004 126.238 163.763 130.012 168.401 130.012Z" fill="#FF7300"/>
<path d="M129.221 80.7587L129.864 77.5264C130.161 76.0411 131.985 75.4859 133.053 76.557L141.009 84.5441C141.455 84.9922 141.65 85.6353 141.526 86.2572L140.537 91.2227L142.12 92.8129L167.91 118.704L171.269 115.621V124.46H162.465L165.536 121.088L139.746 95.1967L138.163 93.6075L133.217 94.6002C132.598 94.7242 131.957 94.5303 131.511 94.0811L123.555 86.094C122.488 85.0229 123.041 83.1901 124.52 82.8935L127.741 82.2472C128.487 82.0968 129.072 81.5099 129.221 80.7587Z" fill="#FF7300"/>
<g opacity="0.5">
<path d="M429.767 187.078L435.066 192.399C436.798 194.137 436.798 196.958 435.066 198.696C433.334 200.435 430.525 200.435 428.794 198.696L420.311 190.18C418.579 188.441 418.579 185.622 420.311 183.883C421.244 182.947 422.489 182.514 423.71 182.586" stroke="#C4D5E8" stroke-width="2" stroke-miterlimit="10" stroke-linecap="round"/>
<path d="M416.712 185.352L411.412 180.032C409.68 178.293 409.68 175.473 411.412 173.735C413.144 171.996 415.953 171.996 417.685 173.735L426.167 182.25C427.899 183.989 427.899 186.809 426.167 188.548C425.234 189.484 423.989 189.916 422.768 189.844" stroke="#C4D5E8" stroke-width="2" stroke-miterlimit="10" stroke-linecap="round"/>
</g>
<g opacity="0.5">
<path d="M119.111 190.935L123.185 186.844C124.517 185.507 124.517 183.339 123.185 182.002C121.854 180.666 119.694 180.666 118.363 182.002L111.841 188.55C110.509 189.887 110.509 192.055 111.841 193.392C112.558 194.112 113.516 194.444 114.454 194.389" stroke="#C4D5E8" stroke-width="2" stroke-miterlimit="10" stroke-linecap="round"/>
<path d="M109.073 192.262L104.999 196.353C103.667 197.689 103.667 199.858 104.999 201.194C106.33 202.531 108.49 202.531 109.821 201.194L116.343 194.647C117.675 193.31 117.675 191.142 116.343 189.805C115.626 189.085 114.668 188.753 113.73 188.808" stroke="#C4D5E8" stroke-width="2" stroke-miterlimit="10" stroke-linecap="round"/>
</g>
<g opacity="0.5">
<path d="M307.277 59.7577L314.431 57.5128C316.769 56.7786 319.256 58.087 319.988 60.4347C320.719 62.7824 319.416 65.2795 317.077 66.0136L305.627 69.6072C303.289 70.3414 300.802 69.033 300.07 66.6853C299.677 65.4214 299.873 64.113 300.503 63.061" stroke="#C4D5E8" stroke-width="2" stroke-miterlimit="10" stroke-linecap="round"/>
<path d="M299.697 70.5693L292.544 72.8143C290.205 73.5485 287.718 72.2401 286.987 69.8924C286.255 67.5446 287.559 65.0476 289.897 64.3134L301.347 60.7198C303.685 59.9856 306.173 61.294 306.904 63.6417C307.298 64.9056 307.101 66.214 306.471 67.266" stroke="#C4D5E8" stroke-width="2" stroke-miterlimit="10" stroke-linecap="round"/>
</g>
<g opacity="0.5">
<path d="M399.572 114.815V121.567C399.572 122.345 400.2 122.974 400.974 122.974H403.501C403.837 122.974 404.122 123.199 404.213 123.524C404.736 125.367 405.513 127.101 406.512 128.686L406.513 128.687L404.393 130.816C403.845 131.366 403.845 132.255 404.393 132.805L409.148 137.579C409.696 138.129 410.582 138.129 411.13 137.579L413.323 135.378L413.326 135.38C415.081 136.434 417.015 137.221 419.07 137.688H419.072V140.697C419.072 141.474 419.7 142.104 420.473 142.104H427.198C427.972 142.104 428.6 141.474 428.6 140.697V137.589H428.602C430.643 137.068 432.557 136.234 434.292 135.139L434.293 135.138L436.411 137.264C436.959 137.814 437.845 137.814 438.393 137.264L443.148 132.491C443.696 131.941 443.696 131.051 443.148 130.501L441.354 128.7C441.116 128.462 441.072 128.1 441.236 127.806C442.052 126.339 442.692 124.76 443.115 123.098C443.201 122.764 443.49 122.529 443.833 122.529H446.253C447.028 122.529 447.655 121.898 447.655 121.122V114.37C447.655 113.594 447.027 112.963 446.253 112.963H443.718C443.382 112.963 443.096 112.737 443.005 112.413C442.538 110.762 441.869 109.197 441.016 107.749C440.842 107.452 440.882 107.082 441.124 106.839L442.834 105.121C443.382 104.571 443.382 103.681 442.834 103.132L438.079 98.3579C437.532 97.8081 436.645 97.8081 436.097 98.3579L433.907 100.556C432.308 99.6049 430.566 98.8633 428.722 98.3844C428.391 98.2986 428.157 98.0083 428.157 97.6651V95.239C428.157 94.4613 427.529 93.832 426.755 93.832H420.03C419.255 93.832 418.628 94.4624 418.628 95.239V97.7805C418.628 98.1174 418.404 98.4035 418.081 98.4956C416.435 98.966 414.872 99.642 413.428 100.494C413.134 100.667 412.765 100.627 412.524 100.384L410.817 98.6705C410.27 98.1206 409.382 98.1206 408.835 98.6705L404.08 103.444C403.533 103.994 403.533 104.885 404.08 105.434L405.873 107.234C406.111 107.472 406.155 107.833 405.992 108.128C405.175 109.595 404.533 111.176 404.106 112.839C404.02 113.172 403.731 113.407 403.389 113.407H400.976C400.2 113.407 399.572 114.038 399.572 114.815ZM413.963 112.006C414.781 110.451 416.064 109.155 417.607 108.324C428.194 102.624 438.882 113.305 433.246 123.962C432.423 125.519 431.132 126.814 429.582 127.64C419.004 133.271 408.374 122.634 413.963 112.006Z" fill="#C4D5E8"/>
<path d="M423.614 125.069C427.52 125.069 430.686 121.89 430.686 117.968C430.686 114.047 427.52 110.868 423.614 110.868C419.707 110.868 416.541 114.047 416.541 117.968C416.541 121.89 419.707 125.069 423.614 125.069Z" fill="#C4D5E8"/>
</g>
</g>
<defs>
<filter id="filter0_d_15029_10185" x="124.498" y="68.9229" width="304.225" height="414.55" filterUnits="userSpaceOnUse" color-interpolation-filters="sRGB">
<feFlood flood-opacity="0" result="BackgroundImageFix"/>
<feColorMatrix in="SourceAlpha" type="matrix" values="0 0 0 0 0 0 0 0 0 0 0 0 0 0 0 0 0 0 127 0" result="hardAlpha"/>
<feOffset dy="15"/>
<feGaussianBlur stdDeviation="20"/>
<feComposite in2="hardAlpha" operator="out"/>
<feColorMatrix type="matrix" values="0 0 0 0 0.117647 0 0 0 0 0.129412 0 0 0 0 0.176471 0 0 0 0.07 0"/>
<feBlend mode="normal" in2="BackgroundImageFix" result="effect1_dropShadow_15029_10185"/>
<feBlend mode="normal" in="SourceGraphic" in2="effect1_dropShadow_15029_10185" result="shape"/>
</filter>
<filter id="filter1_d_15029_10185" x="70.1152" y="212.843" width="213.686" height="196.347" filterUnits="userSpaceOnUse" color-interpolation-filters="sRGB">
<feFlood flood-opacity="0" result="BackgroundImageFix"/>
<feColorMatrix in="SourceAlpha" type="matrix" values="0 0 0 0 0 0 0 0 0 0 0 0 0 0 0 0 0 0 127 0" result="hardAlpha"/>
<feOffset dy="15"/>
<feGaussianBlur stdDeviation="20"/>
<feComposite in2="hardAlpha" operator="out"/>
<feColorMatrix type="matrix" values="0 0 0 0 0.117647 0 0 0 0 0.129412 0 0 0 0 0.176471 0 0 0 0.07 0"/>
<feBlend mode="normal" in2="BackgroundImageFix" result="effect1_dropShadow_15029_10185"/>
<feBlend mode="normal" in="SourceGraphic" in2="effect1_dropShadow_15029_10185" result="shape"/>
</filter>
<linearGradient id="paint0_linear_15029_10185" x1="46" y1="-23.5" x2="430.5" y2="506.5" gradientUnits="userSpaceOnUse">
<stop stop-color="#EAF4FE"/>
<stop offset="1" stop-color="#DCEDFF" stop-opacity="0"/>
</linearGradient>
<linearGradient id="paint1_linear_15029_10185" x1="55.2758" y1="179.484" x2="246.195" y2="430.395" gradientUnits="userSpaceOnUse">
<stop stop-color="#EAF4FE"/>
<stop offset="1" stop-color="#DCEDFF" stop-opacity="0"/>
</linearGradient>
<linearGradient id="paint2_linear_15029_10185" x1="95.5378" y1="493.86" x2="163.794" y2="434.03" gradientUnits="userSpaceOnUse">
<stop offset="0.0427" stop-color="#F0F5F7"/>
<stop offset="0.4781" stop-color="#EDF2F6"/>
<stop offset="0.8129" stop-color="#E3EBF2"/>
<stop offset="1" stop-color="#DAE3EF"/>
</linearGradient>
<linearGradient id="paint3_linear_15029_10185" x1="123.657" y1="258.958" x2="105.734" y2="258.958" gradientUnits="userSpaceOnUse">
<stop stop-color="#FAB882"/>
<stop offset="1" stop-color="#FF7300"/>
</linearGradient>
<linearGradient id="paint4_linear_15029_10185" x1="153.009" y1="270.432" x2="114.845" y2="270.432" gradientUnits="userSpaceOnUse">
<stop stop-color="#FAB882"/>
<stop offset="1" stop-color="#FF7300"/>
</linearGradient>
<linearGradient id="paint5_linear_15029_10185" x1="121.297" y1="276.539" x2="115.074" y2="276.539" gradientUnits="userSpaceOnUse">
<stop stop-color="#FAB882"/>
<stop offset="1" stop-color="#FF7300"/>
</linearGradient>
<linearGradient id="paint6_linear_15029_10185" x1="148.862" y1="270.034" x2="163.369" y2="257.554" gradientUnits="userSpaceOnUse">
<stop stop-color="#FAB882"/>
<stop offset="1" stop-color="#FF7300"/>
</linearGradient>
<clipPath id="clip0_15029_10185">
<rect width="420" height="410" fill="white" transform="translate(50 55)"/>
</clipPath>
</defs>
</svg>
