<svg width="60" height="60" viewBox="0 0 60 60" fill="none" xmlns="http://www.w3.org/2000/svg">
<rect x="0.5" y="0.5" width="59" height="59" rx="7.5" fill="white" stroke="#D8DEE6"/>
<path d="M46.6673 31.6663V24.9997C46.6673 16.6663 43.334 13.333 35.0007 13.333H25.0007C16.6673 13.333 13.334 16.6663 13.334 24.9997V34.9997C13.334 43.333 16.6673 46.6663 25.0007 46.6663H31.6673" stroke="#FF7300" stroke-width="2" stroke-linecap="round" stroke-linejoin="round"/>
<path d="M22.2168 34.1496L26.1835 28.9996C26.7501 28.2663 27.8001 28.133 28.5335 28.6996L31.5835 31.0996C32.3168 31.6663 33.3668 31.533 33.9335 30.8163L37.7835 25.8496" stroke="#FF7300" stroke-width="2" stroke-linecap="round" stroke-linejoin="round"/>
<path d="M42.4674 36.3664L42.934 37.3164C43.1674 37.7831 43.7507 38.2164 44.2673 38.3164L44.9007 38.4164C46.8007 38.7331 47.2507 40.1331 45.884 41.5164L45.3007 42.0997C44.9173 42.4997 44.7007 43.2664 44.8174 43.7997L44.9007 44.1497C45.4173 46.4497 44.2007 47.333 42.2007 46.133L41.7673 45.8831C41.2507 45.5831 40.4173 45.5831 39.9007 45.8831L39.4673 46.133C37.4507 47.3497 36.234 46.4497 36.7673 44.1497L36.8506 43.7997C36.9673 43.2664 36.7507 42.4997 36.3674 42.0997L35.784 41.5164C34.4173 40.1331 34.8673 38.7331 36.7673 38.4164L37.4007 38.3164C37.9007 38.2331 38.5007 37.7831 38.734 37.3164L39.2007 36.3664C40.1007 34.5497 41.5674 34.5497 42.4674 36.3664Z" stroke="#0061BF" stroke-width="2" stroke-linecap="round" stroke-linejoin="round"/>
</svg>
