<svg width="60" height="60" viewBox="0 0 60 60" fill="none" xmlns="http://www.w3.org/2000/svg">
<rect x="0.5" y="0.5" width="59" height="59" rx="7.5" fill="white" stroke="#D8DEE6"/>
<path d="M45.1329 24.2997V35.6997C45.1329 37.5663 44.1329 39.2997 42.5163 40.2497L32.6163 45.9664C30.9996 46.8997 28.9996 46.8997 27.3663 45.9664L17.4663 40.2497C15.8496 39.3164 14.8496 37.583 14.8496 35.6997V24.2997C14.8496 22.4331 15.8496 20.6997 17.4663 19.7497L27.3663 14.033C28.9829 13.0997 30.9829 13.0997 32.6163 14.033L42.5163 19.7497C44.1329 20.6997 45.1329 22.4164 45.1329 24.2997Z" stroke="#FF7300" stroke-width="2" stroke-linecap="round" stroke-linejoin="round"/>
<path d="M30.0005 28.333C32.1452 28.333 33.8839 26.5944 33.8839 24.4497C33.8839 22.305 32.1452 20.5664 30.0005 20.5664C27.8558 20.5664 26.1172 22.305 26.1172 24.4497C26.1172 26.5944 27.8558 28.333 30.0005 28.333Z" stroke="#0061BF" stroke-width="2" stroke-linecap="round" stroke-linejoin="round"/>
<path d="M36.6673 37.7663C36.6673 34.7663 33.684 32.333 30.0007 32.333C26.3173 32.333 23.334 34.7663 23.334 37.7663" stroke="#0061BF" stroke-width="2" stroke-linecap="round" stroke-linejoin="round"/>
</svg>
