<svg width="455" height="370" viewBox="0 0 455 370" fill="none" xmlns="http://www.w3.org/2000/svg">
<circle cx="31" cy="31" r="31" transform="matrix(-1 0 0 1 278 258)" fill="url(#paint0_linear_14915_15387)"/>
<circle cx="12" cy="12" r="12" transform="matrix(-1 0 0 1 424 171)" fill="url(#paint1_linear_14915_15387)"/>
<circle opacity="0.3" cx="45" cy="45" r="45" transform="matrix(-1 0 0 1 102 30)" fill="url(#paint2_linear_14915_15387)"/>
<g filter="url(#filter0_d_14915_15387)">
<rect x="40" y="60" width="352" height="228" rx="16" fill="white"/>
</g>
<path d="M61.02 95V84.5H64.605C65.835 84.5 66.845 84.72 67.635 85.16C68.435 85.59 69.025 86.2 69.405 86.99C69.795 87.77 69.99 88.69 69.99 89.75C69.99 90.81 69.795 91.735 69.405 92.525C69.025 93.305 68.435 93.915 67.635 94.355C66.845 94.785 65.835 95 64.605 95H61.02ZM62.94 93.35H64.515C65.395 93.35 66.09 93.21 66.6 92.93C67.11 92.64 67.475 92.23 67.695 91.7C67.915 91.16 68.025 90.51 68.025 89.75C68.025 89 67.915 88.355 67.695 87.815C67.475 87.275 67.11 86.86 66.6 86.57C66.09 86.28 65.395 86.135 64.515 86.135H62.94V93.35ZM75.2541 95.18C74.5041 95.18 73.8391 95.02 73.2591 94.7C72.6791 94.38 72.2241 93.93 71.8941 93.35C71.5641 92.77 71.3991 92.1 71.3991 91.34C71.3991 90.57 71.5591 89.885 71.8791 89.285C72.2091 88.685 72.6591 88.22 73.2291 87.89C73.8091 87.55 74.4891 87.38 75.2691 87.38C75.9991 87.38 76.6441 87.54 77.2041 87.86C77.7641 88.18 78.1991 88.62 78.5091 89.18C78.8291 89.73 78.9891 90.345 78.9891 91.025C78.9891 91.135 78.9841 91.25 78.9741 91.37C78.9741 91.49 78.9691 91.615 78.9591 91.745H73.3041C73.3441 92.325 73.5441 92.78 73.9041 93.11C74.2741 93.44 74.7191 93.605 75.2391 93.605C75.6291 93.605 75.9541 93.52 76.2141 93.35C76.4841 93.17 76.6841 92.94 76.8141 92.66H78.7641C78.6241 93.13 78.3891 93.56 78.0591 93.95C77.7391 94.33 77.3391 94.63 76.8591 94.85C76.3891 95.07 75.8541 95.18 75.2541 95.18ZM75.2691 88.94C74.7991 88.94 74.3841 89.075 74.0241 89.345C73.6641 89.605 73.4341 90.005 73.3341 90.545H77.0391C77.0091 90.055 76.8291 89.665 76.4991 89.375C76.1691 89.085 75.7591 88.94 75.2691 88.94ZM80.6039 95V84.2H82.5239V95H80.6039ZM85.5207 86.405C85.1707 86.405 84.8807 86.3 84.6507 86.09C84.4307 85.88 84.3207 85.615 84.3207 85.295C84.3207 84.975 84.4307 84.715 84.6507 84.515C84.8807 84.305 85.1707 84.2 85.5207 84.2C85.8707 84.2 86.1557 84.305 86.3757 84.515C86.6057 84.715 86.7207 84.975 86.7207 85.295C86.7207 85.615 86.6057 85.88 86.3757 86.09C86.1557 86.3 85.8707 86.405 85.5207 86.405ZM84.5607 95V87.56H86.4807V95H84.5607ZM90.4948 95L87.7648 87.56H89.7748L91.6648 93.185L93.5548 87.56H95.5648L92.8198 95H90.4948ZM100.025 95.18C99.2746 95.18 98.6096 95.02 98.0296 94.7C97.4496 94.38 96.9946 93.93 96.6646 93.35C96.3346 92.77 96.1696 92.1 96.1696 91.34C96.1696 90.57 96.3296 89.885 96.6496 89.285C96.9796 88.685 97.4296 88.22 97.9996 87.89C98.5796 87.55 99.2596 87.38 100.04 87.38C100.77 87.38 101.415 87.54 101.975 87.86C102.535 88.18 102.97 88.62 103.28 89.18C103.6 89.73 103.76 90.345 103.76 91.025C103.76 91.135 103.755 91.25 103.745 91.37C103.745 91.49 103.74 91.615 103.73 91.745H98.0746C98.1146 92.325 98.3146 92.78 98.6746 93.11C99.0446 93.44 99.4896 93.605 100.01 93.605C100.4 93.605 100.725 93.52 100.985 93.35C101.255 93.17 101.455 92.94 101.585 92.66H103.535C103.395 93.13 103.16 93.56 102.83 93.95C102.51 94.33 102.11 94.63 101.63 94.85C101.16 95.07 100.625 95.18 100.025 95.18ZM100.04 88.94C99.5696 88.94 99.1546 89.075 98.7946 89.345C98.4346 89.605 98.2046 90.005 98.1046 90.545H101.81C101.78 90.055 101.6 89.665 101.27 89.375C100.94 89.085 100.53 88.94 100.04 88.94ZM105.374 95V87.56H107.084L107.264 88.955C107.534 88.475 107.899 88.095 108.359 87.815C108.829 87.525 109.379 87.38 110.009 87.38V89.405H109.469C109.049 89.405 108.674 89.47 108.344 89.6C108.014 89.73 107.754 89.955 107.564 90.275C107.384 90.595 107.294 91.04 107.294 91.61V95H105.374ZM114.941 95V84.5H118.796C119.636 84.5 120.326 84.645 120.866 84.935C121.416 85.215 121.826 85.6 122.096 86.09C122.366 86.57 122.501 87.105 122.501 87.695C122.501 88.335 122.331 88.92 121.991 89.45C121.661 89.98 121.141 90.365 120.431 90.605L122.606 95H120.401L118.451 90.86H116.861V95H114.941ZM116.861 89.45H118.676C119.316 89.45 119.786 89.295 120.086 88.985C120.386 88.675 120.536 88.265 120.536 87.755C120.536 87.255 120.386 86.855 120.086 86.555C119.796 86.255 119.321 86.105 118.661 86.105H116.861V89.45ZM127.403 95.18C126.653 95.18 125.988 95.02 125.408 94.7C124.828 94.38 124.373 93.93 124.043 93.35C123.713 92.77 123.548 92.1 123.548 91.34C123.548 90.57 123.708 89.885 124.028 89.285C124.358 88.685 124.808 88.22 125.378 87.89C125.958 87.55 126.638 87.38 127.418 87.38C128.148 87.38 128.793 87.54 129.353 87.86C129.913 88.18 130.348 88.62 130.658 89.18C130.978 89.73 131.138 90.345 131.138 91.025C131.138 91.135 131.133 91.25 131.123 91.37C131.123 91.49 131.118 91.615 131.108 91.745H125.453C125.493 92.325 125.693 92.78 126.053 93.11C126.423 93.44 126.868 93.605 127.388 93.605C127.778 93.605 128.103 93.52 128.363 93.35C128.633 93.17 128.833 92.94 128.963 92.66H130.913C130.773 93.13 130.538 93.56 130.208 93.95C129.888 94.33 129.488 94.63 129.008 94.85C128.538 95.07 128.003 95.18 127.403 95.18ZM127.418 88.94C126.948 88.94 126.533 89.075 126.173 89.345C125.813 89.605 125.583 90.005 125.483 90.545H129.188C129.158 90.055 128.978 89.665 128.648 89.375C128.318 89.085 127.908 88.94 127.418 88.94ZM135.827 95.18C135.167 95.18 134.587 95.075 134.087 94.865C133.587 94.645 133.187 94.345 132.887 93.965C132.587 93.585 132.407 93.145 132.347 92.645H134.282C134.342 92.935 134.502 93.185 134.762 93.395C135.032 93.595 135.377 93.695 135.797 93.695C136.217 93.695 136.522 93.61 136.712 93.44C136.912 93.27 137.012 93.075 137.012 92.855C137.012 92.535 136.872 92.32 136.592 92.21C136.312 92.09 135.922 91.975 135.422 91.865C135.102 91.795 134.777 91.71 134.447 91.61C134.117 91.51 133.812 91.385 133.532 91.235C133.262 91.075 133.042 90.875 132.872 90.635C132.702 90.385 132.617 90.08 132.617 89.72C132.617 89.06 132.877 88.505 133.397 88.055C133.927 87.605 134.667 87.38 135.617 87.38C136.497 87.38 137.197 87.585 137.717 87.995C138.247 88.405 138.562 88.97 138.662 89.69H136.847C136.737 89.14 136.322 88.865 135.602 88.865C135.242 88.865 134.962 88.935 134.762 89.075C134.572 89.215 134.477 89.39 134.477 89.6C134.477 89.82 134.622 89.995 134.912 90.125C135.202 90.255 135.587 90.375 136.067 90.485C136.587 90.605 137.062 90.74 137.492 90.89C137.932 91.03 138.282 91.245 138.542 91.535C138.802 91.815 138.932 92.22 138.932 92.75C138.942 93.21 138.822 93.625 138.572 93.995C138.322 94.365 137.962 94.655 137.492 94.865C137.022 95.075 136.467 95.18 135.827 95.18ZM143.423 95.18C142.493 95.18 141.773 94.89 141.263 94.31C140.763 93.73 140.513 92.88 140.513 91.76V87.56H142.418V91.58C142.418 92.22 142.548 92.71 142.808 93.05C143.068 93.39 143.478 93.56 144.038 93.56C144.568 93.56 145.003 93.37 145.343 92.99C145.693 92.61 145.868 92.08 145.868 91.4V87.56H147.788V95H146.093L145.943 93.74C145.713 94.18 145.378 94.53 144.938 94.79C144.508 95.05 144.003 95.18 143.423 95.18ZM149.759 95V84.2H151.679V95H149.759ZM156.956 95C156.176 95 155.551 94.81 155.081 94.43C154.611 94.05 154.376 93.375 154.376 92.405V89.165H153.101V87.56H154.376L154.601 85.565H156.296V87.56H158.306V89.165H156.296V92.42C156.296 92.78 156.371 93.03 156.521 93.17C156.681 93.3 156.951 93.365 157.331 93.365H158.261V95H156.956ZM163.029 95.18C162.369 95.18 161.789 95.075 161.289 94.865C160.789 94.645 160.389 94.345 160.089 93.965C159.789 93.585 159.609 93.145 159.549 92.645H161.484C161.544 92.935 161.704 93.185 161.964 93.395C162.234 93.595 162.579 93.695 162.999 93.695C163.419 93.695 163.724 93.61 163.914 93.44C164.114 93.27 164.214 93.075 164.214 92.855C164.214 92.535 164.074 92.32 163.794 92.21C163.514 92.09 163.124 91.975 162.624 91.865C162.304 91.795 161.979 91.71 161.649 91.61C161.319 91.51 161.014 91.385 160.734 91.235C160.464 91.075 160.244 90.875 160.074 90.635C159.904 90.385 159.819 90.08 159.819 89.72C159.819 89.06 160.079 88.505 160.599 88.055C161.129 87.605 161.869 87.38 162.819 87.38C163.699 87.38 164.399 87.585 164.919 87.995C165.449 88.405 165.764 88.97 165.864 89.69H164.049C163.939 89.14 163.524 88.865 162.804 88.865C162.444 88.865 162.164 88.935 161.964 89.075C161.774 89.215 161.679 89.39 161.679 89.6C161.679 89.82 161.824 89.995 162.114 90.125C162.404 90.255 162.789 90.375 163.269 90.485C163.789 90.605 164.264 90.74 164.694 90.89C165.134 91.03 165.484 91.245 165.744 91.535C166.004 91.815 166.134 92.22 166.134 92.75C166.144 93.21 166.024 93.625 165.774 93.995C165.524 94.365 165.164 94.655 164.694 94.865C164.224 95.075 163.669 95.18 163.029 95.18Z" fill="#051F39"/>
<g opacity="0.15">
<path d="M95.2549 146.235L89.8523 133.6C88.8684 131.287 87.4013 129.976 85.727 129.889C84.07 129.803 82.4647 130.959 81.2392 133.169L77.9597 139.055C77.2693 140.298 76.2854 141.04 75.2152 141.126C74.1278 141.23 73.0403 140.66 72.16 139.538L71.7803 139.055C70.5548 137.519 69.0358 136.776 67.4824 136.932C65.9289 137.087 64.5998 138.157 63.7195 139.901L60.7334 145.855C59.6633 148.013 59.7668 150.516 61.0269 152.553C62.2869 154.589 64.479 155.815 66.8783 155.815H88.903C91.2159 155.815 93.3735 154.658 94.6508 152.725C95.9626 150.792 96.1697 148.358 95.2549 146.235Z" fill="#FF7300"/>
<path d="M69.2794 131.668C72.5015 131.668 75.1135 129.056 75.1135 125.834C75.1135 122.612 72.5015 120 69.2794 120C66.0573 120 63.4453 122.612 63.4453 125.834C63.4453 129.056 66.0573 131.668 69.2794 131.668Z" fill="#FF7300"/>
</g>
<rect x="60" y="174" width="74.7611" height="11" rx="5.5" fill="#EBEFF2"/>
<rect x="60" y="195" width="96" height="5" rx="2.5" fill="#EBEFF2"/>
<rect x="60" y="207" width="49.2743" height="5" rx="2.5" fill="#EBEFF2"/>
<g opacity="0.15">
<path d="M211.255 146.235L205.852 133.6C204.868 131.287 203.401 129.976 201.727 129.889C200.07 129.803 198.465 130.959 197.239 133.169L193.96 139.055C193.269 140.298 192.285 141.04 191.215 141.126C190.128 141.23 189.04 140.66 188.16 139.538L187.78 139.055C186.555 137.519 185.036 136.776 183.482 136.932C181.929 137.087 180.6 138.157 179.72 139.901L176.733 145.855C175.663 148.013 175.767 150.516 177.027 152.553C178.287 154.589 180.479 155.815 182.878 155.815H204.903C207.216 155.815 209.373 154.658 210.651 152.725C211.963 150.792 212.17 148.358 211.255 146.235Z" fill="#219FFF"/>
<path d="M185.279 131.668C188.502 131.668 191.113 129.056 191.113 125.834C191.113 122.612 188.502 120 185.279 120C182.057 120 179.445 122.612 179.445 125.834C179.445 129.056 182.057 131.668 185.279 131.668Z" fill="#219FFF"/>
</g>
<rect x="176" y="174" width="74.7611" height="11" rx="5.5" fill="#EBEFF2"/>
<rect x="176" y="195" width="96" height="5" rx="2.5" fill="#EBEFF2"/>
<rect x="176" y="207" width="49.2743" height="5" rx="2.5" fill="#EBEFF2"/>
<g opacity="0.15">
<path d="M327.255 146.235L321.852 133.6C320.868 131.287 319.401 129.976 317.727 129.889C316.07 129.803 314.465 130.959 313.239 133.169L309.96 139.055C309.269 140.298 308.285 141.04 307.215 141.126C306.128 141.23 305.04 140.66 304.16 139.538L303.78 139.055C302.555 137.519 301.036 136.776 299.482 136.932C297.929 137.087 296.6 138.157 295.72 139.901L292.733 145.855C291.663 148.013 291.767 150.516 293.027 152.553C294.287 154.589 296.479 155.815 298.878 155.815H320.903C323.216 155.815 325.373 154.658 326.651 152.725C327.963 150.792 328.17 148.358 327.255 146.235Z" fill="#FF4E3E"/>
<path d="M301.279 131.668C304.502 131.668 307.113 129.056 307.113 125.834C307.113 122.612 304.502 120 301.279 120C298.057 120 295.445 122.612 295.445 125.834C295.445 129.056 298.057 131.668 301.279 131.668Z" fill="#FF4E3E"/>
</g>
<rect x="292" y="174" width="67.7522" height="11" rx="5.5" fill="#EBEFF2"/>
<rect x="292" y="195" width="87" height="5" rx="2.5" fill="#EBEFF2"/>
<rect x="292" y="207" width="44.6549" height="5" rx="2.5" fill="#EBEFF2"/>
<rect x="61" y="232" width="120" height="10" rx="5" fill="#F2F5F6"/>
<rect x="61" y="250" width="177" height="5" rx="2.5" fill="#F2F5F6"/>
<rect x="61" y="263" width="134" height="5" rx="2.5" fill="#F2F5F6"/>
<circle cx="219" cy="174" r="67" fill="white"/>
<g filter="url(#filter1_d_14915_15387)">
<circle cx="219" cy="174" r="57" fill="white" fill-opacity="0.8" shape-rendering="crispEdges"/>
</g>
<path d="M216.845 173.587C216.765 173.587 216.687 173.571 216.614 173.539C216.541 173.507 216.475 173.46 216.421 173.402L204.999 161.046C204.923 160.964 204.872 160.861 204.854 160.75C204.835 160.64 204.849 160.526 204.894 160.423C204.939 160.32 205.013 160.233 205.107 160.172C205.201 160.11 205.31 160.077 205.423 160.077H210.921C211.003 160.077 211.085 160.095 211.16 160.129C211.235 160.164 211.302 160.214 211.356 160.276L215.174 164.668C215.586 163.786 216.385 162.317 217.786 160.528C219.858 157.883 223.712 153.993 230.305 150.481C230.433 150.413 230.581 150.395 230.721 150.431C230.86 150.468 230.982 150.555 231.06 150.676C231.139 150.797 231.169 150.943 231.145 151.086C231.121 151.228 231.045 151.356 230.931 151.445C230.906 151.465 228.364 153.467 225.438 157.133C222.745 160.508 219.166 166.026 217.405 173.149C217.374 173.274 217.302 173.385 217.2 173.465C217.099 173.544 216.974 173.587 216.845 173.587L216.845 173.587Z" fill="#17BD8D"/>
<path d="M183.905 185.785C184.295 185.785 184.66 185.86 185 186.01C185.34 186.15 185.63 186.345 185.87 186.595C186.12 186.845 186.315 187.14 186.455 187.48C186.605 187.82 186.68 188.18 186.68 188.56V189.01C186.68 189.39 186.605 189.75 186.455 190.09C186.315 190.42 186.12 190.715 185.87 190.975C185.63 191.225 185.34 191.42 185 191.56C184.66 191.7 184.295 191.77 183.905 191.77H181.325V196H179.525V185.785H183.905ZM181.325 187.57V189.985H183.605C184.035 189.985 184.35 189.88 184.55 189.67C184.75 189.46 184.85 189.165 184.85 188.785C184.85 188.425 184.75 188.135 184.55 187.915C184.35 187.685 184.035 187.57 183.605 187.57H181.325ZM189.65 189.925C189.79 189.695 189.975 189.495 190.205 189.325C190.445 189.145 190.705 188.995 190.985 188.875C191.275 188.755 191.58 188.665 191.9 188.605C192.22 188.545 192.54 188.515 192.86 188.515H193.055V190.375H192.86C192.5 190.375 192.13 190.45 191.75 190.6C191.37 190.74 191.02 190.93 190.7 191.17C190.39 191.4 190.135 191.66 189.935 191.95C189.745 192.24 189.65 192.53 189.65 192.82V196H187.79V188.305H189.65V189.925ZM197.372 188.365C197.812 188.365 198.202 188.435 198.542 188.575C198.892 188.705 199.187 188.89 199.427 189.13C199.677 189.37 199.867 189.66 199.997 190C200.127 190.34 200.192 190.725 200.192 191.155V193.21C200.192 193.63 200.127 194.015 199.997 194.365C199.867 194.705 199.677 195 199.427 195.25C199.187 195.49 198.892 195.675 198.542 195.805C198.202 195.935 197.812 196 197.372 196H196.757C196.327 196 195.937 195.935 195.587 195.805C195.237 195.675 194.937 195.49 194.687 195.25C194.447 195 194.262 194.705 194.132 194.365C194.012 194.015 193.952 193.63 193.952 193.21V191.155C193.952 190.725 194.012 190.34 194.132 190C194.262 189.66 194.447 189.37 194.687 189.13C194.937 188.89 195.237 188.705 195.587 188.575C195.937 188.435 196.327 188.365 196.757 188.365H197.372ZM196.757 190.09C196.447 190.09 196.182 190.195 195.962 190.405C195.752 190.605 195.647 190.87 195.647 191.2V193.15C195.647 193.48 195.752 193.75 195.962 193.96C196.182 194.17 196.447 194.275 196.757 194.275H197.372C197.692 194.275 197.952 194.17 198.152 193.96C198.362 193.75 198.467 193.48 198.467 193.15V191.2C198.467 190.87 198.362 190.605 198.152 190.405C197.952 190.195 197.692 190.09 197.372 190.09H196.757ZM202.99 187.54H201.34V185.785H202.99V187.54ZM199.885 196.99H200.2C200.54 196.99 200.805 196.885 200.995 196.675C201.185 196.475 201.28 196.21 201.28 195.88V188.365H203.02V195.82C203.02 196.24 202.965 196.62 202.855 196.96C202.745 197.31 202.575 197.605 202.345 197.845C202.115 198.085 201.82 198.27 201.46 198.4C201.11 198.54 200.69 198.61 200.2 198.61H199.885V196.99ZM204.177 191.08C204.177 190.71 204.247 190.365 204.387 190.045C204.527 189.715 204.712 189.425 204.942 189.175C205.172 188.925 205.437 188.73 205.737 188.59C206.037 188.44 206.337 188.365 206.637 188.365H208.347C208.737 188.365 209.082 188.45 209.382 188.62C209.692 188.78 209.947 188.99 210.147 189.25C210.357 189.5 210.517 189.785 210.627 190.105C210.747 190.415 210.807 190.72 210.807 191.02V192.955H205.947V193.36C205.947 193.72 206.047 193.975 206.247 194.125C206.447 194.275 206.712 194.35 207.042 194.35H210.537V196.03H206.652C206.312 196.03 205.992 195.965 205.692 195.835C205.392 195.695 205.127 195.51 204.897 195.28C204.677 195.05 204.502 194.775 204.372 194.455C204.242 194.135 204.177 193.785 204.177 193.405V191.08ZM205.962 191.53H209.067V191.455C209.067 191.065 208.967 190.745 208.767 190.495C208.567 190.235 208.297 190.105 207.957 190.105H207.027C206.867 190.105 206.722 190.145 206.592 190.225C206.462 190.295 206.352 190.39 206.262 190.51C206.172 190.63 206.097 190.775 206.037 190.945C205.987 191.105 205.962 191.275 205.962 191.455V191.53ZM215.065 194.275C215.305 194.275 215.51 194.22 215.68 194.11C215.85 193.99 215.96 193.83 216.01 193.63H217.795C217.705 194.35 217.425 194.925 216.955 195.355C216.485 195.785 215.855 196 215.065 196H214.45C214.02 196 213.63 195.935 213.28 195.805C212.93 195.675 212.635 195.49 212.395 195.25C212.155 195 211.965 194.705 211.825 194.365C211.695 194.015 211.63 193.63 211.63 193.21V191.155C211.63 190.725 211.695 190.34 211.825 190C211.965 189.66 212.155 189.37 212.395 189.13C212.635 188.89 212.93 188.705 213.28 188.575C213.63 188.435 214.02 188.365 214.45 188.365H215.065C215.875 188.365 216.515 188.58 216.985 189.01C217.455 189.44 217.725 190.03 217.795 190.78H216.025C215.965 190.56 215.855 190.39 215.695 190.27C215.535 190.15 215.325 190.09 215.065 190.09H214.45C214.13 190.09 213.865 190.195 213.655 190.405C213.455 190.605 213.355 190.87 213.355 191.2V193.15C213.355 193.48 213.455 193.75 213.655 193.96C213.865 194.17 214.13 194.275 214.45 194.275H215.065ZM218.323 188.365H219.733V185.785H221.503V188.365H222.913V190.09H221.503V196H219.733V190.09H218.323V188.365ZM227.812 185.785H232.477C232.807 185.785 233.117 185.855 233.407 185.995C233.707 186.135 233.967 186.33 234.187 186.58C234.407 186.83 234.577 187.12 234.697 187.45C234.827 187.77 234.892 188.115 234.892 188.485V193.3C234.892 193.68 234.827 194.03 234.697 194.35C234.577 194.67 234.407 194.955 234.187 195.205C233.967 195.455 233.707 195.65 233.407 195.79C233.117 195.93 232.807 196 232.477 196H227.812V185.785ZM232.012 194.11C232.162 194.11 232.297 194.08 232.417 194.02C232.537 193.96 232.642 193.88 232.732 193.78C232.832 193.68 232.907 193.565 232.957 193.435C233.007 193.295 233.032 193.145 233.032 192.985V188.785C233.032 188.635 233.007 188.495 232.957 188.365C232.907 188.225 232.832 188.105 232.732 188.005C232.642 187.895 232.537 187.81 232.417 187.75C232.297 187.69 232.162 187.66 232.012 187.66H229.687V194.11H232.012ZM239.457 188.365C239.897 188.365 240.287 188.435 240.627 188.575C240.977 188.705 241.272 188.89 241.512 189.13C241.762 189.37 241.952 189.66 242.082 190C242.212 190.34 242.277 190.725 242.277 191.155V193.21C242.277 193.63 242.212 194.015 242.082 194.365C241.952 194.705 241.762 195 241.512 195.25C241.272 195.49 240.977 195.675 240.627 195.805C240.287 195.935 239.897 196 239.457 196H238.842C238.412 196 238.022 195.935 237.672 195.805C237.322 195.675 237.022 195.49 236.772 195.25C236.532 195 236.347 194.705 236.217 194.365C236.097 194.015 236.037 193.63 236.037 193.21V191.155C236.037 190.725 236.097 190.34 236.217 190C236.347 189.66 236.532 189.37 236.772 189.13C237.022 188.89 237.322 188.705 237.672 188.575C238.022 188.435 238.412 188.365 238.842 188.365H239.457ZM238.842 190.09C238.532 190.09 238.267 190.195 238.047 190.405C237.837 190.605 237.732 190.87 237.732 191.2V193.15C237.732 193.48 237.837 193.75 238.047 193.96C238.267 194.17 238.532 194.275 238.842 194.275H239.457C239.777 194.275 240.037 194.17 240.237 193.96C240.447 193.75 240.552 193.48 240.552 193.15V191.2C240.552 190.87 240.447 190.605 240.237 190.405C240.037 190.195 239.777 190.09 239.457 190.09H238.842ZM246.5 190.075C246.24 190.075 246.025 190.11 245.855 190.18C245.695 190.24 245.57 190.325 245.48 190.435C245.39 190.545 245.325 190.68 245.285 190.84C245.255 190.99 245.24 191.155 245.24 191.335V196H243.485V188.365H245.24V188.56C245.59 188.43 245.965 188.365 246.365 188.365H247.145C247.585 188.365 247.975 188.44 248.315 188.59C248.655 188.74 248.935 188.94 249.155 189.19C249.385 189.43 249.555 189.71 249.665 190.03C249.785 190.34 249.845 190.655 249.845 190.975V196H248.09V191.335C248.09 191.155 248.075 190.99 248.045 190.84C248.015 190.68 247.955 190.545 247.865 190.435C247.785 190.325 247.665 190.24 247.505 190.18C247.345 190.11 247.13 190.075 246.86 190.075H246.5ZM250.803 191.08C250.803 190.71 250.873 190.365 251.013 190.045C251.153 189.715 251.338 189.425 251.568 189.175C251.798 188.925 252.063 188.73 252.363 188.59C252.663 188.44 252.963 188.365 253.263 188.365H254.973C255.363 188.365 255.708 188.45 256.008 188.62C256.318 188.78 256.573 188.99 256.773 189.25C256.983 189.5 257.143 189.785 257.253 190.105C257.373 190.415 257.433 190.72 257.433 191.02V192.955H252.573V193.36C252.573 193.72 252.673 193.975 252.873 194.125C253.073 194.275 253.338 194.35 253.668 194.35H257.163V196.03H253.278C252.938 196.03 252.618 195.965 252.318 195.835C252.018 195.695 251.753 195.51 251.523 195.28C251.303 195.05 251.128 194.775 250.998 194.455C250.868 194.135 250.803 193.785 250.803 193.405V191.08ZM252.588 191.53H255.693V191.455C255.693 191.065 255.593 190.745 255.393 190.495C255.193 190.235 254.923 190.105 254.583 190.105H253.653C253.493 190.105 253.348 190.145 253.218 190.225C253.088 190.295 252.978 190.39 252.888 190.51C252.798 190.63 252.723 190.775 252.663 190.945C252.613 191.105 252.588 191.275 252.588 191.455V191.53Z" fill="#17BD8D"/>
<g filter="url(#filter2_d_14915_15387)">
<rect x="271" y="235" width="145.842" height="85" rx="10.7368" fill="white"/>
</g>
<rect x="281.736" y="265.421" width="124.37" height="7.15789" rx="3.57895" fill="#EBEFF2"/>
<rect x="281.736" y="277.053" width="83.9495" height="3.57895" rx="1.78947" fill="#EBEFF2"/>
<rect x="281.736" y="294.053" width="124.37" height="7.15789" rx="3.57895" fill="#EBEFF2"/>
<rect x="281.736" y="305.685" width="83.9495" height="3.57895" rx="1.78947" fill="#EBEFF2"/>
<circle cx="284.868" cy="248.868" r="3.13158" fill="#D8DEE6"/>
<circle cx="295.604" cy="248.868" r="3.13158" fill="#D8DEE6"/>
<circle cx="306.343" cy="248.868" r="3.13158" fill="#D8DEE6"/>
<g filter="url(#filter3_d_14915_15387)">
<path d="M282 41.0001C282 33.4577 282 29.6864 284.343 27.3433C286.686 25.0001 290.458 25.0001 298 25.0001H399C406.542 25.0001 410.314 25.0001 412.657 27.3433C415 29.6864 415 33.4577 415 41.0001V68.3379C415 75.8804 415 79.6516 412.657 81.9947C410.314 84.3379 406.542 84.3379 399 84.3379H321.813C319.209 84.3379 317.906 84.3379 316.69 84.7372C315.474 85.1365 314.425 85.9086 312.328 87.4527L298 98.0001L297.515 91.2142C297.225 87.1495 293.843 84.0001 289.768 84.0001C285.478 84.0001 282 80.5225 282 76.2326V41.0001Z" fill="white"/>
</g>
<circle cx="312" cy="54" r="19" fill="white" fill-opacity="0.8" stroke="#EBEFF2" stroke-linecap="round"/>
<path opacity="0.15" d="M312.161 52.87C312.061 52.86 311.941 52.86 311.831 52.87C309.451 52.79 307.561 50.84 307.561 48.44C307.561 45.99 309.541 44 312.001 44C314.451 44 316.441 45.99 316.441 48.44C316.431 50.84 314.541 52.79 312.161 52.87Z" fill="#FF7300"/>
<path d="M307.161 56.56C304.741 58.18 304.741 60.82 307.161 62.43C309.911 64.27 314.421 64.27 317.171 62.43C319.591 60.81 319.591 58.17 317.171 56.56C314.431 54.73 309.921 54.73 307.161 56.56Z" stroke="#FF7300" stroke-width="1.5" stroke-linecap="round" stroke-linejoin="round"/>
<rect x="341" y="41" width="65" height="7.15789" rx="3.57895" fill="#EBEFF2"/>
<rect x="341" y="53.1582" width="18" height="4" rx="2" fill="#EBEFF2"/>
<rect x="364" y="53.1582" width="31" height="4" rx="2" fill="#EBEFF2"/>
<rect x="341" y="62.1582" width="59" height="4" rx="2" fill="#EBEFF2"/>
<defs>
<filter id="filter0_d_14915_15387" x="0" y="35" width="432" height="308" filterUnits="userSpaceOnUse" color-interpolation-filters="sRGB">
<feFlood flood-opacity="0" result="BackgroundImageFix"/>
<feColorMatrix in="SourceAlpha" type="matrix" values="0 0 0 0 0 0 0 0 0 0 0 0 0 0 0 0 0 0 127 0" result="hardAlpha"/>
<feOffset dy="15"/>
<feGaussianBlur stdDeviation="20"/>
<feComposite in2="hardAlpha" operator="out"/>
<feColorMatrix type="matrix" values="0 0 0 0 0.117647 0 0 0 0 0.129412 0 0 0 0 0.176471 0 0 0 0.08 0"/>
<feBlend mode="normal" in2="BackgroundImageFix" result="effect1_dropShadow_14915_15387"/>
<feBlend mode="normal" in="SourceGraphic" in2="effect1_dropShadow_14915_15387" result="shape"/>
</filter>
<filter id="filter1_d_14915_15387" x="122" y="92" width="194" height="194" filterUnits="userSpaceOnUse" color-interpolation-filters="sRGB">
<feFlood flood-opacity="0" result="BackgroundImageFix"/>
<feColorMatrix in="SourceAlpha" type="matrix" values="0 0 0 0 0 0 0 0 0 0 0 0 0 0 0 0 0 0 127 0" result="hardAlpha"/>
<feOffset dy="15"/>
<feGaussianBlur stdDeviation="20"/>
<feComposite in2="hardAlpha" operator="out"/>
<feColorMatrix type="matrix" values="0 0 0 0 0.117647 0 0 0 0 0.129412 0 0 0 0 0.176471 0 0 0 0.08 0"/>
<feBlend mode="normal" in2="BackgroundImageFix" result="effect1_dropShadow_14915_15387"/>
<feBlend mode="normal" in="SourceGraphic" in2="effect1_dropShadow_14915_15387" result="shape"/>
</filter>
<filter id="filter2_d_14915_15387" x="235.211" y="212.632" width="217.421" height="156.579" filterUnits="userSpaceOnUse" color-interpolation-filters="sRGB">
<feFlood flood-opacity="0" result="BackgroundImageFix"/>
<feColorMatrix in="SourceAlpha" type="matrix" values="0 0 0 0 0 0 0 0 0 0 0 0 0 0 0 0 0 0 127 0" result="hardAlpha"/>
<feOffset dy="13.4211"/>
<feGaussianBlur stdDeviation="17.8947"/>
<feComposite in2="hardAlpha" operator="out"/>
<feColorMatrix type="matrix" values="0 0 0 0 0.117647 0 0 0 0 0.129412 0 0 0 0 0.176471 0 0 0 0.08 0"/>
<feBlend mode="normal" in2="BackgroundImageFix" result="effect1_dropShadow_14915_15387"/>
<feBlend mode="normal" in="SourceGraphic" in2="effect1_dropShadow_14915_15387" result="shape"/>
</filter>
<filter id="filter3_d_14915_15387" x="242" y="0" width="213" height="153" filterUnits="userSpaceOnUse" color-interpolation-filters="sRGB">
<feFlood flood-opacity="0" result="BackgroundImageFix"/>
<feColorMatrix in="SourceAlpha" type="matrix" values="0 0 0 0 0 0 0 0 0 0 0 0 0 0 0 0 0 0 127 0" result="hardAlpha"/>
<feOffset dy="15"/>
<feGaussianBlur stdDeviation="20"/>
<feComposite in2="hardAlpha" operator="out"/>
<feColorMatrix type="matrix" values="0 0 0 0 0.117647 0 0 0 0 0.129412 0 0 0 0 0.176471 0 0 0 0.08 0"/>
<feBlend mode="normal" in2="BackgroundImageFix" result="effect1_dropShadow_14915_15387"/>
<feBlend mode="normal" in="SourceGraphic" in2="effect1_dropShadow_14915_15387" result="shape"/>
</filter>
<linearGradient id="paint0_linear_14915_15387" x1="66.5" y1="83.5" x2="17" y2="7" gradientUnits="userSpaceOnUse">
<stop stop-color="#EAF4FE"/>
<stop offset="1" stop-color="#EAF4FE" stop-opacity="0"/>
</linearGradient>
<linearGradient id="paint1_linear_14915_15387" x1="25.7419" y1="32.3226" x2="6.58064" y2="2.70968" gradientUnits="userSpaceOnUse">
<stop stop-color="#C4E1FF"/>
<stop offset="1" stop-color="#EAF4FE" stop-opacity="0"/>
</linearGradient>
<linearGradient id="paint2_linear_14915_15387" x1="108.818" y1="59.3182" x2="9" y2="21.6818" gradientUnits="userSpaceOnUse">
<stop stop-color="#FF7300" stop-opacity="0.46"/>
<stop offset="1" stop-color="#FF7300" stop-opacity="0"/>
</linearGradient>
</defs>
</svg>
