<svg width="528" height="331" viewBox="0 0 528 331" fill="none" xmlns="http://www.w3.org/2000/svg">
<circle opacity="0.6" cx="127" cy="248" r="50" fill="url(#paint0_linear_14915_15184)"/>
<circle cx="414" cy="71" r="37" fill="url(#paint1_linear_14915_15184)"/>
<circle cx="453" cy="23" r="17" fill="url(#paint2_linear_14915_15184)"/>
<g filter="url(#filter0_d_14915_15184)">
<rect x="114" y="55" width="315" height="205" rx="16" fill="white"/>
</g>
<path d="M181.605 90.18C180.835 90.18 180.155 90.05 179.565 89.79C178.975 89.52 178.51 89.14 178.17 88.65C177.83 88.15 177.655 87.545 177.645 86.835H179.67C179.69 87.325 179.865 87.74 180.195 88.08C180.535 88.41 181 88.575 181.59 88.575C182.1 88.575 182.505 88.455 182.805 88.215C183.105 87.965 183.255 87.635 183.255 87.225C183.255 86.795 183.12 86.46 182.85 86.22C182.59 85.98 182.24 85.785 181.8 85.635C181.36 85.485 180.89 85.325 180.39 85.155C179.58 84.875 178.96 84.515 178.53 84.075C178.11 83.635 177.9 83.05 177.9 82.32C177.89 81.7 178.035 81.17 178.335 80.73C178.645 80.28 179.065 79.935 179.595 79.695C180.125 79.445 180.735 79.32 181.425 79.32C182.125 79.32 182.74 79.445 183.27 79.695C183.81 79.945 184.23 80.295 184.53 80.745C184.84 81.195 185.005 81.73 185.025 82.35H182.97C182.96 81.98 182.815 81.655 182.535 81.375C182.265 81.085 181.885 80.94 181.395 80.94C180.975 80.93 180.62 81.035 180.33 81.255C180.05 81.465 179.91 81.775 179.91 82.185C179.91 82.535 180.02 82.815 180.24 83.025C180.46 83.225 180.76 83.395 181.14 83.535C181.52 83.675 181.955 83.825 182.445 83.985C182.965 84.165 183.44 84.375 183.87 84.615C184.3 84.855 184.645 85.175 184.905 85.575C185.165 85.965 185.295 86.47 185.295 87.09C185.295 87.64 185.155 88.15 184.875 88.62C184.595 89.09 184.18 89.47 183.63 89.76C183.08 90.04 182.405 90.18 181.605 90.18ZM190.24 90C189.46 90 188.835 89.81 188.365 89.43C187.895 89.05 187.66 88.375 187.66 87.405V84.165H186.385V82.56H187.66L187.885 80.565H189.58V82.56H191.59V84.165H189.58V87.42C189.58 87.78 189.655 88.03 189.805 88.17C189.965 88.3 190.235 88.365 190.615 88.365H191.545V90H190.24ZM193.239 90V82.56H194.949L195.129 83.955C195.399 83.475 195.764 83.095 196.224 82.815C196.694 82.525 197.244 82.38 197.874 82.38V84.405H197.334C196.914 84.405 196.539 84.47 196.209 84.6C195.879 84.73 195.619 84.955 195.429 85.275C195.249 85.595 195.159 86.04 195.159 86.61V90H193.239ZM201.751 90.18C201.111 90.18 200.586 90.08 200.176 89.88C199.766 89.67 199.461 89.395 199.261 89.055C199.061 88.715 198.961 88.34 198.961 87.93C198.961 87.24 199.231 86.68 199.771 86.25C200.311 85.82 201.121 85.605 202.201 85.605H204.091V85.425C204.091 84.915 203.946 84.54 203.656 84.3C203.366 84.06 203.006 83.94 202.576 83.94C202.186 83.94 201.846 84.035 201.556 84.225C201.266 84.405 201.086 84.675 201.016 85.035H199.141C199.191 84.495 199.371 84.025 199.681 83.625C200.001 83.225 200.411 82.92 200.911 82.71C201.411 82.49 201.971 82.38 202.591 82.38C203.651 82.38 204.486 82.645 205.096 83.175C205.706 83.705 206.011 84.455 206.011 85.425V90H204.376L204.196 88.8C203.976 89.2 203.666 89.53 203.266 89.79C202.876 90.05 202.371 90.18 201.751 90.18ZM202.186 88.68C202.736 88.68 203.161 88.5 203.461 88.14C203.771 87.78 203.966 87.335 204.046 86.805H202.411C201.901 86.805 201.536 86.9 201.316 87.09C201.096 87.27 200.986 87.495 200.986 87.765C200.986 88.055 201.096 88.28 201.316 88.44C201.536 88.6 201.826 88.68 202.186 88.68ZM211.056 90C210.276 90 209.651 89.81 209.181 89.43C208.711 89.05 208.476 88.375 208.476 87.405V84.165H207.201V82.56H208.476L208.701 80.565H210.396V82.56H212.406V84.165H210.396V87.42C210.396 87.78 210.471 88.03 210.621 88.17C210.781 88.3 211.051 88.365 211.431 88.365H212.361V90H211.056ZM217.479 90.18C216.729 90.18 216.064 90.02 215.484 89.7C214.904 89.38 214.449 88.93 214.119 88.35C213.789 87.77 213.624 87.1 213.624 86.34C213.624 85.57 213.784 84.885 214.104 84.285C214.434 83.685 214.884 83.22 215.454 82.89C216.034 82.55 216.714 82.38 217.494 82.38C218.224 82.38 218.869 82.54 219.429 82.86C219.989 83.18 220.424 83.62 220.734 84.18C221.054 84.73 221.214 85.345 221.214 86.025C221.214 86.135 221.209 86.25 221.199 86.37C221.199 86.49 221.194 86.615 221.184 86.745H215.529C215.569 87.325 215.769 87.78 216.129 88.11C216.499 88.44 216.944 88.605 217.464 88.605C217.854 88.605 218.179 88.52 218.439 88.35C218.709 88.17 218.909 87.94 219.039 87.66H220.989C220.849 88.13 220.614 88.56 220.284 88.95C219.964 89.33 219.564 89.63 219.084 89.85C218.614 90.07 218.079 90.18 217.479 90.18ZM217.494 83.94C217.024 83.94 216.609 84.075 216.249 84.345C215.889 84.605 215.659 85.005 215.559 85.545H219.264C219.234 85.055 219.054 84.665 218.724 84.375C218.394 84.085 217.984 83.94 217.494 83.94ZM225.817 87.78C225.457 87.78 225.122 87.74 224.812 87.66L224.257 88.215C224.427 88.305 224.657 88.38 224.947 88.44C225.237 88.5 225.707 88.56 226.357 88.62C227.347 88.71 228.067 88.945 228.517 89.325C228.967 89.705 229.192 90.23 229.192 90.9C229.192 91.34 229.072 91.755 228.832 92.145C228.592 92.545 228.222 92.865 227.722 93.105C227.222 93.355 226.582 93.48 225.802 93.48C224.742 93.48 223.887 93.28 223.237 92.88C222.587 92.49 222.262 91.9 222.262 91.11C222.262 90.44 222.587 89.86 223.237 89.37C223.037 89.28 222.862 89.185 222.712 89.085C222.572 88.985 222.447 88.88 222.337 88.77V88.425L223.642 87.045C223.062 86.535 222.772 85.88 222.772 85.08C222.772 84.58 222.892 84.125 223.132 83.715C223.382 83.305 223.732 82.98 224.182 82.74C224.632 82.5 225.177 82.38 225.817 82.38C226.237 82.38 226.627 82.44 226.987 82.56H229.807V83.73L228.532 83.82C228.732 84.2 228.832 84.62 228.832 85.08C228.832 85.58 228.712 86.035 228.472 86.445C228.232 86.855 227.882 87.18 227.422 87.42C226.972 87.66 226.437 87.78 225.817 87.78ZM225.817 86.31C226.207 86.31 226.527 86.205 226.777 85.995C227.037 85.785 227.167 85.485 227.167 85.095C227.167 84.705 227.037 84.405 226.777 84.195C226.527 83.985 226.207 83.88 225.817 83.88C225.407 83.88 225.077 83.985 224.827 84.195C224.577 84.405 224.452 84.705 224.452 85.095C224.452 85.485 224.577 85.785 224.827 85.995C225.077 86.205 225.407 86.31 225.817 86.31ZM224.017 90.915C224.017 91.285 224.187 91.56 224.527 91.74C224.877 91.93 225.302 92.025 225.802 92.025C226.282 92.025 226.672 91.925 226.972 91.725C227.272 91.535 227.422 91.275 227.422 90.945C227.422 90.675 227.322 90.45 227.122 90.27C226.932 90.09 226.547 89.98 225.967 89.94C225.557 89.91 225.177 89.865 224.827 89.805C224.537 89.965 224.327 90.14 224.197 90.33C224.077 90.52 224.017 90.715 224.017 90.915ZM232.137 93.3L233.862 89.505H233.412L230.517 82.56H232.602L234.687 87.795L236.862 82.56H238.902L234.177 93.3H232.137ZM243.777 90V79.5H247.362C248.592 79.5 249.602 79.72 250.392 80.16C251.192 80.59 251.782 81.2 252.162 81.99C252.552 82.77 252.747 83.69 252.747 84.75C252.747 85.81 252.552 86.735 252.162 87.525C251.782 88.305 251.192 88.915 250.392 89.355C249.602 89.785 248.592 90 247.362 90H243.777ZM245.697 88.35H247.272C248.152 88.35 248.847 88.21 249.357 87.93C249.867 87.64 250.232 87.23 250.452 86.7C250.672 86.16 250.782 85.51 250.782 84.75C250.782 84 250.672 83.355 250.452 82.815C250.232 82.275 249.867 81.86 249.357 81.57C248.847 81.28 248.152 81.135 247.272 81.135H245.697V88.35ZM258.011 90.18C257.261 90.18 256.596 90.02 256.016 89.7C255.436 89.38 254.981 88.93 254.651 88.35C254.321 87.77 254.156 87.1 254.156 86.34C254.156 85.57 254.316 84.885 254.636 84.285C254.966 83.685 255.416 83.22 255.986 82.89C256.566 82.55 257.246 82.38 258.026 82.38C258.756 82.38 259.401 82.54 259.961 82.86C260.521 83.18 260.956 83.62 261.266 84.18C261.586 84.73 261.746 85.345 261.746 86.025C261.746 86.135 261.741 86.25 261.731 86.37C261.731 86.49 261.726 86.615 261.716 86.745H256.061C256.101 87.325 256.301 87.78 256.661 88.11C257.031 88.44 257.476 88.605 257.996 88.605C258.386 88.605 258.711 88.52 258.971 88.35C259.241 88.17 259.441 87.94 259.571 87.66H261.521C261.381 88.13 261.146 88.56 260.816 88.95C260.496 89.33 260.096 89.63 259.616 89.85C259.146 90.07 258.611 90.18 258.011 90.18ZM258.026 83.94C257.556 83.94 257.141 84.075 256.781 84.345C256.421 84.605 256.191 85.005 256.091 85.545H259.796C259.766 85.055 259.586 84.665 259.256 84.375C258.926 84.085 258.516 83.94 258.026 83.94ZM265.078 90L262.348 82.56H264.358L266.248 88.185L268.138 82.56H270.148L267.403 90H265.078ZM274.608 90.18C273.858 90.18 273.193 90.02 272.613 89.7C272.033 89.38 271.578 88.93 271.248 88.35C270.918 87.77 270.753 87.1 270.753 86.34C270.753 85.57 270.913 84.885 271.233 84.285C271.563 83.685 272.013 83.22 272.583 82.89C273.163 82.55 273.843 82.38 274.623 82.38C275.353 82.38 275.998 82.54 276.558 82.86C277.118 83.18 277.553 83.62 277.863 84.18C278.183 84.73 278.343 85.345 278.343 86.025C278.343 86.135 278.338 86.25 278.328 86.37C278.328 86.49 278.323 86.615 278.313 86.745H272.658C272.698 87.325 272.898 87.78 273.258 88.11C273.628 88.44 274.073 88.605 274.593 88.605C274.983 88.605 275.308 88.52 275.568 88.35C275.838 88.17 276.038 87.94 276.168 87.66H278.118C277.978 88.13 277.743 88.56 277.413 88.95C277.093 89.33 276.693 89.63 276.213 89.85C275.743 90.07 275.208 90.18 274.608 90.18ZM274.623 83.94C274.153 83.94 273.738 84.075 273.378 84.345C273.018 84.605 272.788 85.005 272.688 85.545H276.393C276.363 85.055 276.183 84.665 275.853 84.375C275.523 84.085 275.113 83.94 274.623 83.94ZM279.957 90V79.2H281.877V90H279.957ZM287.409 90.18C286.689 90.18 286.039 90.015 285.459 89.685C284.889 89.355 284.434 88.9 284.094 88.32C283.764 87.73 283.599 87.05 283.599 86.28C283.599 85.51 283.769 84.835 284.109 84.255C284.449 83.665 284.904 83.205 285.474 82.875C286.054 82.545 286.704 82.38 287.424 82.38C288.134 82.38 288.774 82.545 289.344 82.875C289.924 83.205 290.379 83.665 290.709 84.255C291.049 84.835 291.219 85.51 291.219 86.28C291.219 87.05 291.049 87.73 290.709 88.32C290.379 88.9 289.924 89.355 289.344 89.685C288.764 90.015 288.119 90.18 287.409 90.18ZM287.409 88.515C287.909 88.515 288.344 88.33 288.714 87.96C289.084 87.58 289.269 87.02 289.269 86.28C289.269 85.54 289.084 84.985 288.714 84.615C288.344 84.235 287.914 84.045 287.424 84.045C286.914 84.045 286.474 84.235 286.104 84.615C285.744 84.985 285.564 85.54 285.564 86.28C285.564 87.02 285.744 87.58 286.104 87.96C286.474 88.33 286.909 88.515 287.409 88.515ZM292.936 93.3V82.56H294.646L294.856 83.625C295.096 83.295 295.411 83.005 295.801 82.755C296.201 82.505 296.716 82.38 297.346 82.38C298.046 82.38 298.671 82.55 299.221 82.89C299.771 83.23 300.206 83.695 300.526 84.285C300.846 84.875 301.006 85.545 301.006 86.295C301.006 87.045 300.846 87.715 300.526 88.305C300.206 88.885 299.771 89.345 299.221 89.685C298.671 90.015 298.046 90.18 297.346 90.18C296.786 90.18 296.296 90.075 295.876 89.865C295.456 89.655 295.116 89.36 294.856 88.98V93.3H292.936ZM296.941 88.5C297.551 88.5 298.056 88.295 298.456 87.885C298.856 87.475 299.056 86.945 299.056 86.295C299.056 85.645 298.856 85.11 298.456 84.69C298.056 84.27 297.551 84.06 296.941 84.06C296.321 84.06 295.811 84.27 295.411 84.69C295.021 85.1 294.826 85.63 294.826 86.28C294.826 86.93 295.021 87.465 295.411 87.885C295.811 88.295 296.321 88.5 296.941 88.5ZM302.721 90V82.56H304.416L304.581 83.565C304.821 83.205 305.136 82.92 305.526 82.71C305.926 82.49 306.386 82.38 306.906 82.38C308.056 82.38 308.871 82.825 309.351 83.715C309.621 83.305 309.981 82.98 310.431 82.74C310.891 82.5 311.391 82.38 311.931 82.38C312.901 82.38 313.646 82.67 314.166 83.25C314.686 83.83 314.946 84.68 314.946 85.8V90H313.026V85.98C313.026 85.34 312.901 84.85 312.651 84.51C312.411 84.17 312.036 84 311.526 84C311.006 84 310.586 84.19 310.266 84.57C309.956 84.95 309.801 85.48 309.801 86.16V90H307.881V85.98C307.881 85.34 307.756 84.85 307.506 84.51C307.256 84.17 306.871 84 306.351 84C305.841 84 305.426 84.19 305.106 84.57C304.796 84.95 304.641 85.48 304.641 86.16V90H302.721ZM320.384 90.18C319.634 90.18 318.969 90.02 318.389 89.7C317.809 89.38 317.354 88.93 317.024 88.35C316.694 87.77 316.529 87.1 316.529 86.34C316.529 85.57 316.689 84.885 317.009 84.285C317.339 83.685 317.789 83.22 318.359 82.89C318.939 82.55 319.619 82.38 320.399 82.38C321.129 82.38 321.774 82.54 322.334 82.86C322.894 83.18 323.329 83.62 323.639 84.18C323.959 84.73 324.119 85.345 324.119 86.025C324.119 86.135 324.114 86.25 324.104 86.37C324.104 86.49 324.099 86.615 324.089 86.745H318.434C318.474 87.325 318.674 87.78 319.034 88.11C319.404 88.44 319.849 88.605 320.369 88.605C320.759 88.605 321.084 88.52 321.344 88.35C321.614 88.17 321.814 87.94 321.944 87.66H323.894C323.754 88.13 323.519 88.56 323.189 88.95C322.869 89.33 322.469 89.63 321.989 89.85C321.519 90.07 320.984 90.18 320.384 90.18ZM320.399 83.94C319.929 83.94 319.514 84.075 319.154 84.345C318.794 84.605 318.564 85.005 318.464 85.545H322.169C322.139 85.055 321.959 84.665 321.629 84.375C321.299 84.085 320.889 83.94 320.399 83.94ZM325.734 90V82.56H327.429L327.579 83.82C327.809 83.38 328.139 83.03 328.569 82.77C329.009 82.51 329.524 82.38 330.114 82.38C331.034 82.38 331.749 82.67 332.259 83.25C332.769 83.83 333.024 84.68 333.024 85.8V90H331.104V85.98C331.104 85.34 330.974 84.85 330.714 84.51C330.454 84.17 330.049 84 329.499 84C328.959 84 328.514 84.19 328.164 84.57C327.824 84.95 327.654 85.48 327.654 86.16V90H325.734ZM338.175 90C337.395 90 336.77 89.81 336.3 89.43C335.83 89.05 335.595 88.375 335.595 87.405V84.165H334.32V82.56H335.595L335.82 80.565H337.515V82.56H339.525V84.165H337.515V87.42C337.515 87.78 337.59 88.03 337.74 88.17C337.9 88.3 338.17 88.365 338.55 88.365H339.48V90H338.175Z" fill="#051F39"/>
<path opacity="0.3" d="M393.537 180.589C398.685 183.682 402.711 188.337 405.031 193.877C407.351 199.417 407.843 205.552 406.436 211.39C405.03 217.229 401.797 222.467 397.208 226.341C392.62 230.216 386.915 232.526 380.923 232.935C374.931 233.345 368.965 231.832 363.892 228.617C358.819 225.402 354.904 220.653 352.717 215.06C350.529 209.467 350.182 203.322 351.727 197.518C353.273 191.714 356.629 186.555 361.308 182.79L379 204.779L393.537 180.589Z" fill="#051F39"/>
<path d="M362.03 180.346C366.406 177.054 371.645 175.105 377.109 174.738C382.572 174.371 388.025 175.602 392.801 178.28L379 202.897L362.03 180.346Z" fill="#0061BF"/>
<path d="M407.222 134.222C407.222 139.267 405.87 144.22 403.306 148.565C400.742 152.909 397.06 156.488 392.644 158.927C388.228 161.366 383.239 162.577 378.196 162.433C373.154 162.289 368.241 160.797 363.971 158.11C359.701 155.424 356.229 151.642 353.917 147.158C351.604 142.675 350.536 137.653 350.823 132.616C351.11 127.58 352.742 122.712 355.549 118.52C358.356 114.328 362.235 110.965 366.782 108.781L371.849 119.333C369.188 120.611 366.917 122.579 365.275 125.032C363.632 127.486 362.677 130.335 362.509 133.282C362.341 136.23 362.966 139.169 364.319 141.793C365.673 144.417 367.705 146.631 370.204 148.203C372.703 149.775 375.578 150.649 378.529 150.733C381.481 150.817 384.401 150.108 386.985 148.681C389.57 147.253 391.725 145.159 393.225 142.616C394.726 140.073 395.517 137.175 395.517 134.222H407.222Z" fill="#FF7300"/>
<path d="M366.364 108.986C370.71 106.811 375.544 105.794 380.398 106.035C385.252 106.275 389.961 107.766 394.07 110.361C398.179 112.956 401.549 116.568 403.852 120.848C406.155 125.128 407.314 129.929 407.216 134.788L392.663 134.496C392.71 132.144 392.149 129.818 391.034 127.746C389.918 125.674 388.287 123.925 386.297 122.668C384.308 121.411 382.027 120.69 379.677 120.573C377.326 120.457 374.986 120.949 372.881 122.002L366.364 108.986Z" fill="#051F39"/>
<line x1="134.5" y1="239.5" x2="328.5" y2="239.5" stroke="#EBEFF2" stroke-linecap="round" stroke-dasharray="4 6"/>
<line x1="134.5" y1="219.5" x2="328.5" y2="219.5" stroke="#EBEFF2" stroke-linecap="round" stroke-dasharray="4 6"/>
<line x1="134.5" y1="199.5" x2="328.5" y2="199.5" stroke="#EBEFF2" stroke-linecap="round" stroke-dasharray="4 6"/>
<line x1="134.5" y1="179.5" x2="328.5" y2="179.5" stroke="#EBEFF2" stroke-linecap="round" stroke-dasharray="4 6"/>
<line x1="134.5" y1="159.5" x2="328.5" y2="159.5" stroke="#EBEFF2" stroke-linecap="round" stroke-dasharray="4 6"/>
<line x1="134.5" y1="139.5" x2="328.5" y2="139.5" stroke="#EBEFF2" stroke-linecap="round" stroke-dasharray="4 6"/>
<path d="M134 195C134 191.686 136.686 189 140 189C143.314 189 146 191.686 146 195V240H134V195Z" fill="#EBEFF2"/>
<path d="M170 178C170 174.686 172.686 172 176 172C179.314 172 182 174.686 182 178V240H170V178Z" fill="#EBEFF2"/>
<path d="M206 162C206 158.686 208.686 156 212 156C215.314 156 218 158.686 218 162V240H206V162Z" fill="#EBEFF2"/>
<path d="M242 146C242 142.686 244.686 140 248 140C251.314 140 254 142.686 254 146V240H242V146Z" fill="#EBEFF2"/>
<path d="M278 128C278 124.686 280.686 122 284 122C287.314 122 290 124.686 290 128V240H278V128Z" fill="#EBEFF2"/>
<path d="M314 111C314 107.686 316.686 105 320 105C323.314 105 326 107.686 326 111V240H314V111Z" fill="#EBEFF2"/>
<g filter="url(#filter1_d_14915_15184)">
<rect x="348" y="206" width="147" height="79" rx="13.1512" fill="white"/>
</g>
<rect x="389.92" y="219.972" width="86.3047" height="8.21949" rx="4.10975" fill="#EDF1F4"/>
<rect x="389.92" y="235.589" width="56.7145" height="4.10975" rx="2.05487" fill="#EDF1F4"/>
<circle cx="374.303" cy="229.835" r="9.86339" fill="#EDF1F4"/>
<g clip-path="url(#clip0_14915_15184)">
<path d="M372.468 234.884C371.878 234.884 371.302 234.709 370.811 234.382C370.321 234.054 369.939 233.589 369.713 233.044C369.488 232.499 369.429 231.9 369.544 231.322C369.659 230.744 369.943 230.212 370.36 229.796L372.031 228.123L372.903 228.994L371.232 230.667C371.07 230.83 370.941 231.022 370.853 231.235C370.765 231.447 370.72 231.674 370.72 231.903C370.72 232.133 370.765 232.36 370.853 232.572C370.941 232.784 371.07 232.977 371.232 233.139C371.395 233.302 371.587 233.43 371.8 233.518C372.012 233.606 372.239 233.651 372.468 233.651C372.698 233.651 372.925 233.606 373.137 233.518C373.349 233.43 373.542 233.301 373.704 233.139L375.376 231.467L376.248 232.339L374.576 234.011C374.3 234.288 373.971 234.508 373.609 234.658C373.247 234.807 372.859 234.884 372.468 234.884Z" fill="#889FB7"/>
<path d="M376.804 231.781L375.933 230.91L377.605 229.238C377.93 228.909 378.112 228.466 378.111 228.003C378.11 227.541 377.926 227.098 377.599 226.771C377.273 226.444 376.83 226.26 376.367 226.259C375.905 226.258 375.461 226.44 375.133 226.765L373.46 228.437L372.588 227.565L374.261 225.893C374.821 225.34 375.578 225.031 376.365 225.033C377.153 225.036 377.907 225.35 378.464 225.907C379.02 226.464 379.334 227.218 379.337 228.005C379.339 228.793 379.03 229.549 378.476 230.109L376.804 231.781Z" fill="#889FB7"/>
<path d="M375.375 228.122L372.588 230.909L373.46 231.781L376.247 228.994L375.375 228.122Z" fill="#889FB7"/>
</g>
<rect x="389.92" y="251.698" width="86.3047" height="8.21949" rx="4.10975" fill="#EDF1F4"/>
<rect x="389.92" y="267.315" width="56.7145" height="4.10975" rx="2.05487" fill="#EDF1F4"/>
<circle cx="374.303" cy="261.562" r="9.86339" fill="#EDF1F4"/>
<g clip-path="url(#clip1_14915_15184)">
<path d="M372.411 266.552C371.822 266.552 371.245 266.377 370.755 266.05C370.264 265.722 369.882 265.257 369.657 264.712C369.431 264.167 369.372 263.568 369.487 262.99C369.602 262.412 369.886 261.88 370.303 261.464L371.975 259.791L372.847 260.662L371.175 262.335C371.013 262.498 370.884 262.69 370.797 262.903C370.709 263.115 370.664 263.342 370.664 263.571C370.664 263.801 370.709 264.028 370.797 264.24C370.885 264.452 371.013 264.645 371.176 264.807C371.338 264.97 371.531 265.098 371.743 265.186C371.955 265.274 372.182 265.319 372.412 265.319C372.641 265.319 372.869 265.274 373.081 265.186C373.293 265.098 373.485 264.969 373.648 264.807L375.32 263.135L376.191 264.007L374.519 265.679C374.243 265.956 373.914 266.176 373.552 266.326C373.191 266.475 372.803 266.552 372.411 266.552Z" fill="#889FB7"/>
<path d="M376.748 263.449L375.876 262.578L377.548 260.906C377.873 260.577 378.056 260.133 378.055 259.671C378.054 259.209 377.87 258.766 377.543 258.439C377.216 258.112 376.773 257.928 376.311 257.927C375.848 257.926 375.404 258.108 375.076 258.433L373.403 260.105L372.531 259.233L374.204 257.561C374.765 257.008 375.521 256.699 376.309 256.701C377.096 256.704 377.85 257.018 378.407 257.575C378.964 258.132 379.278 258.886 379.28 259.673C379.282 260.461 378.973 261.217 378.42 261.777L376.748 263.449Z" fill="#889FB7"/>
<path d="M375.318 259.79L372.531 262.577L373.403 263.449L376.19 260.662L375.318 259.79Z" fill="#889FB7"/>
</g>
<g filter="url(#filter2_d_14915_15184)">
<rect x="40" y="25" width="129" height="75" rx="12" fill="white"/>
</g>
<rect x="51" y="59.5" width="86" height="7" rx="3.5" fill="#EDF1F4"/>
<g clip-path="url(#clip2_14915_15184)">
<path d="M157.857 62.6397L154.62 59.2097C154.421 58.9987 154.089 58.9891 153.877 59.1882C153.667 59.3872 153.657 59.7195 153.856 59.9304L156.754 62.9999L153.856 66.0698C153.657 66.2806 153.667 66.6128 153.877 66.8119C153.979 66.9077 154.109 66.9551 154.238 66.9551C154.377 66.9551 154.517 66.8998 154.62 66.7907L157.857 63.3606C158.048 63.1581 158.048 62.842 157.857 62.6397Z" fill="#AAB4BE"/>
<path d="M148.144 66.0696L145.247 62.9999L148.144 59.9302C148.343 59.7194 148.334 59.387 148.123 59.1881C147.912 58.9891 147.58 58.9987 147.381 59.2096L144.143 62.6396C143.952 62.8419 143.952 63.1581 144.143 63.3605L147.381 66.7906C147.484 66.9 147.623 66.9551 147.763 66.9551C147.892 66.9551 148.022 66.9075 148.123 66.8118C148.334 66.6128 148.343 66.2805 148.144 66.0696Z" fill="#AAB4BE"/>
<path d="M151.85 57.4406C151.563 57.3972 151.295 57.5939 151.251 57.8803L149.711 67.9604C149.667 68.247 149.864 68.515 150.151 68.5587C150.178 68.5628 150.204 68.5647 150.231 68.5647C150.486 68.5647 150.71 68.3787 150.749 68.119L152.289 58.0389C152.333 57.7522 152.136 57.4843 151.85 57.4406Z" fill="#AAB4BE"/>
</g>
<g clip-path="url(#clip3_14915_15184)">
<path d="M64.8572 82.6397L61.6197 79.2097C61.4207 78.9987 61.0885 78.9891 60.8775 79.1882C60.6668 79.3872 60.657 79.7195 60.8561 79.9304L63.7536 82.9999L60.8561 86.0698C60.657 86.2806 60.6668 86.6128 60.8775 86.8119C60.979 86.9077 61.1087 86.9551 61.2378 86.9551C61.3773 86.9551 61.5166 86.8998 61.6197 86.7907L64.8572 83.3606C65.0481 83.1581 65.0481 82.842 64.8572 82.6397Z" fill="#AAB4BE"/>
<path d="M55.1444 86.0696L52.2471 82.9999L55.1444 79.9302C55.3434 79.7194 55.3338 79.387 55.1229 79.1881C54.9122 78.9891 54.5797 78.9987 54.3807 79.2096L51.1432 82.6396C50.9523 82.8419 50.9523 83.1581 51.1432 83.3605L54.3809 86.7906C54.4841 86.9 54.6232 86.9551 54.7627 86.9551C54.8919 86.9551 55.0216 86.9075 55.1229 86.8118C55.3339 86.6128 55.3434 86.2805 55.1444 86.0696Z" fill="#AAB4BE"/>
<path d="M58.8495 77.4406C58.563 77.3972 58.2949 77.5939 58.2512 77.8803L56.7112 87.9604C56.6674 88.247 56.8643 88.515 57.1509 88.5587C57.1779 88.5628 57.2045 88.5647 57.2309 88.5647C57.4859 88.5647 57.7095 88.3787 57.7493 88.119L59.2893 78.0389C59.333 77.7522 59.1362 77.4843 58.8495 77.4406Z" fill="#AAB4BE"/>
</g>
<rect x="69" y="80" width="45" height="6" rx="3" fill="#EDF1F4"/>
<rect x="118" y="80" width="15" height="6" rx="3" fill="#EDF1F4"/>
<rect x="137" y="80.5" width="21" height="5" rx="2.5" fill="#EDF1F4"/>
<path d="M51.71 45V38H53.98C54.8 38 55.4733 38.1433 56 38.43C56.5333 38.7167 56.9267 39.1233 57.18 39.65C57.44 40.17 57.57 40.79 57.57 41.51C57.57 42.2233 57.44 42.8433 57.18 43.37C56.9267 43.89 56.5333 44.2933 56 44.58C55.4733 44.86 54.8 45 53.98 45H51.71ZM52.77 44.1H53.94C54.5733 44.1 55.0733 43.9967 55.44 43.79C55.8133 43.5833 56.08 43.2867 56.24 42.9C56.4067 42.5133 56.49 42.05 56.49 41.51C56.49 40.97 56.4067 40.5033 56.24 40.11C56.08 39.7167 55.8133 39.4167 55.44 39.21C55.0733 38.9967 54.5733 38.89 53.94 38.89H52.77V44.1ZM61.0213 45.12C60.5346 45.12 60.1013 45.0133 59.7213 44.8C59.3479 44.58 59.0546 44.2767 58.8413 43.89C58.6279 43.5033 58.5213 43.0533 58.5213 42.54C58.5213 42.02 58.6246 41.5633 58.8313 41.17C59.0446 40.7767 59.3379 40.47 59.7113 40.25C60.0913 40.03 60.5313 39.92 61.0313 39.92C61.5179 39.92 61.9413 40.03 62.3013 40.25C62.6613 40.4633 62.9413 40.75 63.1413 41.11C63.3413 41.47 63.4413 41.8667 63.4413 42.3C63.4413 42.3667 63.4379 42.44 63.4313 42.52C63.4313 42.5933 63.4279 42.6767 63.4213 42.77H59.5613C59.5946 43.25 59.7513 43.6167 60.0313 43.87C60.3179 44.1167 60.6479 44.24 61.0213 44.24C61.3213 44.24 61.5713 44.1733 61.7713 44.04C61.9779 43.9 62.1313 43.7133 62.2313 43.48H63.2913C63.1579 43.9467 62.8913 44.3367 62.4913 44.65C62.0979 44.9633 61.6079 45.12 61.0213 45.12ZM61.0213 40.79C60.6679 40.79 60.3546 40.8967 60.0813 41.11C59.8079 41.3167 59.6413 41.63 59.5813 42.05H62.3813C62.3613 41.6633 62.2246 41.3567 61.9713 41.13C61.7179 40.9033 61.4013 40.79 61.0213 40.79ZM65.7358 45L63.8758 40.04H64.9858L66.3658 43.99L67.7458 40.04H68.8458L66.9958 45H65.7358ZM71.783 45.12C71.2963 45.12 70.863 45.0133 70.483 44.8C70.1096 44.58 69.8163 44.2767 69.603 43.89C69.3896 43.5033 69.283 43.0533 69.283 42.54C69.283 42.02 69.3863 41.5633 69.593 41.17C69.8063 40.7767 70.0996 40.47 70.473 40.25C70.853 40.03 71.293 39.92 71.793 39.92C72.2796 39.92 72.703 40.03 73.063 40.25C73.423 40.4633 73.703 40.75 73.903 41.11C74.103 41.47 74.203 41.8667 74.203 42.3C74.203 42.3667 74.1996 42.44 74.193 42.52C74.193 42.5933 74.1896 42.6767 74.183 42.77H70.323C70.3563 43.25 70.513 43.6167 70.793 43.87C71.0796 44.1167 71.4096 44.24 71.783 44.24C72.083 44.24 72.333 44.1733 72.533 44.04C72.7396 43.9 72.893 43.7133 72.993 43.48H74.053C73.9196 43.9467 73.653 44.3367 73.253 44.65C72.8596 44.9633 72.3696 45.12 71.783 45.12ZM71.783 40.79C71.4296 40.79 71.1163 40.8967 70.843 41.11C70.5696 41.3167 70.403 41.63 70.343 42.05H73.143C73.123 41.6633 72.9863 41.3567 72.733 41.13C72.4796 40.9033 72.163 40.79 71.783 40.79ZM75.3028 45V37.8H76.3628V45H75.3028ZM80.0252 45.12C79.5518 45.12 79.1252 45.0133 78.7452 44.8C78.3718 44.58 78.0752 44.2767 77.8552 43.89C77.6352 43.4967 77.5252 43.04 77.5252 42.52C77.5252 42 77.6352 41.5467 77.8552 41.16C78.0818 40.7667 78.3852 40.4633 78.7652 40.25C79.1452 40.03 79.5685 39.92 80.0352 39.92C80.5085 39.92 80.9318 40.03 81.3052 40.25C81.6852 40.4633 81.9852 40.7667 82.2052 41.16C82.4318 41.5467 82.5452 42 82.5452 42.52C82.5452 43.04 82.4318 43.4967 82.2052 43.89C81.9852 44.2767 81.6852 44.58 81.3052 44.8C80.9252 45.0133 80.4985 45.12 80.0252 45.12ZM80.0252 44.21C80.2785 44.21 80.5118 44.1467 80.7252 44.02C80.9452 43.8933 81.1218 43.7067 81.2552 43.46C81.3885 43.2067 81.4552 42.8933 81.4552 42.52C81.4552 42.1467 81.3885 41.8367 81.2552 41.59C81.1285 41.3367 80.9552 41.1467 80.7352 41.02C80.5218 40.8933 80.2885 40.83 80.0352 40.83C79.7818 40.83 79.5452 40.8933 79.3252 41.02C79.1118 41.1467 78.9385 41.3367 78.8052 41.59C78.6718 41.8367 78.6052 42.1467 78.6052 42.52C78.6052 42.8933 78.6718 43.2067 78.8052 43.46C78.9385 43.7067 79.1118 43.8933 79.3252 44.02C79.5385 44.1467 79.7718 44.21 80.0252 44.21ZM83.6915 47.2V40.04H84.6415L84.7515 40.81C84.9115 40.5767 85.1315 40.37 85.4115 40.19C85.6915 40.01 86.0515 39.92 86.4915 39.92C86.9715 39.92 87.3948 40.0333 87.7615 40.26C88.1282 40.4867 88.4148 40.7967 88.6215 41.19C88.8348 41.5833 88.9415 42.03 88.9415 42.53C88.9415 43.03 88.8348 43.4767 88.6215 43.87C88.4148 44.2567 88.1282 44.5633 87.7615 44.79C87.3948 45.01 86.9682 45.12 86.4815 45.12C86.0948 45.12 85.7515 45.0433 85.4515 44.89C85.1582 44.7367 84.9248 44.52 84.7515 44.24V47.2H83.6915ZM86.3015 44.2C86.7548 44.2 87.1282 44.0467 87.4215 43.74C87.7148 43.4267 87.8615 43.02 87.8615 42.52C87.8615 42.1933 87.7948 41.9033 87.6615 41.65C87.5282 41.3967 87.3448 41.2 87.1115 41.06C86.8782 40.9133 86.6082 40.84 86.3015 40.84C85.8482 40.84 85.4748 40.9967 85.1815 41.31C84.8948 41.6233 84.7515 42.0267 84.7515 42.52C84.7515 43.02 84.8948 43.4267 85.1815 43.74C85.4748 44.0467 85.8482 44.2 86.3015 44.2ZM90.688 39.1C90.488 39.1 90.3213 39.04 90.188 38.92C90.0613 38.7933 89.998 38.6367 89.998 38.45C89.998 38.2633 90.0613 38.11 90.188 37.99C90.3213 37.8633 90.488 37.8 90.688 37.8C90.888 37.8 91.0513 37.8633 91.178 37.99C91.3113 38.11 91.378 38.2633 91.378 38.45C91.378 38.6367 91.3113 38.7933 91.178 38.92C91.0513 39.04 90.888 39.1 90.688 39.1ZM90.158 45V40.04H91.218V45H90.158ZM92.6173 45V40.04H93.5573L93.6373 40.91C93.7906 40.6033 94.0139 40.3633 94.3073 40.19C94.6073 40.01 94.9506 39.92 95.3373 39.92C95.9373 39.92 96.4073 40.1067 96.7473 40.48C97.0939 40.8533 97.2673 41.41 97.2673 42.15V45H96.2173V42.26C96.2173 41.3 95.8239 40.82 95.0373 40.82C94.6439 40.82 94.3173 40.96 94.0573 41.24C93.8039 41.52 93.6773 41.92 93.6773 42.44V45H92.6173ZM100.546 43.48C100.286 43.48 100.046 43.45 99.8257 43.39L99.3957 43.81C99.469 43.8567 99.559 43.8967 99.6657 43.93C99.7724 43.9633 99.9224 43.9933 100.116 44.02C100.309 44.0467 100.572 44.0733 100.906 44.1C101.566 44.16 102.042 44.32 102.336 44.58C102.629 44.8333 102.776 45.1733 102.776 45.6C102.776 45.8933 102.696 46.17 102.536 46.43C102.382 46.6967 102.139 46.91 101.806 47.07C101.479 47.2367 101.059 47.32 100.546 47.32C99.8524 47.32 99.289 47.1867 98.8557 46.92C98.429 46.66 98.2157 46.2633 98.2157 45.73C98.2157 45.5233 98.269 45.3167 98.3757 45.11C98.489 44.91 98.6657 44.72 98.9057 44.54C98.7657 44.48 98.6424 44.4167 98.5357 44.35C98.4357 44.2767 98.3457 44.2033 98.2657 44.13V43.89L99.1257 43.01C98.739 42.6767 98.5457 42.24 98.5457 41.7C98.5457 41.3733 98.6224 41.0767 98.7757 40.81C98.9357 40.5367 99.1657 40.32 99.4657 40.16C99.7657 40 100.126 39.92 100.546 39.92C100.826 39.92 101.086 39.96 101.326 40.04H103.176V40.74L102.296 40.79C102.456 41.0633 102.536 41.3667 102.536 41.7C102.536 42.0333 102.456 42.3333 102.296 42.6C102.142 42.8667 101.916 43.08 101.616 43.24C101.322 43.4 100.966 43.48 100.546 43.48ZM100.546 42.65C100.852 42.65 101.099 42.57 101.286 42.41C101.479 42.2433 101.576 42.01 101.576 41.71C101.576 41.4033 101.479 41.17 101.286 41.01C101.099 40.85 100.852 40.77 100.546 40.77C100.232 40.77 99.979 40.85 99.7857 41.01C99.599 41.17 99.5057 41.4033 99.5057 41.71C99.5057 42.01 99.599 42.2433 99.7857 42.41C99.979 42.57 100.232 42.65 100.546 42.65ZM99.2157 45.63C99.2157 45.9167 99.3424 46.13 99.5957 46.27C99.849 46.4167 100.166 46.49 100.546 46.49C100.912 46.49 101.209 46.41 101.436 46.25C101.662 46.0967 101.776 45.89 101.776 45.63C101.776 45.4367 101.699 45.27 101.546 45.13C101.392 44.9967 101.102 44.9133 100.676 44.88C100.356 44.86 100.072 44.83 99.8257 44.79C99.5924 44.9167 99.4324 45.0533 99.3457 45.2C99.259 45.3467 99.2157 45.49 99.2157 45.63Z" fill="#495B6D"/>
<defs>
<filter id="filter0_d_14915_15184" x="74" y="30" width="395" height="285" filterUnits="userSpaceOnUse" color-interpolation-filters="sRGB">
<feFlood flood-opacity="0" result="BackgroundImageFix"/>
<feColorMatrix in="SourceAlpha" type="matrix" values="0 0 0 0 0 0 0 0 0 0 0 0 0 0 0 0 0 0 127 0" result="hardAlpha"/>
<feOffset dy="15"/>
<feGaussianBlur stdDeviation="20"/>
<feComposite in2="hardAlpha" operator="out"/>
<feColorMatrix type="matrix" values="0 0 0 0 0.117647 0 0 0 0 0.129412 0 0 0 0 0.176471 0 0 0 0.08 0"/>
<feBlend mode="normal" in2="BackgroundImageFix" result="effect1_dropShadow_14915_15184"/>
<feBlend mode="normal" in="SourceGraphic" in2="effect1_dropShadow_14915_15184" result="shape"/>
</filter>
<filter id="filter1_d_14915_15184" x="315.122" y="185.451" width="212.756" height="144.756" filterUnits="userSpaceOnUse" color-interpolation-filters="sRGB">
<feFlood flood-opacity="0" result="BackgroundImageFix"/>
<feColorMatrix in="SourceAlpha" type="matrix" values="0 0 0 0 0 0 0 0 0 0 0 0 0 0 0 0 0 0 127 0" result="hardAlpha"/>
<feOffset dy="12.3292"/>
<feGaussianBlur stdDeviation="16.439"/>
<feComposite in2="hardAlpha" operator="out"/>
<feColorMatrix type="matrix" values="0 0 0 0 0.117647 0 0 0 0 0.129412 0 0 0 0 0.176471 0 0 0 0.08 0"/>
<feBlend mode="normal" in2="BackgroundImageFix" result="effect1_dropShadow_14915_15184"/>
<feBlend mode="normal" in="SourceGraphic" in2="effect1_dropShadow_14915_15184" result="shape"/>
</filter>
<filter id="filter2_d_14915_15184" x="0" y="0" width="209" height="155" filterUnits="userSpaceOnUse" color-interpolation-filters="sRGB">
<feFlood flood-opacity="0" result="BackgroundImageFix"/>
<feColorMatrix in="SourceAlpha" type="matrix" values="0 0 0 0 0 0 0 0 0 0 0 0 0 0 0 0 0 0 127 0" result="hardAlpha"/>
<feOffset dy="15"/>
<feGaussianBlur stdDeviation="20"/>
<feComposite in2="hardAlpha" operator="out"/>
<feColorMatrix type="matrix" values="0 0 0 0 0.117647 0 0 0 0 0.129412 0 0 0 0 0.176471 0 0 0 0.08 0"/>
<feBlend mode="normal" in2="BackgroundImageFix" result="effect1_dropShadow_14915_15184"/>
<feBlend mode="normal" in="SourceGraphic" in2="effect1_dropShadow_14915_15184" result="shape"/>
</filter>
<linearGradient id="paint0_linear_14915_15184" x1="127" y1="198" x2="127" y2="298" gradientUnits="userSpaceOnUse">
<stop stop-color="#00BAEB" stop-opacity="0.12"/>
<stop offset="1" stop-color="#00BAEB" stop-opacity="0"/>
</linearGradient>
<linearGradient id="paint1_linear_14915_15184" x1="427.214" y1="22.3714" x2="402.371" y2="103.243" gradientUnits="userSpaceOnUse">
<stop stop-color="#E9F6FF"/>
<stop offset="1" stop-color="#E9F6FF" stop-opacity="0"/>
</linearGradient>
<linearGradient id="paint2_linear_14915_15184" x1="459.071" y1="0.657144" x2="447.657" y2="37.8143" gradientUnits="userSpaceOnUse">
<stop stop-color="#E9F6FF"/>
<stop offset="1" stop-color="#E9F6FF" stop-opacity="0"/>
</linearGradient>
<clipPath id="clip0_14915_15184">
<rect width="9.86339" height="9.86339" fill="white" transform="translate(369.486 225.02)"/>
</clipPath>
<clipPath id="clip1_14915_15184">
<rect width="9.86339" height="9.86339" fill="white" transform="translate(369.43 256.688)"/>
</clipPath>
<clipPath id="clip2_14915_15184">
<rect width="14" height="14" fill="white" transform="translate(144 56)"/>
</clipPath>
<clipPath id="clip3_14915_15184">
<rect width="14" height="14" fill="white" transform="translate(51 76)"/>
</clipPath>
</defs>
</svg>
