<svg width="474" height="356" viewBox="0 0 474 356" fill="none" xmlns="http://www.w3.org/2000/svg">
<ellipse opacity="0.4" cx="57.3037" cy="54.1806" rx="57.3037" ry="54.1806" transform="matrix(-0.815727 -0.578437 -0.578437 0.815727 338.168 258.293)" fill="url(#paint0_linear_14915_15322)"/>
<circle opacity="0.7" cx="53.5" cy="42.5" r="42.5" fill="url(#paint1_linear_14915_15322)"/>
<circle cx="30" cy="30" r="30" transform="matrix(-1 0 0 1 416 6)" fill="url(#paint2_linear_14915_15322)"/>
<circle opacity="0.5" cx="19" cy="111" r="12" fill="#EAF4FE"/>
<g filter="url(#filter0_d_14915_15322)">
<rect x="40" y="26" width="357" height="232" rx="16" fill="white"/>
</g>
<path d="M63.94 61.18C62.89 61.18 61.97 60.95 61.18 60.49C60.4 60.03 59.785 59.395 59.335 58.585C58.895 57.765 58.675 56.82 58.675 55.75C58.675 54.68 58.895 53.74 59.335 52.93C59.785 52.11 60.4 51.47 61.18 51.01C61.97 50.55 62.89 50.32 63.94 50.32C64.98 50.32 65.895 50.55 66.685 51.01C67.475 51.47 68.09 52.11 68.53 52.93C68.97 53.74 69.19 54.68 69.19 55.75C69.19 56.82 68.97 57.765 68.53 58.585C68.09 59.395 67.475 60.03 66.685 60.49C65.895 60.95 64.98 61.18 63.94 61.18ZM63.94 59.455C64.94 59.455 65.735 59.125 66.325 58.465C66.925 57.805 67.225 56.9 67.225 55.75C67.225 54.6 66.925 53.695 66.325 53.035C65.735 52.375 64.94 52.045 63.94 52.045C62.94 52.045 62.14 52.375 61.54 53.035C60.94 53.695 60.64 54.6 60.64 55.75C60.64 56.9 60.94 57.805 61.54 58.465C62.14 59.125 62.94 59.455 63.94 59.455ZM73.6302 61.18C72.7002 61.18 71.9802 60.89 71.4702 60.31C70.9702 59.73 70.7202 58.88 70.7202 57.76V53.56H72.6252V57.58C72.6252 58.22 72.7552 58.71 73.0152 59.05C73.2752 59.39 73.6852 59.56 74.2452 59.56C74.7752 59.56 75.2102 59.37 75.5502 58.99C75.9002 58.61 76.0752 58.08 76.0752 57.4V53.56H77.9952V61H76.3002L76.1502 59.74C75.9202 60.18 75.5852 60.53 75.1452 60.79C74.7152 61.05 74.2102 61.18 73.6302 61.18ZM83.2812 61C82.5012 61 81.8762 60.81 81.4062 60.43C80.9362 60.05 80.7012 59.375 80.7012 58.405V55.165H79.4262V53.56H80.7012L80.9262 51.565H82.6212V53.56H84.6312V55.165H82.6212V58.42C82.6212 58.78 82.6962 59.03 82.8462 59.17C83.0062 59.3 83.2762 59.365 83.6562 59.365H84.5862V61H83.2812ZM86.2797 61V53.56H87.9897L88.1697 54.955C88.4397 54.475 88.8047 54.095 89.2647 53.815C89.7347 53.525 90.2847 53.38 90.9147 53.38V55.405H90.3747C89.9547 55.405 89.5797 55.47 89.2497 55.6C88.9197 55.73 88.6597 55.955 88.4697 56.275C88.2897 56.595 88.1997 57.04 88.1997 57.61V61H86.2797ZM95.7101 61.18C94.9601 61.18 94.2951 61.02 93.7151 60.7C93.1351 60.38 92.6801 59.93 92.3501 59.35C92.0201 58.77 91.8551 58.1 91.8551 57.34C91.8551 56.57 92.0151 55.885 92.3351 55.285C92.6651 54.685 93.1151 54.22 93.6851 53.89C94.2651 53.55 94.9451 53.38 95.7251 53.38C96.4551 53.38 97.1001 53.54 97.6601 53.86C98.2201 54.18 98.6551 54.62 98.9651 55.18C99.2851 55.73 99.4451 56.345 99.4451 57.025C99.4451 57.135 99.4401 57.25 99.4301 57.37C99.4301 57.49 99.4251 57.615 99.4151 57.745H93.7601C93.8001 58.325 94.0001 58.78 94.3601 59.11C94.7301 59.44 95.1751 59.605 95.6951 59.605C96.0851 59.605 96.4101 59.52 96.6701 59.35C96.9401 59.17 97.1401 58.94 97.2701 58.66H99.2201C99.0801 59.13 98.8451 59.56 98.5151 59.95C98.1951 60.33 97.7951 60.63 97.3151 60.85C96.8451 61.07 96.3101 61.18 95.7101 61.18ZM95.7251 54.94C95.2551 54.94 94.8401 55.075 94.4801 55.345C94.1201 55.605 93.8901 56.005 93.7901 56.545H97.4951C97.4651 56.055 97.2851 55.665 96.9551 55.375C96.6251 55.085 96.2151 54.94 95.7251 54.94ZM103.625 61.18C102.985 61.18 102.46 61.08 102.05 60.88C101.64 60.67 101.335 60.395 101.135 60.055C100.935 59.715 100.835 59.34 100.835 58.93C100.835 58.24 101.105 57.68 101.645 57.25C102.185 56.82 102.995 56.605 104.075 56.605H105.965V56.425C105.965 55.915 105.82 55.54 105.53 55.3C105.24 55.06 104.88 54.94 104.45 54.94C104.06 54.94 103.72 55.035 103.43 55.225C103.14 55.405 102.96 55.675 102.89 56.035H101.015C101.065 55.495 101.245 55.025 101.555 54.625C101.875 54.225 102.285 53.92 102.785 53.71C103.285 53.49 103.845 53.38 104.465 53.38C105.525 53.38 106.36 53.645 106.97 54.175C107.58 54.705 107.885 55.455 107.885 56.425V61H106.25L106.07 59.8C105.85 60.2 105.54 60.53 105.14 60.79C104.75 61.05 104.245 61.18 103.625 61.18ZM104.06 59.68C104.61 59.68 105.035 59.5 105.335 59.14C105.645 58.78 105.84 58.335 105.92 57.805H104.285C103.775 57.805 103.41 57.9 103.19 58.09C102.97 58.27 102.86 58.495 102.86 58.765C102.86 59.055 102.97 59.28 103.19 59.44C103.41 59.6 103.7 59.68 104.06 59.68ZM113.362 61.18C112.602 61.18 111.932 61.015 111.352 60.685C110.772 60.355 110.312 59.895 109.972 59.305C109.642 58.715 109.477 58.04 109.477 57.28C109.477 56.52 109.642 55.845 109.972 55.255C110.312 54.665 110.772 54.205 111.352 53.875C111.932 53.545 112.602 53.38 113.362 53.38C114.312 53.38 115.112 53.63 115.762 54.13C116.412 54.62 116.827 55.3 117.007 56.17H114.982C114.882 55.81 114.682 55.53 114.382 55.33C114.092 55.12 113.747 55.015 113.347 55.015C112.817 55.015 112.367 55.215 111.997 55.615C111.627 56.015 111.442 56.57 111.442 57.28C111.442 57.99 111.627 58.545 111.997 58.945C112.367 59.345 112.817 59.545 113.347 59.545C113.747 59.545 114.092 59.445 114.382 59.245C114.682 59.045 114.882 58.76 114.982 58.39H117.007C116.827 59.23 116.412 59.905 115.762 60.415C115.112 60.925 114.312 61.18 113.362 61.18ZM118.711 61V50.2H120.631V54.7C120.881 54.29 121.216 53.97 121.636 53.74C122.066 53.5 122.556 53.38 123.106 53.38C124.026 53.38 124.736 53.67 125.236 54.25C125.746 54.83 126.001 55.68 126.001 56.8V61H124.096V56.98C124.096 56.34 123.966 55.85 123.706 55.51C123.456 55.17 123.056 55 122.506 55C121.966 55 121.516 55.19 121.156 55.57C120.806 55.95 120.631 56.48 120.631 57.16V61H118.711ZM135.042 61.18C134.272 61.18 133.592 61.05 133.002 60.79C132.412 60.52 131.947 60.14 131.607 59.65C131.267 59.15 131.092 58.545 131.082 57.835H133.107C133.127 58.325 133.302 58.74 133.632 59.08C133.972 59.41 134.437 59.575 135.027 59.575C135.537 59.575 135.942 59.455 136.242 59.215C136.542 58.965 136.692 58.635 136.692 58.225C136.692 57.795 136.557 57.46 136.287 57.22C136.027 56.98 135.677 56.785 135.237 56.635C134.797 56.485 134.327 56.325 133.827 56.155C133.017 55.875 132.397 55.515 131.967 55.075C131.547 54.635 131.337 54.05 131.337 53.32C131.327 52.7 131.472 52.17 131.772 51.73C132.082 51.28 132.502 50.935 133.032 50.695C133.562 50.445 134.172 50.32 134.862 50.32C135.562 50.32 136.177 50.445 136.707 50.695C137.247 50.945 137.667 51.295 137.967 51.745C138.277 52.195 138.442 52.73 138.462 53.35H136.407C136.397 52.98 136.252 52.655 135.972 52.375C135.702 52.085 135.322 51.94 134.832 51.94C134.412 51.93 134.057 52.035 133.767 52.255C133.487 52.465 133.347 52.775 133.347 53.185C133.347 53.535 133.457 53.815 133.677 54.025C133.897 54.225 134.197 54.395 134.577 54.535C134.957 54.675 135.392 54.825 135.882 54.985C136.402 55.165 136.877 55.375 137.307 55.615C137.737 55.855 138.082 56.175 138.342 56.575C138.602 56.965 138.732 57.47 138.732 58.09C138.732 58.64 138.592 59.15 138.312 59.62C138.032 60.09 137.617 60.47 137.067 60.76C136.517 61.04 135.842 61.18 135.042 61.18ZM143.677 61C142.897 61 142.272 60.81 141.802 60.43C141.332 60.05 141.097 59.375 141.097 58.405V55.165H139.822V53.56H141.097L141.322 51.565H143.017V53.56H145.027V55.165H143.017V58.42C143.017 58.78 143.092 59.03 143.242 59.17C143.402 59.3 143.672 59.365 144.052 59.365H144.982V61H143.677ZM146.675 61V53.56H148.385L148.565 54.955C148.835 54.475 149.2 54.095 149.66 53.815C150.13 53.525 150.68 53.38 151.31 53.38V55.405H150.77C150.35 55.405 149.975 55.47 149.645 55.6C149.315 55.73 149.055 55.955 148.865 56.275C148.685 56.595 148.595 57.04 148.595 57.61V61H146.675ZM155.187 61.18C154.547 61.18 154.022 61.08 153.612 60.88C153.202 60.67 152.897 60.395 152.697 60.055C152.497 59.715 152.397 59.34 152.397 58.93C152.397 58.24 152.667 57.68 153.207 57.25C153.747 56.82 154.557 56.605 155.637 56.605H157.527V56.425C157.527 55.915 157.382 55.54 157.092 55.3C156.802 55.06 156.442 54.94 156.012 54.94C155.622 54.94 155.282 55.035 154.992 55.225C154.702 55.405 154.522 55.675 154.452 56.035H152.577C152.627 55.495 152.807 55.025 153.117 54.625C153.437 54.225 153.847 53.92 154.347 53.71C154.847 53.49 155.407 53.38 156.027 53.38C157.087 53.38 157.922 53.645 158.532 54.175C159.142 54.705 159.447 55.455 159.447 56.425V61H157.812L157.632 59.8C157.412 60.2 157.102 60.53 156.702 60.79C156.312 61.05 155.807 61.18 155.187 61.18ZM155.622 59.68C156.172 59.68 156.597 59.5 156.897 59.14C157.207 58.78 157.402 58.335 157.482 57.805H155.847C155.337 57.805 154.972 57.9 154.752 58.09C154.532 58.27 154.422 58.495 154.422 58.765C154.422 59.055 154.532 59.28 154.752 59.44C154.972 59.6 155.262 59.68 155.622 59.68ZM164.492 61C163.712 61 163.087 60.81 162.617 60.43C162.147 60.05 161.912 59.375 161.912 58.405V55.165H160.637V53.56H161.912L162.137 51.565H163.832V53.56H165.842V55.165H163.832V58.42C163.832 58.78 163.907 59.03 164.057 59.17C164.217 59.3 164.487 59.365 164.867 59.365H165.797V61H164.492ZM170.915 61.18C170.165 61.18 169.5 61.02 168.92 60.7C168.34 60.38 167.885 59.93 167.555 59.35C167.225 58.77 167.06 58.1 167.06 57.34C167.06 56.57 167.22 55.885 167.54 55.285C167.87 54.685 168.32 54.22 168.89 53.89C169.47 53.55 170.15 53.38 170.93 53.38C171.66 53.38 172.305 53.54 172.865 53.86C173.425 54.18 173.86 54.62 174.17 55.18C174.49 55.73 174.65 56.345 174.65 57.025C174.65 57.135 174.645 57.25 174.635 57.37C174.635 57.49 174.63 57.615 174.62 57.745H168.965C169.005 58.325 169.205 58.78 169.565 59.11C169.935 59.44 170.38 59.605 170.9 59.605C171.29 59.605 171.615 59.52 171.875 59.35C172.145 59.17 172.345 58.94 172.475 58.66H174.425C174.285 59.13 174.05 59.56 173.72 59.95C173.4 60.33 173 60.63 172.52 60.85C172.05 61.07 171.515 61.18 170.915 61.18ZM170.93 54.94C170.46 54.94 170.045 55.075 169.685 55.345C169.325 55.605 169.095 56.005 168.995 56.545H172.7C172.67 56.055 172.49 55.665 172.16 55.375C171.83 55.085 171.42 54.94 170.93 54.94ZM179.254 58.78C178.894 58.78 178.559 58.74 178.249 58.66L177.694 59.215C177.864 59.305 178.094 59.38 178.384 59.44C178.674 59.5 179.144 59.56 179.794 59.62C180.784 59.71 181.504 59.945 181.954 60.325C182.404 60.705 182.629 61.23 182.629 61.9C182.629 62.34 182.509 62.755 182.269 63.145C182.029 63.545 181.659 63.865 181.159 64.105C180.659 64.355 180.019 64.48 179.239 64.48C178.179 64.48 177.324 64.28 176.674 63.88C176.024 63.49 175.699 62.9 175.699 62.11C175.699 61.44 176.024 60.86 176.674 60.37C176.474 60.28 176.299 60.185 176.149 60.085C176.009 59.985 175.884 59.88 175.774 59.77V59.425L177.079 58.045C176.499 57.535 176.209 56.88 176.209 56.08C176.209 55.58 176.329 55.125 176.569 54.715C176.819 54.305 177.169 53.98 177.619 53.74C178.069 53.5 178.614 53.38 179.254 53.38C179.674 53.38 180.064 53.44 180.424 53.56H183.244V54.73L181.969 54.82C182.169 55.2 182.269 55.62 182.269 56.08C182.269 56.58 182.149 57.035 181.909 57.445C181.669 57.855 181.319 58.18 180.859 58.42C180.409 58.66 179.874 58.78 179.254 58.78ZM179.254 57.31C179.644 57.31 179.964 57.205 180.214 56.995C180.474 56.785 180.604 56.485 180.604 56.095C180.604 55.705 180.474 55.405 180.214 55.195C179.964 54.985 179.644 54.88 179.254 54.88C178.844 54.88 178.514 54.985 178.264 55.195C178.014 55.405 177.889 55.705 177.889 56.095C177.889 56.485 178.014 56.785 178.264 56.995C178.514 57.205 178.844 57.31 179.254 57.31ZM177.454 61.915C177.454 62.285 177.624 62.56 177.964 62.74C178.314 62.93 178.739 63.025 179.239 63.025C179.719 63.025 180.109 62.925 180.409 62.725C180.709 62.535 180.859 62.275 180.859 61.945C180.859 61.675 180.759 61.45 180.559 61.27C180.369 61.09 179.984 60.98 179.404 60.94C178.994 60.91 178.614 60.865 178.264 60.805C177.974 60.965 177.764 61.14 177.634 61.33C177.514 61.52 177.454 61.715 177.454 61.915ZM185.574 64.3L187.299 60.505H186.849L183.954 53.56H186.039L188.124 58.795L190.299 53.56H192.339L187.614 64.3H185.574Z" fill="#051F39"/>
<rect x="254" y="48" width="95.7876" height="11" rx="5.5" fill="#EBEFF2"/>
<rect x="254" y="69" width="123" height="5" rx="2.5" fill="#EBEFF2"/>
<rect x="254" y="81" width="63.1327" height="5" rx="2.5" fill="#EBEFF2"/>
<rect x="224" y="49" width="20" height="20" rx="2" stroke="#EBEFF2" stroke-width="2"/>
<rect x="254" y="111" width="95.7876" height="11" rx="5.5" fill="#EBEFF2"/>
<rect x="254" y="132" width="123" height="5" rx="2.5" fill="#EBEFF2"/>
<rect x="254" y="144" width="63.1327" height="5" rx="2.5" fill="#EBEFF2"/>
<rect x="224" y="112" width="20" height="20" rx="2" stroke="#EBEFF2" stroke-width="2"/>
<path d="M88.5071 125.658C79.399 137.723 75.4568 152.913 77.548 167.885C79.6391 182.857 87.5922 196.385 99.6576 205.493C111.723 214.601 126.913 218.543 141.885 216.452C156.857 214.361 170.385 206.408 179.493 194.342L134 160L88.5071 125.658Z" fill="#E9FBF6"/>
<path d="M136 100C127.568 100 119.241 101.871 111.619 105.478C103.997 109.084 97.2702 114.337 91.9235 120.858L136 157V100Z" fill="#FF7300"/>
<path d="M168.059 100.955C161.139 96.5011 153.226 93.8243 145.023 93.1621L141 143L168.059 100.955Z" fill="#17BD8D"/>
<path d="M192.265 147.875C189.845 132.952 181.596 119.603 169.333 110.762L136 157L192.265 147.875Z" fill="#FDAC33"/>
<path d="M183.841 187.987C190.53 177.66 193.698 165.447 192.871 153.171L136 157L183.841 187.987Z" fill="#0061BF"/>
<path d="M156 103L167.769 95H207" stroke="#D8DEE6" stroke-width="1.5" stroke-linecap="round"/>
<path d="M170 90H206" stroke="#D8DEE6" stroke-width="1.5" stroke-linecap="round"/>
<path d="M177 84H206" stroke="#D8DEE6" stroke-width="1.5" stroke-linecap="round"/>
<path d="M106.234 201L98.7344 210.735H58" stroke="#D8DEE6" stroke-width="1.5" stroke-linecap="round"/>
<path d="M58 216.853H104" stroke="#D8DEE6" stroke-width="1.5" stroke-linecap="round"/>
<path d="M58 224.5H94.5294" stroke="#D8DEE6" stroke-width="1.5" stroke-linecap="round"/>
<g filter="url(#filter1_d_14915_15322)">
<rect x="250" y="174" width="184" height="127" rx="8" fill="white"/>
</g>
<path d="M263.83 194.12C263.137 194.12 262.537 193.97 262.03 193.67C261.53 193.363 261.143 192.94 260.87 192.4C260.597 191.853 260.46 191.223 260.46 190.51C260.46 189.79 260.597 189.16 260.87 188.62C261.143 188.073 261.53 187.647 262.03 187.34C262.537 187.033 263.137 186.88 263.83 186.88C264.65 186.88 265.32 187.08 265.84 187.48C266.36 187.88 266.69 188.44 266.83 189.16H265.65C265.557 188.753 265.357 188.43 265.05 188.19C264.743 187.95 264.333 187.83 263.82 187.83C263.12 187.83 262.567 188.07 262.16 188.55C261.753 189.023 261.55 189.677 261.55 190.51C261.55 191.337 261.753 191.987 262.16 192.46C262.567 192.933 263.12 193.17 263.82 193.17C264.333 193.17 264.743 193.057 265.05 192.83C265.357 192.603 265.557 192.293 265.65 191.9H266.83C266.69 192.593 266.36 193.137 265.84 193.53C265.32 193.923 264.65 194.12 263.83 194.12ZM269.635 194.12C269.215 194.12 268.868 194.05 268.595 193.91C268.322 193.77 268.118 193.587 267.985 193.36C267.852 193.127 267.785 192.873 267.785 192.6C267.785 192.12 267.972 191.74 268.345 191.46C268.718 191.18 269.252 191.04 269.945 191.04H271.245V190.95C271.245 190.563 271.138 190.273 270.925 190.08C270.718 189.887 270.448 189.79 270.115 189.79C269.822 189.79 269.565 189.863 269.345 190.01C269.132 190.15 269.002 190.36 268.955 190.64H267.895C267.928 190.28 268.048 189.973 268.255 189.72C268.468 189.46 268.735 189.263 269.055 189.13C269.382 188.99 269.738 188.92 270.125 188.92C270.818 188.92 271.355 189.103 271.735 189.47C272.115 189.83 272.305 190.323 272.305 190.95V194H271.385L271.295 193.15C271.155 193.423 270.952 193.653 270.685 193.84C270.418 194.027 270.068 194.12 269.635 194.12ZM269.845 193.26C270.132 193.26 270.372 193.193 270.565 193.06C270.765 192.92 270.918 192.737 271.025 192.51C271.138 192.283 271.208 192.033 271.235 191.76H270.055C269.635 191.76 269.335 191.833 269.155 191.98C268.982 192.127 268.895 192.31 268.895 192.53C268.895 192.757 268.978 192.937 269.145 193.07C269.318 193.197 269.552 193.26 269.845 193.26ZM273.541 194V189.04H274.481L274.571 189.74C274.731 189.487 274.941 189.287 275.201 189.14C275.468 188.993 275.774 188.92 276.121 188.92C276.908 188.92 277.454 189.23 277.761 189.85C277.941 189.563 278.181 189.337 278.481 189.17C278.788 189.003 279.118 188.92 279.471 188.92C280.091 188.92 280.578 189.107 280.931 189.48C281.284 189.853 281.461 190.41 281.461 191.15V194H280.401V191.26C280.401 190.3 280.034 189.82 279.301 189.82C278.928 189.82 278.621 189.96 278.381 190.24C278.148 190.52 278.031 190.92 278.031 191.44V194H276.971V191.26C276.971 190.3 276.601 189.82 275.861 189.82C275.494 189.82 275.191 189.96 274.951 190.24C274.718 190.52 274.601 190.92 274.601 191.44V194H273.541ZM282.701 196.2V189.04H283.651L283.761 189.81C283.921 189.577 284.141 189.37 284.421 189.19C284.701 189.01 285.061 188.92 285.501 188.92C285.981 188.92 286.405 189.033 286.771 189.26C287.138 189.487 287.425 189.797 287.631 190.19C287.845 190.583 287.951 191.03 287.951 191.53C287.951 192.03 287.845 192.477 287.631 192.87C287.425 193.257 287.138 193.563 286.771 193.79C286.405 194.01 285.978 194.12 285.491 194.12C285.105 194.12 284.761 194.043 284.461 193.89C284.168 193.737 283.935 193.52 283.761 193.24V196.2H282.701ZM285.311 193.2C285.765 193.2 286.138 193.047 286.431 192.74C286.725 192.427 286.871 192.02 286.871 191.52C286.871 191.193 286.805 190.903 286.671 190.65C286.538 190.397 286.355 190.2 286.121 190.06C285.888 189.913 285.618 189.84 285.311 189.84C284.858 189.84 284.485 189.997 284.191 190.31C283.905 190.623 283.761 191.027 283.761 191.52C283.761 192.02 283.905 192.427 284.191 192.74C284.485 193.047 284.858 193.2 285.311 193.2ZM290.778 194.12C290.358 194.12 290.011 194.05 289.738 193.91C289.464 193.77 289.261 193.587 289.128 193.36C288.994 193.127 288.928 192.873 288.928 192.6C288.928 192.12 289.114 191.74 289.488 191.46C289.861 191.18 290.394 191.04 291.088 191.04H292.388V190.95C292.388 190.563 292.281 190.273 292.068 190.08C291.861 189.887 291.591 189.79 291.258 189.79C290.964 189.79 290.708 189.863 290.488 190.01C290.274 190.15 290.144 190.36 290.098 190.64H289.038C289.071 190.28 289.191 189.973 289.398 189.72C289.611 189.46 289.878 189.263 290.198 189.13C290.524 188.99 290.881 188.92 291.268 188.92C291.961 188.92 292.498 189.103 292.878 189.47C293.258 189.83 293.448 190.323 293.448 190.95V194H292.528L292.438 193.15C292.298 193.423 292.094 193.653 291.828 193.84C291.561 194.027 291.211 194.12 290.778 194.12ZM290.988 193.26C291.274 193.26 291.514 193.193 291.708 193.06C291.908 192.92 292.061 192.737 292.168 192.51C292.281 192.283 292.351 192.033 292.378 191.76H291.198C290.778 191.76 290.478 191.833 290.298 191.98C290.124 192.127 290.038 192.31 290.038 192.53C290.038 192.757 290.121 192.937 290.288 193.07C290.461 193.197 290.694 193.26 290.988 193.26ZM295.284 188.1C295.084 188.1 294.917 188.04 294.784 187.92C294.657 187.793 294.594 187.637 294.594 187.45C294.594 187.263 294.657 187.11 294.784 186.99C294.917 186.863 295.084 186.8 295.284 186.8C295.484 186.8 295.647 186.863 295.774 186.99C295.907 187.11 295.974 187.263 295.974 187.45C295.974 187.637 295.907 187.793 295.774 187.92C295.647 188.04 295.484 188.1 295.284 188.1ZM294.754 194V189.04H295.814V194H294.754ZM299.243 192.48C298.983 192.48 298.743 192.45 298.523 192.39L298.093 192.81C298.166 192.857 298.256 192.897 298.363 192.93C298.47 192.963 298.62 192.993 298.813 193.02C299.006 193.047 299.27 193.073 299.603 193.1C300.263 193.16 300.74 193.32 301.033 193.58C301.326 193.833 301.473 194.173 301.473 194.6C301.473 194.893 301.393 195.17 301.233 195.43C301.08 195.697 300.836 195.91 300.503 196.07C300.176 196.237 299.756 196.32 299.243 196.32C298.55 196.32 297.986 196.187 297.553 195.92C297.126 195.66 296.913 195.263 296.913 194.73C296.913 194.523 296.966 194.317 297.073 194.11C297.186 193.91 297.363 193.72 297.603 193.54C297.463 193.48 297.34 193.417 297.233 193.35C297.133 193.277 297.043 193.203 296.963 193.13V192.89L297.823 192.01C297.436 191.677 297.243 191.24 297.243 190.7C297.243 190.373 297.32 190.077 297.473 189.81C297.633 189.537 297.863 189.32 298.163 189.16C298.463 189 298.823 188.92 299.243 188.92C299.523 188.92 299.783 188.96 300.023 189.04H301.873V189.74L300.993 189.79C301.153 190.063 301.233 190.367 301.233 190.7C301.233 191.033 301.153 191.333 300.993 191.6C300.84 191.867 300.613 192.08 300.313 192.24C300.02 192.4 299.663 192.48 299.243 192.48ZM299.243 191.65C299.55 191.65 299.796 191.57 299.983 191.41C300.176 191.243 300.273 191.01 300.273 190.71C300.273 190.403 300.176 190.17 299.983 190.01C299.796 189.85 299.55 189.77 299.243 189.77C298.93 189.77 298.676 189.85 298.483 190.01C298.296 190.17 298.203 190.403 298.203 190.71C298.203 191.01 298.296 191.243 298.483 191.41C298.676 191.57 298.93 191.65 299.243 191.65ZM297.913 194.63C297.913 194.917 298.04 195.13 298.293 195.27C298.546 195.417 298.863 195.49 299.243 195.49C299.61 195.49 299.906 195.41 300.133 195.25C300.36 195.097 300.473 194.89 300.473 194.63C300.473 194.437 300.396 194.27 300.243 194.13C300.09 193.997 299.8 193.913 299.373 193.88C299.053 193.86 298.77 193.83 298.523 193.79C298.29 193.917 298.13 194.053 298.043 194.2C297.956 194.347 297.913 194.49 297.913 194.63ZM302.818 194V189.04H303.758L303.838 189.91C303.992 189.603 304.215 189.363 304.508 189.19C304.808 189.01 305.152 188.92 305.538 188.92C306.138 188.92 306.608 189.107 306.948 189.48C307.295 189.853 307.468 190.41 307.468 191.15V194H306.418V191.26C306.418 190.3 306.025 189.82 305.238 189.82C304.845 189.82 304.518 189.96 304.258 190.24C304.005 190.52 303.878 190.92 303.878 191.44V194H302.818ZM310.697 194.12C310.07 194.12 309.554 193.967 309.147 193.66C308.74 193.353 308.507 192.947 308.447 192.44H309.517C309.57 192.667 309.697 192.863 309.897 193.03C310.097 193.19 310.36 193.27 310.687 193.27C311.007 193.27 311.24 193.203 311.387 193.07C311.534 192.937 311.607 192.783 311.607 192.61C311.607 192.357 311.504 192.187 311.297 192.1C311.097 192.007 310.817 191.923 310.457 191.85C310.177 191.79 309.897 191.71 309.617 191.61C309.344 191.51 309.114 191.37 308.927 191.19C308.747 191.003 308.657 190.753 308.657 190.44C308.657 190.007 308.824 189.647 309.157 189.36C309.49 189.067 309.957 188.92 310.557 188.92C311.11 188.92 311.557 189.053 311.897 189.32C312.244 189.587 312.447 189.963 312.507 190.45H311.487C311.454 190.237 311.354 190.07 311.187 189.95C311.027 189.83 310.81 189.77 310.537 189.77C310.27 189.77 310.064 189.827 309.917 189.94C309.77 190.047 309.697 190.187 309.697 190.36C309.697 190.533 309.797 190.67 309.997 190.77C310.204 190.87 310.474 190.96 310.807 191.04C311.14 191.113 311.447 191.2 311.727 191.3C312.014 191.393 312.244 191.533 312.417 191.72C312.59 191.907 312.677 192.18 312.677 192.54C312.684 192.993 312.507 193.37 312.147 193.67C311.794 193.97 311.31 194.12 310.697 194.12Z" fill="#495B6D"/>
<path d="M260 264.5C260 261.462 262.462 259 265.5 259C268.538 259 271 261.462 271 264.5V291H260V264.5Z" fill="#F2F5F6"/>
<path d="M292 241.5C292 238.462 294.462 236 297.5 236C300.538 236 303 238.462 303 241.5V291H292V241.5Z" fill="#F2F5F6"/>
<path d="M324 244.5C324 241.462 326.462 239 329.5 239C332.538 239 335 241.462 335 244.5V291H324V244.5Z" fill="#F2F5F6"/>
<path d="M356 223.5C356 220.462 358.462 218 361.5 218C364.538 218 367 220.462 367 223.5V291H356V223.5Z" fill="#F2F5F6"/>
<path d="M388 220.5C388 217.462 390.462 215 393.5 215C396.538 215 399 217.462 399 220.5V291H388V220.5Z" fill="#F2F5F6"/>
<path d="M413 246.5C413 243.462 415.462 241 418.5 241C421.538 241 424 243.462 424 246.5V291H413V246.5Z" fill="#F2F5F6"/>
<line x1="260.5" y1="230.5" x2="423.5" y2="230.5" stroke="#EBEFF2" stroke-linecap="round" stroke-dasharray="4 6"/>
<line x1="260.5" y1="250.5" x2="423.5" y2="250.5" stroke="#EBEFF2" stroke-linecap="round" stroke-dasharray="4 6"/>
<line x1="260.5" y1="270.5" x2="423.5" y2="270.5" stroke="#EBEFF2" stroke-linecap="round" stroke-dasharray="4 6"/>
<line x1="260.5" y1="290.5" x2="423.5" y2="290.5" stroke="#EBEFF2" stroke-linecap="round" stroke-dasharray="4 6"/>
<path d="M265 253L295 227L328 231.5L361 209L394.5 206.5L420 222L418 234.5" stroke="#F2F5F6"/>
<circle opacity="0.35" cx="264.5" cy="253.5" r="3.5" fill="#0061BF"/>
<circle opacity="0.35" cx="294.5" cy="227.5" r="3.5" fill="#219FFF"/>
<circle opacity="0.35" cx="327.5" cy="231.5" r="3.5" fill="#17BD8D"/>
<circle opacity="0.35" cx="360.5" cy="209.5" r="3.5" fill="#FDAC33"/>
<circle opacity="0.35" cx="394.5" cy="206.5" r="3.5" fill="#FF4E3E"/>
<circle opacity="0.35" cx="417.5" cy="234.5" r="3.5" fill="#FF7300"/>
<defs>
<filter id="filter0_d_14915_15322" x="0" y="1" width="437" height="312" filterUnits="userSpaceOnUse" color-interpolation-filters="sRGB">
<feFlood flood-opacity="0" result="BackgroundImageFix"/>
<feColorMatrix in="SourceAlpha" type="matrix" values="0 0 0 0 0 0 0 0 0 0 0 0 0 0 0 0 0 0 127 0" result="hardAlpha"/>
<feOffset dy="15"/>
<feGaussianBlur stdDeviation="20"/>
<feComposite in2="hardAlpha" operator="out"/>
<feColorMatrix type="matrix" values="0 0 0 0 0.117647 0 0 0 0 0.129412 0 0 0 0 0.176471 0 0 0 0.08 0"/>
<feBlend mode="normal" in2="BackgroundImageFix" result="effect1_dropShadow_14915_15322"/>
<feBlend mode="normal" in="SourceGraphic" in2="effect1_dropShadow_14915_15322" result="shape"/>
</filter>
<filter id="filter1_d_14915_15322" x="210" y="149" width="264" height="207" filterUnits="userSpaceOnUse" color-interpolation-filters="sRGB">
<feFlood flood-opacity="0" result="BackgroundImageFix"/>
<feColorMatrix in="SourceAlpha" type="matrix" values="0 0 0 0 0 0 0 0 0 0 0 0 0 0 0 0 0 0 127 0" result="hardAlpha"/>
<feOffset dy="15"/>
<feGaussianBlur stdDeviation="20"/>
<feComposite in2="hardAlpha" operator="out"/>
<feColorMatrix type="matrix" values="0 0 0 0 0.117647 0 0 0 0 0.129412 0 0 0 0 0.176471 0 0 0 0.08 0"/>
<feBlend mode="normal" in2="BackgroundImageFix" result="effect1_dropShadow_14915_15322"/>
<feBlend mode="normal" in="SourceGraphic" in2="effect1_dropShadow_14915_15322" result="shape"/>
</filter>
<linearGradient id="paint0_linear_14915_15322" x1="64.0059" y1="131.251" x2="54.706" y2="4.05538" gradientUnits="userSpaceOnUse">
<stop stop-color="#61D0FF" stop-opacity="0.34"/>
<stop offset="1" stop-color="#61D0FF" stop-opacity="0"/>
</linearGradient>
<linearGradient id="paint1_linear_14915_15322" x1="53" y1="-35" x2="53.5" y2="85" gradientUnits="userSpaceOnUse">
<stop stop-color="#EAF4FE"/>
<stop offset="1" stop-color="#EAF4FE" stop-opacity="0"/>
</linearGradient>
<linearGradient id="paint2_linear_14915_15322" x1="12" y1="-28.5" x2="25.5" y2="38" gradientUnits="userSpaceOnUse">
<stop stop-color="#FFF1EA"/>
<stop offset="1" stop-color="#FFF1EA" stop-opacity="0"/>
</linearGradient>
</defs>
</svg>
