<svg width="186" height="16" viewBox="0 0 186 16" fill="none" xmlns="http://www.w3.org/2000/svg">
<path d="M28.362 7.09933V5.78752C28.362 5.78752 28.3016 5.87404 28.2065 6.01066C27.6083 3.52275 25.4156 1.67188 22.8085 1.67188H14.9059C12.3945 1.67188 10.2677 3.38958 9.58014 5.73963L9.34603 5.72704L9.3457 7.37662C9.3457 10.5221 11.84 13.0814 14.9059 13.0814H22.8085C25.8745 13.0814 28.3688 10.5221 28.3688 7.37662C28.3688 7.28362 28.3663 7.19124 28.362 7.09933ZM22.8085 10.0482H14.9059C13.4702 10.0482 12.3021 8.84977 12.3021 7.37662C12.3021 5.90347 13.4702 4.70506 14.9059 4.70506H22.8085C24.2443 4.70506 25.4124 5.90347 25.4124 7.37662C25.4124 8.84977 24.2443 10.0482 22.8085 10.0482Z" fill="#D15F02"/>
<path d="M22.8085 11.4114H14.9059C11.84 11.4114 9.3457 8.85219 9.3457 5.7067C9.3457 2.5612 11.84 0.00195312 14.9059 0.00195312H22.8085C25.8745 0.00195312 28.3688 2.5612 28.3688 5.7067C28.3688 8.85219 25.8745 11.4114 22.8085 11.4114ZM14.9059 3.03514C13.4702 3.03514 12.3021 4.23355 12.3021 5.7067C12.3021 7.17985 13.4702 8.37826 14.9059 8.37826H22.8085C24.2443 8.37826 25.4124 7.17985 25.4124 5.7067C25.4124 4.23355 24.2443 3.03514 22.8085 3.03514H14.9059Z" fill="#FF7300"/>
<path d="M19.0163 10.0134V8.70158C19.0163 8.70158 18.9559 8.7881 18.8608 8.92473C18.2626 6.43682 16.0699 4.58594 13.4628 4.58594H5.5602C3.04881 4.58594 0.921978 6.30364 0.234442 8.6537L0.000330639 8.64111L0 10.2907C0 13.4362 2.49434 15.9954 5.5602 15.9954H13.4628C16.5288 15.9954 19.0231 13.4362 19.0231 10.2907C19.0231 10.1977 19.0206 10.1053 19.0163 10.0134ZM13.4628 12.9622H5.5602C4.12446 12.9622 2.95639 11.7638 2.95639 10.2907C2.95639 8.81753 4.12446 7.61912 5.5602 7.61912H13.4628C14.8986 7.61912 16.0667 8.81753 16.0667 10.2907C16.0667 11.7638 14.8986 12.9622 13.4628 12.9622Z" fill="#0056AA"/>
<path d="M13.4628 14.3255H5.5602C2.49434 14.3255 0 11.7663 0 8.62076C0 5.47526 2.49434 2.91602 5.5602 2.91602H13.4628C16.5288 2.91602 19.0231 5.47526 19.0231 8.62076C19.0231 11.7663 16.5288 14.3255 13.4628 14.3255ZM5.5602 5.9492C4.12446 5.9492 2.95639 7.14761 2.95639 8.62076C2.95639 10.0939 4.12446 11.2923 5.5602 11.2923H13.4628C14.8986 11.2923 16.0667 10.0939 16.0667 8.62076C16.0667 7.14761 14.8986 5.9492 13.4628 5.9492H5.5602Z" fill="#0061BF"/>
<path d="M25.3656 7.87891C25.1362 9.11308 24.078 10.0493 22.8092 10.0493H14.9066C13.6379 10.0493 12.5798 9.11308 12.3503 7.87891H9.36914C9.61748 10.7905 12.0054 13.0825 14.9066 13.0825H22.8092C25.7105 13.0825 28.0985 10.7905 28.3468 7.87891H25.3656Z" fill="#D15F02"/>
<path d="M24.3208 7.87891C23.894 8.19264 23.3729 8.37947 22.809 8.37947H14.9064C14.3425 8.37947 13.8214 8.19264 13.3947 7.87891H9.76562C10.5999 9.95058 12.5895 11.4127 14.9064 11.4127H22.809C25.126 11.4127 27.1157 9.95058 27.9499 7.87891H24.3208Z" fill="#FF7300"/>
<ellipse cx="103.46" cy="2.45695" rx="1.77986" ry="1.8261" fill="#0061BF"/>
<path d="M86.2296 7.91398C87.4593 8.6595 88.0741 9.78495 88.0741 11.2903C88.0741 12.6237 87.627 13.6918 86.7326 14.4946C85.8383 15.2975 84.6435 15.6989 83.1483 15.6989H76.9648V0.645161H82.7501C84.2173 0.645161 85.3911 1.03226 86.2715 1.80645C87.1519 2.56631 87.592 3.60573 87.592 4.92473C87.592 6.18638 87.1379 7.1828 86.2296 7.91398ZM82.6453 4.08602H80.7168V6.45161H82.6453C82.9806 6.45161 83.2601 6.35125 83.4837 6.15054C83.7212 5.93548 83.84 5.64158 83.84 5.26882C83.84 4.91039 83.7282 4.62366 83.5047 4.4086C83.2811 4.19355 82.9946 4.08602 82.6453 4.08602ZM83.0435 12.2581C83.4208 12.2581 83.7282 12.1434 83.9658 11.914C84.2033 11.6703 84.3221 11.362 84.3221 10.9892C84.3221 10.6022 84.2033 10.2939 83.9658 10.0645C83.7282 9.83512 83.4208 9.72043 83.0435 9.72043H80.7168V12.2581H83.0435Z" fill="#FF7300"/>
<path d="M96.2767 4.94624H99.7563V15.6989H96.2767V14.6237C95.6479 15.5412 94.6767 16 93.3632 16C92.2313 16 91.302 15.6057 90.5754 14.8172C89.8627 14.0143 89.5064 12.8674 89.5064 11.3763V4.94624H92.9859V10.9247C92.9859 11.4839 93.1256 11.9068 93.4051 12.1935C93.6985 12.4803 94.0828 12.6237 94.5579 12.6237C95.1029 12.6237 95.5221 12.4588 95.8156 12.129C96.123 11.7849 96.2767 11.2975 96.2767 10.6667V4.94624Z" fill="#FF7300"/>
<path d="M101.771 15.6989V4.94624H105.25V15.6989H101.771Z" fill="#FF7300"/>
<path d="M107.257 15.6989V0H110.736V15.6989H107.257Z" fill="#FF7300"/>
<path d="M120.121 0.645161H123.601V15.6989H120.121V14.7097C119.408 15.5699 118.416 16 117.145 16C115.747 16 114.573 15.4624 113.623 14.3871C112.687 13.2975 112.219 11.9427 112.219 10.3226C112.219 8.70251 112.687 7.35484 113.623 6.27957C114.573 5.18996 115.747 4.64516 117.145 4.64516C118.416 4.64516 119.408 5.07527 120.121 5.93548V0.645161ZM116.327 12.0215C116.732 12.4516 117.263 12.6667 117.92 12.6667C118.577 12.6667 119.108 12.4516 119.513 12.0215C119.919 11.5914 120.121 11.0251 120.121 10.3226C120.121 9.62007 119.919 9.05376 119.513 8.62366C119.108 8.19355 118.577 7.97849 117.92 7.97849C117.263 7.97849 116.732 8.19355 116.327 8.62366C115.922 9.05376 115.719 9.62007 115.719 10.3226C115.719 11.0251 115.922 11.5914 116.327 12.0215Z" fill="#FF7300"/>
<path d="M128.7 11.6344C129.049 12.509 129.831 12.9462 131.047 12.9462C131.802 12.9462 132.438 12.6953 132.955 12.1935L135.47 14C134.436 15.3333 132.934 16 130.963 16C129.189 16 127.763 15.4695 126.687 14.4086C125.625 13.3333 125.094 11.9785 125.094 10.3441C125.094 8.72401 125.618 7.36918 126.666 6.27957C127.714 5.18996 129.049 4.64516 130.67 4.64516C132.235 4.64516 133.528 5.1828 134.548 6.25806C135.568 7.33333 136.078 8.681 136.078 10.3011C136.078 10.7742 136.029 11.2186 135.931 11.6344H128.7ZM128.658 9.16129H132.682C132.403 8.15771 131.746 7.65591 130.712 7.65591C129.636 7.65591 128.951 8.15771 128.658 9.16129Z" fill="#FF7300"/>
<path d="M141.052 6.94624C141.247 6.24373 141.639 5.69892 142.225 5.31183C142.812 4.92473 143.469 4.73118 144.196 4.73118V8.68817C143.399 8.55914 142.673 8.70968 142.016 9.13978C141.373 9.56989 141.052 10.2724 141.052 11.2473V15.6989H137.572V4.94624H141.052V6.94624Z" fill="#FF7300"/>
<path d="M151.362 0.645161C152.844 0.645161 154.087 1.13978 155.093 2.12903C156.1 3.11828 156.603 4.37993 156.603 5.91398C156.603 7.44803 156.1 8.70968 155.093 9.69892C154.087 10.6882 152.844 11.1828 151.362 11.1828H149.413V15.6989H145.661V0.645161H151.362ZM151.362 7.52688C151.782 7.52688 152.131 7.37634 152.41 7.07527C152.704 6.77419 152.851 6.3871 152.851 5.91398C152.851 5.44086 152.704 5.06093 152.41 4.77419C152.131 4.47312 151.782 4.32258 151.362 4.32258H149.413V7.52688H151.362Z" fill="#FF7300"/>
<path d="M161.296 6.94624C161.492 6.24373 161.883 5.69892 162.47 5.31183C163.057 4.92473 163.714 4.73118 164.44 4.73118V8.68817C163.644 8.55914 162.917 8.70968 162.26 9.13978C161.617 9.56989 161.296 10.2724 161.296 11.2473V15.6989H157.817V4.94624H161.296V6.94624Z" fill="#FF7300"/>
<path d="M170.586 16C169.035 16 167.715 15.4552 166.625 14.3656C165.535 13.2616 164.99 11.914 164.99 10.3226C164.99 8.73118 165.535 7.39068 166.625 6.30108C167.715 5.19713 169.035 4.64516 170.586 4.64516C172.151 4.64516 173.472 5.19713 174.548 6.30108C175.638 7.39068 176.183 8.73118 176.183 10.3226C176.183 11.914 175.638 13.2616 174.548 14.3656C173.472 15.4552 172.151 16 170.586 16ZM170.586 12.5591C171.201 12.5591 171.704 12.3513 172.095 11.9355C172.501 11.5197 172.703 10.9821 172.703 10.3226C172.703 9.66308 172.501 9.12545 172.095 8.70968C171.704 8.29391 171.201 8.08602 170.586 8.08602C169.985 8.08602 169.482 8.29391 169.077 8.70968C168.686 9.12545 168.49 9.66308 168.49 10.3226C168.49 10.9821 168.686 11.5197 169.077 11.9355C169.482 12.3513 169.985 12.5591 170.586 12.5591Z" fill="#FF7300"/>
<path d="M180.8 8.08602C180.8 8.28674 180.975 8.45161 181.324 8.58064C181.688 8.70968 182.121 8.83154 182.624 8.94624C183.141 9.06093 183.651 9.22581 184.154 9.44086C184.671 9.64158 185.104 9.99283 185.454 10.4946C185.817 10.9964 185.999 11.6272 185.999 12.3871C185.999 13.6201 185.551 14.5305 184.657 15.1183C183.763 15.7061 182.701 16 181.471 16C179.123 16 177.558 15.147 176.776 13.4409L179.815 11.871C180.081 12.6595 180.626 13.0538 181.45 13.0538C182.079 13.0538 182.393 12.8602 182.393 12.4731C182.393 12.2724 182.219 12.1075 181.869 11.9785C181.52 11.8495 181.094 11.7204 180.591 11.5914C180.088 11.4624 179.584 11.2903 179.081 11.0753C178.578 10.8602 178.152 10.5161 177.803 10.043C177.453 9.55556 177.279 8.96057 177.279 8.25806C177.279 7.11111 177.691 6.22222 178.515 5.5914C179.34 4.96057 180.332 4.64516 181.492 4.64516C183.56 4.64516 184.999 5.4767 185.81 7.13978L182.875 8.49462C182.568 7.87814 182.135 7.56989 181.576 7.56989C181.059 7.56989 180.8 7.74194 180.8 8.08602Z" fill="#FF7300"/>
<path d="M39.4844 11.9798H44.536V15.7002H35.7324V0.646484H39.4844V11.9798Z" fill="#0061BF"/>
<path d="M45.7591 15.7002V4.94756H49.2386V15.7002H45.7591Z" fill="#0061BF"/>
<path d="M57.6381 4.64648C58.7699 4.64648 59.6922 5.04792 60.4049 5.85078C61.1315 6.63931 61.4949 7.7791 61.4949 9.27014V15.7002H58.0154V9.72175C58.0154 9.16261 57.8686 8.73967 57.5752 8.45293C57.2957 8.1662 56.9184 8.02283 56.4433 8.02283C55.8983 8.02283 55.4721 8.19487 55.1647 8.53896C54.8712 8.8687 54.7245 9.34899 54.7245 9.97982V15.7002H51.245V4.94756H54.7245V6.02283C55.3533 5.10526 56.3245 4.64648 57.6381 4.64648Z" fill="#0061BF"/>
<path d="M73.7382 15.7002H69.8394L66.863 11.1196V15.7002H63.3835V0.646484H66.863V9.44218L69.5669 4.94756H73.5914L70.07 10.3239L73.7382 15.7002Z" fill="#0061BF"/>
<ellipse cx="47.4849" cy="2.45695" rx="1.77986" ry="1.8261" fill="#FF7300"/>
</svg>
