<svg width="520" height="533" viewBox="0 0 520 533" fill="none" xmlns="http://www.w3.org/2000/svg">
<circle cx="260" cy="260" r="260" fill="url(#paint0_linear_15903_28035)"/>
<path d="M227.497 220.596H141.059C126.348 220.596 114.945 233.265 116.427 247.875C118.822 271.389 126.576 306.088 129.883 334.281C132.734 359.049 153.602 377.654 178.576 377.654H256.576L227.497 220.596Z" fill="#8997A6"/>
<path d="M238.218 220.596H155.771C141.06 220.596 129.657 233.265 131.139 247.875C133.534 271.389 137.183 292.733 140.49 321.04C143.341 345.809 164.209 364.414 189.183 364.414H267.297L238.218 220.596Z" fill="#AAB4BE"/>
<path d="M197.736 378.682H207.885V505.835H197.736V378.682Z" fill="#AAB4BE"/>
<path d="M179.606 381.649H232.291C234.115 381.649 235.598 380.165 235.598 378.339V377.654H176.299V378.339C176.299 380.165 177.782 381.649 179.606 381.649Z" fill="#8997A6"/>
<path d="M244.264 517.821C244.264 510.516 238.334 504.694 231.15 504.694H170.483C163.185 504.694 157.369 510.63 157.369 517.821V518.391" stroke="#AAB4BE" stroke-width="2.6579" stroke-miterlimit="10" stroke-linecap="round" stroke-linejoin="round"/>
<path d="M181.543 517.592V504.466" stroke="#AAB4BE" stroke-width="2.6579" stroke-miterlimit="10"/>
<path d="M221 517.592V504.466" stroke="#AAB4BE" stroke-width="2.6579" stroke-miterlimit="10"/>
<path d="M243.237 524.098C239.836 524.098 237.079 521.338 237.079 517.934C237.079 514.53 239.836 511.771 243.237 511.771C246.638 511.771 249.395 514.53 249.395 517.934C249.395 521.338 246.638 524.098 243.237 524.098Z" fill="#AAB4BE"/>
<path d="M243.236 519.989C242.103 519.989 241.184 519.069 241.184 517.934C241.184 516.8 242.103 515.88 243.236 515.88C244.37 515.88 245.289 516.8 245.289 517.934C245.289 519.069 244.37 519.989 243.236 519.989Z" stroke="#DBE2EF" stroke-width="0.8184" stroke-miterlimit="10" stroke-linecap="round" stroke-linejoin="round"/>
<path d="M220.43 524.099C217.029 524.099 214.272 521.339 214.272 517.935C214.272 514.531 217.029 511.771 220.43 511.771C223.831 511.771 226.588 514.531 226.588 517.935C226.588 521.339 223.831 524.099 220.43 524.099Z" fill="#AAB4BE"/>
<path d="M220.43 519.99C219.296 519.99 218.377 519.07 218.377 517.935C218.377 516.801 219.296 515.881 220.43 515.881C221.563 515.881 222.482 516.801 222.482 517.935C222.482 519.07 221.563 519.99 220.43 519.99Z" stroke="#DBE2EF" stroke-width="0.8184" stroke-miterlimit="10" stroke-linecap="round" stroke-linejoin="round"/>
<path d="M180.405 524.099C177.004 524.099 174.247 521.339 174.247 517.935C174.247 514.531 177.004 511.771 180.405 511.771C183.806 511.771 186.562 514.531 186.562 517.935C186.562 521.339 183.806 524.099 180.405 524.099Z" fill="#AAB4BE"/>
<path d="M180.404 519.99C179.271 519.99 178.352 519.07 178.352 517.935C178.352 516.801 179.271 515.881 180.404 515.881C181.538 515.881 182.457 516.801 182.457 517.935C182.457 519.07 181.538 519.99 180.404 519.99Z" stroke="#DBE2EF" stroke-width="0.8184" stroke-miterlimit="10" stroke-linecap="round" stroke-linejoin="round"/>
<path d="M157.596 524.099C154.195 524.099 151.438 521.339 151.438 517.935C151.438 514.531 154.195 511.771 157.596 511.771C160.997 511.771 163.754 514.531 163.754 517.935C163.754 521.339 160.997 524.099 157.596 524.099Z" fill="#AAB4BE"/>
<path d="M157.596 519.99C156.462 519.99 155.543 519.07 155.543 517.935C155.543 516.801 156.462 515.881 157.596 515.881C158.729 515.881 159.648 516.801 159.648 517.935C159.648 519.07 158.729 519.99 157.596 519.99Z" stroke="#DBE2EF" stroke-width="0.8184" stroke-miterlimit="10" stroke-linecap="round" stroke-linejoin="round"/>
<path d="M358.525 320.126L346.893 522.499C346.893 525.466 350.999 525.695 351.113 522.613L373.35 320.126" fill="#EBEFF2"/>
<path d="M373.236 320.126H358.412L372.438 327.203L373.236 320.126Z" fill="#AAB4BE"/>
<path d="M260 532.999C116.406 532.999 0 530.955 0 528.434C0 525.912 116.406 523.868 260 523.868C403.594 523.868 520 525.912 520 528.434C520 530.955 403.594 532.999 260 532.999Z" fill="#EBEFF2"/>
<path d="M380.125 148.592H438.397C445.125 148.592 450.257 142.542 449.116 135.808L443.871 106.017C442.958 100.767 438.397 97 433.151 97H374.879C368.151 97 363.02 103.049 364.16 109.784L369.406 139.575C370.318 144.825 374.879 148.592 380.125 148.592Z" fill="url(#paint1_linear_15903_28035)"/>
<path d="M396.205 144.369H384.345C379.784 144.369 375.793 141.287 374.652 136.95C373.626 133.069 373.17 129.302 372.258 125.764" stroke="#DBE2EF" stroke-width="0.6645" stroke-miterlimit="10" stroke-linecap="round" stroke-linejoin="round"/>
<path d="M420.152 145.51L414.451 156.696C413.31 158.865 410.801 159.207 409.319 157.267L400.424 145.054" fill="url(#paint2_linear_15903_28035)"/>
<path d="M423.345 124.85C421.644 124.85 420.266 123.47 420.266 121.768C420.266 120.066 421.644 118.687 423.345 118.687C425.045 118.687 426.424 120.066 426.424 121.768C426.424 123.47 425.045 124.85 423.345 124.85Z" stroke="#DBE2EF" stroke-width="0.6645" stroke-miterlimit="10"/>
<path d="M403.618 121.768C403.618 123.48 404.986 124.85 406.696 124.85C408.407 124.85 409.775 123.48 409.775 121.768C409.775 120.056 408.407 118.687 406.696 118.687C404.986 118.687 403.618 120.056 403.618 121.768Z" stroke="#DBE2EF" stroke-width="0.6645" stroke-miterlimit="10"/>
<path d="M389.931 124.85C388.23 124.85 386.852 123.47 386.852 121.768C386.852 120.066 388.23 118.687 389.931 118.687C391.631 118.687 393.01 120.066 393.01 121.768C393.01 123.47 391.631 124.85 389.931 124.85Z" stroke="#DBE2EF" stroke-width="0.6645" stroke-miterlimit="10"/>
<path d="M371.344 121.199C371.002 119.715 370.774 118.231 370.431 116.861" stroke="#DBE2EF" stroke-width="0.6645" stroke-miterlimit="10" stroke-linecap="round" stroke-linejoin="round"/>
<path opacity="0.1" d="M284.001 87.5455V84.4636C284.001 83.6646 284.685 82.9798 285.483 82.9798H286.738C287.878 82.9798 288.79 82.295 289.133 81.1535C289.247 80.9253 289.361 80.5828 289.475 80.3546C289.931 79.3273 289.589 78.0717 288.676 77.3869L287.764 76.702C287.194 76.2455 287.08 75.3323 287.536 74.6475L289.475 72.2505C289.931 71.6798 290.843 71.5657 291.527 72.0222L292.668 72.9354C293.58 73.7343 294.948 73.7343 295.975 73.1636C296.545 72.8212 297.229 72.5929 297.799 72.3647C298.94 71.9081 299.738 70.8808 299.738 69.6253V68.3697C299.738 67.6849 300.308 67 301.106 67H304.527C305.211 67 305.896 67.5707 305.896 68.3697V69.6253C305.896 70.7667 306.694 71.7939 307.834 72.2505C308.518 72.4788 309.203 72.8212 309.887 73.1636C310.913 73.7343 312.168 73.6202 313.08 72.9354L313.992 72.1364C314.79 71.4515 315.931 71.5657 316.615 72.3647L318.097 74.1909C318.782 74.9899 318.668 76.1313 317.869 76.8162L316.957 77.6152C316.159 78.3 315.931 79.3273 316.387 80.2404C316.501 80.5828 316.729 81.0394 316.843 81.3818C317.185 82.295 317.983 82.9798 319.01 82.9798H320.492C321.29 82.9798 321.975 83.6646 321.975 84.4636V87.6596C321.975 88.4586 321.29 89.1434 320.492 89.1434H318.782C317.869 89.1434 317.071 89.7141 316.843 90.5131C316.615 91.0838 316.387 91.5404 316.159 92.1111C315.817 92.9101 315.931 93.8232 316.501 94.5081L317.755 95.7636C318.325 96.3343 318.325 97.2475 317.755 97.8182L315.589 99.9869C315.018 100.558 314.106 100.558 313.536 99.9869L312.966 99.4162C312.054 98.503 310.799 98.2747 309.659 98.8455C309.203 99.0737 308.633 99.302 308.062 99.5303C306.922 99.9869 306.238 101.014 306.238 102.27V102.955C306.238 103.754 305.668 104.324 304.869 104.324H301.448C300.65 104.324 300.08 103.754 300.08 102.955V101.927C300.08 100.786 299.396 99.8727 298.369 99.5303C297.799 99.302 297.115 99.0737 296.545 98.7313C295.518 98.1606 294.264 98.503 293.466 99.302L292.668 100.101C292.097 100.672 291.185 100.786 290.501 100.215L288.334 98.1606C287.764 97.5899 287.65 96.6768 288.22 95.9919L289.475 94.7364C290.273 93.9374 290.387 92.796 289.931 91.7687C289.817 91.5404 289.703 91.198 289.589 90.9697C289.133 89.8283 288.106 89.1434 286.852 89.1434H285.711C284.685 89.0293 284.001 88.3444 284.001 87.5455ZM302.817 93.1384C306.808 93.1384 310.115 89.8283 310.115 85.8333C310.115 81.8384 306.808 78.5283 302.817 78.5283C298.825 78.5283 295.518 81.8384 295.518 85.8333C295.518 89.8283 298.825 93.1384 302.817 93.1384Z" fill="#0061BF"/>
<path d="M100.576 275.383C102.059 275.383 103.085 276.753 102.857 278.122L98.8657 300.722C98.1815 303.576 95.5587 305.63 92.5938 305.63H82.1025C79.1376 305.63 76.5148 303.576 75.8306 300.608L72.7517 278.008C72.5236 276.638 73.6639 275.383 75.0324 275.383H100.576Z" fill="#AAB4BE"/>
<path d="M96.1291 289.537C96.1291 292.847 98.8659 295.586 102.173 295.586C105.48 295.586 108.217 292.847 108.217 289.537C108.217 286.227 105.48 283.487 102.173 283.487C98.8659 283.487 96.1291 286.227 96.1291 289.537Z" stroke="#AAB4BE" stroke-width="2" stroke-miterlimit="10" stroke-linecap="round" stroke-linejoin="round"/>
<path d="M81.8767 275.269C82.2188 272.758 81.6486 270.133 80.1661 268.421C78.7977 266.823 77.0872 265.567 76.1749 263.627C75.1486 261.458 74.8065 258.947 75.2626 256.55C75.7188 253.925 77.0872 251.299 79.2539 249.701C82.1048 247.533 85.6398 247.875 89.0609 247.761C89.517 247.761 89.9732 247.761 90.4293 247.647C95.6749 246.962 97.4995 243.081 100.692 237.488C101.263 240.228 101.833 242.967 101.605 245.706C101.377 248.446 100.35 251.299 98.1837 253.012C94.5346 255.979 89.1749 253.582 85.2977 256.207C84.2714 256.892 82.903 258.604 82.789 259.86C82.4469 262.029 84.6135 265.225 86.7802 265.795C88.9469 266.366 91.2276 266.138 93.1662 267.279C95.1048 268.421 95.789 271.046 95.789 273.215C95.789 274.47 95.789 275.383 95.789 275.383" fill="#EBEFF2"/>
<path d="M101.488 284.857H74.0058" stroke="#D8DEE6" stroke-width="0.8184" stroke-miterlimit="10" stroke-linecap="round" stroke-linejoin="round"/>
<path d="M99.8906 293.418H75.3731" stroke="#D8DEE6" stroke-width="0.8184" stroke-miterlimit="10" stroke-linecap="round" stroke-linejoin="round"/>
<path d="M77.4277 296.841C76.9716 292.161 76.5155 287.596 76.0593 282.916" stroke="#D8DEE6" stroke-width="0.8184" stroke-miterlimit="10" stroke-linecap="round" stroke-linejoin="round"/>
<path d="M126.646 159.215L124.936 171.086C124.594 173.483 122.769 174.167 121.287 172.455L111.936 162.068" fill="#BED7EF"/>
<path d="M77.9539 164.922H158.919C163.594 164.922 167.015 160.585 165.989 156.019L160.287 131.593C159.489 128.283 156.638 126 153.217 126H72.2521C67.5767 126 64.1557 130.337 65.182 134.903L70.8837 159.329C71.682 162.639 74.6469 164.922 77.9539 164.922Z" fill="#BED7EF"/>
<path d="M87.1914 161.042H81.7177C78.4107 161.042 75.4458 158.759 74.6475 155.449L72.823 148.258" stroke="#DBE2EF" stroke-width="0.6645" stroke-miterlimit="10" stroke-linecap="round" stroke-linejoin="round"/>
<path d="M71.9102 144.833C71.6821 143.92 71.5681 143.121 71.34 142.322" stroke="#DBE2EF" stroke-width="0.6645" stroke-miterlimit="10" stroke-linecap="round" stroke-linejoin="round"/>
<path d="M147.287 133.99H77.6117" stroke="#DBE2EF" stroke-width="0.6645" stroke-miterlimit="10" stroke-linecap="round" stroke-linejoin="round"/>
<path d="M150.139 143.121H104.525" stroke="#DBE2EF" stroke-width="0.6645" stroke-miterlimit="10" stroke-linecap="round" stroke-linejoin="round"/>
<path d="M152.418 151.111H93.1197" stroke="#DBE2EF" stroke-width="0.6645" stroke-miterlimit="10" stroke-linecap="round" stroke-linejoin="round"/>
<path d="M449.185 318.528L473.018 522.385C473.246 525.353 469.141 525.809 468.799 522.841L434.474 319.556" fill="#EBEFF2"/>
<path d="M449.413 320.126H434.246L450.211 327.089L449.413 320.126Z" fill="#AAB4BE"/>
<path d="M46.8688 318.528L23.0355 524.211C22.8074 527.179 26.9126 527.635 27.2547 524.668L61.6934 319.556" fill="#EBEFF2"/>
<path d="M61.6934 320.126H46.6407L60.3249 327.431L61.6934 320.126Z" fill="#AAB4BE"/>
<path d="M138.21 320.126L148.93 522.042C148.93 525.01 144.824 525.238 144.71 522.156L123.158 320.126" fill="#EBEFF2"/>
<path d="M138.211 320.126H123.158L138.553 327.431L138.211 320.126Z" fill="#AAB4BE"/>
<path d="M31.4735 305.744H473.93V320.126H31.4735V305.744Z" fill="#BDC5CE"/>
<path d="M204.693 305.744H485.789V320.126H204.693V305.744Z" fill="#AAB4BE"/>
<path d="M297.175 212.72C297.175 214.774 298.885 216.486 300.938 216.486C302.991 216.486 304.701 214.774 304.701 212.72C304.701 210.665 302.991 208.953 300.938 208.953C298.885 208.953 297.175 210.551 297.175 212.72Z" stroke="#EBEFF2" stroke-width="0.8184" stroke-miterlimit="10"/>
<path d="M192.718 128.255C192.718 130.309 194.428 132.022 196.481 132.022C198.534 132.022 200.244 130.309 200.244 128.255C200.244 126.2 198.534 124.488 196.481 124.488C194.428 124.488 192.718 126.086 192.718 128.255Z" stroke="#EBEFF2" stroke-width="0.8184" stroke-miterlimit="10"/>
<path d="M99.8936 207.811C99.8936 209.866 101.604 211.578 103.657 211.578C105.709 211.578 107.42 209.866 107.42 207.811C107.42 205.757 105.709 204.044 103.657 204.044C101.604 203.93 99.8936 205.642 99.8936 207.811Z" stroke="#EBEFF2" stroke-width="0.8184" stroke-miterlimit="10"/>
<path d="M373.579 224.134C371.5 224.134 369.815 222.448 369.815 220.367C369.815 218.287 371.5 216.601 373.579 216.601C375.657 216.601 377.342 218.287 377.342 220.367C377.342 222.448 375.657 224.134 373.579 224.134Z" stroke="#EBEFF2" stroke-width="0.8184" stroke-miterlimit="10"/>
<path d="M338.911 203.246C338.911 204.73 340.051 205.872 341.533 205.872C343.016 205.872 344.156 204.73 344.156 203.246C344.156 201.763 343.016 200.621 341.533 200.621C340.165 200.621 338.911 201.763 338.911 203.246Z" stroke="#EBEFF2" stroke-width="0.8184" stroke-miterlimit="10"/>
<path d="M276.307 179.961C276.307 181.445 277.447 182.586 278.93 182.586C280.412 182.586 281.553 181.445 281.553 179.961C281.553 178.477 280.412 177.336 278.93 177.336C277.447 177.336 276.307 178.591 276.307 179.961Z" stroke="#EBEFF2" stroke-width="0.8184" stroke-miterlimit="10"/>
<path d="M343.245 117.982C343.245 119.466 344.385 120.607 345.867 120.607C347.35 120.607 348.49 119.466 348.49 117.982C348.49 116.498 347.35 115.356 345.867 115.356C344.385 115.356 343.245 116.498 343.245 117.982Z" stroke="#EBEFF2" stroke-width="0.8184" stroke-miterlimit="10"/>
<path d="M134.104 205.871C134.104 207.355 135.244 208.497 136.727 208.497C138.209 208.497 139.35 207.355 139.35 205.871C139.35 204.387 138.209 203.246 136.727 203.246C135.244 203.246 134.104 204.387 134.104 205.871Z" stroke="#EBEFF2" stroke-width="0.8184" stroke-miterlimit="10"/>
<path d="M432.192 243.88C432.192 245.364 433.332 246.505 434.815 246.505C436.297 246.505 437.438 245.364 437.438 243.88C437.438 242.396 436.297 241.255 434.815 241.255C433.332 241.255 432.192 242.51 432.192 243.88Z" stroke="#EBEFF2" stroke-width="0.8184" stroke-miterlimit="10"/>
<path d="M328.99 162.725V154.621" stroke="#EBEFF2" stroke-width="0.8184" stroke-miterlimit="10" stroke-linecap="round" stroke-linejoin="round"/>
<path d="M332.982 158.73H325" stroke="#EBEFF2" stroke-width="0.8184" stroke-miterlimit="10" stroke-linecap="round" stroke-linejoin="round"/>
<path d="M239.246 95.0396V86.9355" stroke="#EBEFF2" stroke-width="0.8184" stroke-miterlimit="10" stroke-linecap="round" stroke-linejoin="round"/>
<path d="M243.352 90.9307H235.255" stroke="#EBEFF2" stroke-width="0.8184" stroke-miterlimit="10" stroke-linecap="round" stroke-linejoin="round"/>
<path d="M166.264 203.017V195.027" stroke="#EBEFF2" stroke-width="0.8184" stroke-miterlimit="10" stroke-linecap="round" stroke-linejoin="round"/>
<path d="M170.369 199.022H162.273" stroke="#EBEFF2" stroke-width="0.8184" stroke-miterlimit="10" stroke-linecap="round" stroke-linejoin="round"/>
<path d="M425.576 281.432V273.328" stroke="#EBEFF2" stroke-width="0.8184" stroke-miterlimit="10" stroke-linecap="round" stroke-linejoin="round"/>
<path d="M429.568 277.438H421.472" stroke="#EBEFF2" stroke-width="0.8184" stroke-miterlimit="10" stroke-linecap="round" stroke-linejoin="round"/>
<path d="M389.771 343.868V335.764" stroke="#EBEFF2" stroke-width="0.8184" stroke-miterlimit="10" stroke-linecap="round" stroke-linejoin="round"/>
<path d="M393.877 339.759H385.78" stroke="#EBEFF2" stroke-width="0.8184" stroke-miterlimit="10" stroke-linecap="round" stroke-linejoin="round"/>
<path d="M287.482 484.947C288.166 480.723 290.333 475.016 291.359 470.793C290.789 470.451 270.719 462.917 265.701 461.319L260.228 484.262" fill="#FFCECE"/>
<path d="M284.859 351.287H293.069C293.069 351.287 281.894 374.458 272.771 401.281C258.859 442.258 255.78 464.287 255.78 464.287L311.657 477.071L348.148 344.895C348.148 344.895 354.534 329.829 345.297 319.898H264.561L284.859 351.287Z" fill="#264B89"/>
<path d="M259.771 484.033L252.587 524.097H271.973C271.973 524.097 269.633 511.894 274.938 509.715C281.203 507.142 284.631 524.097 284.631 524.097H319.526L319.64 521.814C319.754 517.02 316.561 512.683 311.999 511.427C302.876 509.03 290.903 502.867 287.71 484.832" fill="#495B6D"/>
<path d="M288.165 498.302C289.077 497.275 289.989 496.133 291.016 495.106C288.849 494.649 287.252 493.736 284.972 493.28C286.568 492.366 288.507 491.339 290.103 490.426C288.051 489.627 284.174 487.801 284.174 487.801" stroke="#6C7A88" stroke-miterlimit="10" stroke-linecap="round" stroke-linejoin="round"/>
<path d="M356.93 478.099C356.93 478.099 347.693 463.489 345.07 460.064C344.5 460.293 325.798 470.794 321.351 473.647L335.491 492.595" fill="#FFCECE"/>
<path d="M331.727 488.485L347.692 525.924L363.885 515.308C363.885 515.308 355.321 506.443 358.526 501.726C362.328 496.128 374.491 508.46 374.491 508.46L403.684 489.284L402.429 487.344C399.92 483.235 394.903 481.408 390.341 482.892C381.333 485.86 367.991 487.23 355.447 473.989" fill="#495B6D"/>
<path d="M361.834 485.29C362.746 483.692 363.544 481.979 364.229 480.267C361.834 480.61 359.439 481.066 357.044 481.409C357.843 479.468 358.869 477.3 359.667 475.245C357.5 476.158 355.334 476.843 353.167 477.642" stroke="#6C7A88" stroke-miterlimit="10" stroke-linecap="round" stroke-linejoin="round"/>
<path d="M217.123 356.309H198.535C185.307 356.309 171.737 349.917 170.71 336.677C169.912 327.546 174.587 319.784 174.587 319.784H266.956C266.956 319.784 299 351.53 325 386C357.956 429.945 366 451.5 366 451.5L314.623 481.408L232.403 364.299C228.982 359.277 223.166 356.309 217.123 356.309Z" fill="#3A67B3"/>
<path d="M168.888 235.206C169.23 226.874 170.713 220.71 177.327 214.204C179.836 211.807 182.914 208.953 186.221 207.355C191.011 204.958 197.283 203.931 201.844 201.762L208.686 193.43L221.686 194.686L230.695 192.859C236.511 204.159 256.239 204.73 266.046 214.204C272.66 220.71 274.257 226.874 274.485 235.206C275.283 257.121 272.318 305.631 272.318 305.631H227.958H215.3H174.134C174.248 305.745 167.976 257.121 168.888 235.206Z" fill="url(#paint3_linear_15903_28035)"/>
<g opacity="0.44">
<mask id="mask0_15903_28035" style="mask-type:luminance" maskUnits="userSpaceOnUse" x="144" y="192" width="131" height="114">
<path d="M144.712 283.373C148.133 270.019 152.352 256.436 157.256 244.565C161.019 235.548 165.238 226.531 171.396 219.112C177.44 211.921 185.537 205.986 194.773 204.159C197.282 203.36 199.791 202.675 201.958 201.648L208.8 193.316L221.8 194.571L230.808 192.745C236.624 204.045 256.352 204.616 266.159 214.09C272.773 220.596 274.37 226.759 274.598 235.092C275.396 257.007 272.431 305.517 272.431 305.517H228.072H215.414H174.247C174.247 305.517 174.133 304.604 173.905 302.892C169.686 303.234 165.694 303.462 161.817 303.805C150.642 304.604 141.861 294.217 144.712 283.373Z" fill="white"/>
</mask>
<g mask="url(#mask0_15903_28035)">
<path d="M171.283 319.442V192.859" stroke="#B0BFD6" stroke-width="0.9724" stroke-miterlimit="10" stroke-linecap="round" stroke-linejoin="round"/>
<path d="M192.266 316.475V192.859" stroke="#B0BFD6" stroke-width="0.9724" stroke-miterlimit="10" stroke-linecap="round" stroke-linejoin="round"/>
<path d="M289.537 298.669H150.186" stroke="#B0BFD6" stroke-width="0.9724" stroke-miterlimit="10" stroke-linecap="round" stroke-linejoin="round"/>
</g>
</g>
<path d="M226.133 205.301L221.343 213.519" stroke="#011843" stroke-opacity="0.1" stroke-width="0.886" stroke-miterlimit="10" stroke-linecap="round" stroke-linejoin="round"/>
<path d="M226.132 205.301L232.062 212.263L237.422 201.306" stroke="#011843" stroke-opacity="0.1" stroke-width="0.886" stroke-miterlimit="10" stroke-linecap="round" stroke-linejoin="round"/>
<path d="M221.344 213.405L203.326 202.447" stroke="#011843" stroke-opacity="0.1" stroke-width="0.886" stroke-miterlimit="10" stroke-linecap="round" stroke-linejoin="round"/>
<path d="M278.359 247.533C277.903 239.544 277.333 233.837 274.368 226.417C271.403 218.998 262.851 209.639 255.78 207.584C261.71 222.422 265.131 272.873 258.061 304.947H275.394" fill="url(#paint4_linear_15903_28035)"/>
<path d="M240.727 291.135C238.675 292.961 236.85 294.103 234.684 295.472C232.631 296.728 227.271 297.869 224.877 297.869H221.456L223.736 281.547C223.85 281.547 223.622 281.547 223.736 281.547H225.561C231.947 280.406 238.675 278.579 245.061 276.981C252.131 280.063 257.491 283.716 263.078 288.624C264.333 289.651 264.105 291.592 262.622 292.391C262.508 292.391 262.508 292.505 262.394 292.505C262.394 292.505 262.736 293.19 262.166 293.989C261.482 295.13 260.342 295.016 259.201 295.13C258.289 295.244 256.008 293.874 256.008 293.874C256.008 293.874 254.982 295.244 254.298 295.13C251.447 294.902 248.71 294.103 245.859 293.075C244.377 292.733 240.727 291.135 240.727 291.135Z" fill="#FFCACA"/>
<path d="M262.736 292.505C258.175 289.423 253.614 286.113 249.28 282.803" stroke="#011843" stroke-opacity="0.1" stroke-width="0.886" stroke-miterlimit="10" stroke-linecap="round" stroke-linejoin="round"/>
<path d="M254.526 295.016C255.552 294.788 256.008 294.217 256.008 293.532C256.122 292.619 255.666 291.82 254.868 291.25C250.762 288.51 246.657 285.543 242.894 282.232" stroke="#011843" stroke-opacity="0.1" stroke-width="0.886" stroke-miterlimit="10" stroke-linecap="round" stroke-linejoin="round"/>
<path d="M226.815 293.533C229.779 293.19 232.744 292.049 235.139 290.222C236.165 289.423 237.648 289.309 238.788 289.88C241.639 291.364 244.49 292.734 247.455 293.989C248.481 294.446 249.736 293.875 249.85 292.848C249.85 292.734 249.85 292.619 249.85 292.505C249.85 291.82 236.85 282.347 236.85 282.347" stroke="#011843" stroke-opacity="0.1" stroke-width="0.886" stroke-miterlimit="10" stroke-linecap="round" stroke-linejoin="round"/>
<path d="M195.796 204.159C186.217 205.757 177.664 211.807 171.393 219.226C165.121 226.759 160.901 235.662 157.252 244.679C152.349 256.55 148.129 270.133 144.708 283.487C141.971 294.331 150.98 305.06 162.27 305.517C185.761 306.544 220.314 305.859 220.314 305.745L224.875 266.937L206.059 268.078L191.463 269.905C191.463 269.905 203.664 238.516 202.296 219.112C201.954 215.802 195.796 204.159 195.796 204.159Z" fill="url(#paint5_linear_15903_28035)"/>
<path d="M190.894 270.019C190.894 270.019 203.78 239.201 201.499 219.911C200.359 210.209 195.455 205.529 195.455 205.529" stroke="#011843" stroke-opacity="0.1" stroke-width="0.886" stroke-miterlimit="10" stroke-linecap="round" stroke-linejoin="round"/>
<path d="M208.113 194.457L232.402 196.169L232.288 170.373H208.569L208.113 194.457Z" fill="#FFBFBF"/>
<path d="M208.113 194.457L226.13 205.301L232.402 196.283C232.402 196.283 227.043 184.983 220.429 184.983C213.815 184.983 208.113 194.457 208.113 194.457Z" fill="#FFBFBF"/>
<path d="M209.937 176.08L232.402 194.343V185.782" fill="#FDB9B9"/>
<path d="M227.157 139.897C229.666 147.659 236.622 153.48 243.92 157.133C242.552 148.8 237.078 140.582 227.157 139.897Z" fill="#011843"/>
<path d="M206.744 163.297C206.858 169.46 207.998 175.966 212.788 180.19C215.182 182.244 218.033 183.728 220.998 184.755C225.446 186.353 231.147 187.609 235.823 186.353C241.182 184.87 243.577 179.847 244.489 174.711C245.174 171.058 245.174 167.292 244.946 163.525C244.261 150.855 237.761 140.24 226.7 140.24C211.305 140.354 206.516 150.627 206.744 163.297Z" fill="#FFCACA"/>
<path d="M201.158 166.606C201.386 170.487 204.351 173.455 207.886 173.227C211.422 172.998 214.044 169.688 213.816 165.922C213.588 162.041 210.623 159.073 207.088 159.301C203.667 159.53 200.93 162.726 201.158 166.606Z" fill="#AECFEF"/>
<path d="M231.719 159.188C233.43 161.584 235.482 164.324 235.254 165.808C235.026 167.292 233.544 168.319 232.061 168.205" stroke="#011843" stroke-width="0.9724" stroke-miterlimit="10" stroke-linecap="round" stroke-linejoin="round"/>
<path d="M236.623 162.041C236.623 162.498 237.079 162.954 237.535 162.954C237.991 162.954 238.447 162.498 238.447 162.041C238.447 161.584 237.991 161.128 237.535 161.128C237.079 161.128 236.623 161.47 236.623 162.041Z" fill="#011843"/>
<path d="M225.789 162.041C225.789 162.498 226.245 162.954 226.701 162.954C227.157 162.954 227.613 162.498 227.613 162.041C227.613 161.584 227.157 161.128 226.701 161.128C226.131 161.128 225.789 161.47 225.789 162.041Z" fill="#011843"/>
<path d="M236.736 172.656C234.912 174.254 232.175 174.825 229.894 173.912" stroke="#011843" stroke-width="0.9724" stroke-miterlimit="10" stroke-linecap="round" stroke-linejoin="round"/>
<path d="M193.517 185.553C198.534 188.521 205.034 186.695 207.999 181.673C210.964 176.65 204.122 169.231 204.122 167.177C204.122 164.551 192.604 166.035 189.639 171.057C186.675 176.194 188.499 182.7 193.517 185.553Z" fill="#292466"/>
<path d="M200.131 168.661C200.473 162.84 201.385 157.018 203.894 151.882C206.403 146.746 210.85 142.18 216.324 140.468C220.315 139.212 224.649 139.326 228.754 140.354C224.763 143.207 221.228 146.517 217.921 150.17C212.219 156.333 207.771 164.78 200.131 168.661Z" fill="#292466"/>
<path d="M206.63 159.872C217.007 159.416 228.525 150.969 231.832 141.039C224.99 138.185 218.148 139.898 213.244 144.349C209.139 148.116 206.858 151.768 206.63 159.872Z" fill="#292466"/>
<path d="M229.781 144.805C232.974 148.915 237.307 153.138 241.64 155.991C242.895 156.79 244.605 157.589 245.631 156.676C246.316 156.105 246.43 155.078 246.43 154.165C246.316 152.225 245.061 149.714 244.149 147.887C243.009 145.719 241.412 143.664 239.359 142.294C238.105 141.381 236.623 140.81 235.026 140.468C232.631 139.783 230.009 139.669 227.728 140.696" fill="#292466"/>
<path d="M207.658 180.418C206.746 184.984 203.097 188.75 199.448 189.093C195.685 189.549 191.807 187.267 189.869 183.956C187.93 180.646 187.816 176.537 189.07 172.885" stroke="#292466" stroke-width="0.886" stroke-miterlimit="10" stroke-linecap="round" stroke-linejoin="round"/>
<path d="M230.694 144.234C231.264 153.822 220.202 158.616 212.106 156.448" stroke="#292466" stroke-width="0.886" stroke-miterlimit="10" stroke-linecap="round" stroke-linejoin="round"/>
<path d="M245.06 156.219C246.201 155.192 246.543 153.594 246.543 151.996C246.315 144.805 237.306 136.472 230.236 141.837" stroke="#011843" stroke-width="0.886" stroke-miterlimit="10" stroke-linecap="round" stroke-linejoin="round"/>
<path d="M224.877 175.281H220.658C215.64 174.368 208.456 171.286 205.149 167.291" stroke="#051F39" stroke-width="0.886" stroke-miterlimit="10" stroke-linecap="round" stroke-linejoin="round"/>
<path d="M221.456 176.651H224.649C225.447 176.651 226.018 176.08 226.018 175.281C226.018 174.482 225.447 173.911 224.649 173.911H221.456C220.658 173.911 220.088 174.482 220.088 175.281C219.974 175.966 220.658 176.651 221.456 176.651Z" fill="#E2ECF5"/>
<path d="M203.668 164.667C203.668 167.406 204.809 170.26 206.747 171.287C206.747 171.287 208.458 171.287 209.256 171.287C212.335 171.287 214.844 168.32 214.844 164.667C214.844 161.015 212.335 158.047 209.256 158.047H207.089C204.923 158.846 203.668 161.699 203.668 164.667Z" fill="#C3DAF0"/>
<path d="M211.195 162.155C210.51 157.019 211.879 151.54 214.958 147.431C217.466 144.007 221.344 141.039 225.335 139.669C225.449 139.669 225.791 139.555 225.791 139.555V138.984L221.686 139.099C216.554 139.099 210.624 146.061 209.028 150.855C207.431 155.649 207.203 160.9 206.747 165.922" fill="#C3DAF0"/>
<path d="M201.729 164.666C201.729 168.319 204.238 171.286 207.317 171.286C210.395 171.286 212.904 168.319 212.904 164.666C212.904 161.014 210.395 158.046 207.317 158.046C204.124 157.932 201.729 161.014 201.729 164.666Z" fill="#E2ECF5"/>
<path d="M209.599 162.155C208.915 157.019 210.283 151.54 213.362 147.431C216.441 143.208 220.546 139.898 225.678 138.984H219.976C219.064 138.984 215.643 140.24 213.59 141.952C210.739 144.463 208.23 148.002 207.318 150.855C205.722 155.649 205.494 160.9 205.037 165.922" fill="#E2ECF5"/>
<path d="M205.035 164.665C205.035 166.035 205.947 167.177 206.973 167.177C208 167.177 208.912 166.035 208.912 164.665C208.912 163.296 208 162.154 206.973 162.154C205.947 162.154 205.035 163.296 205.035 164.665Z" stroke="#051F39" stroke-width="0.886" stroke-miterlimit="10" stroke-linecap="round" stroke-linejoin="round"/>
<path d="M280.867 305.745H220.999L221.797 299.354H280.867V305.745Z" fill="#495B6D"/>
<path d="M269.807 305.745L302.535 242.397C304.017 239.543 306.982 237.717 310.289 237.717H393.079C396.728 237.717 399.009 241.483 397.412 244.794L370.044 299.924C367.991 303.576 364.114 305.745 359.895 305.745H269.807Z" fill="#495B6D"/>
<path d="M276.762 305.745L309.49 242.397C310.973 239.543 313.937 237.717 317.244 237.717H400.034C403.683 237.717 405.964 241.483 404.367 244.794L376.999 299.924C374.946 303.576 371.069 305.745 366.85 305.745H276.762Z" fill="#051F39"/>
<path d="M344.955 276.525C341.99 278.465 338.455 278.123 336.972 275.84C335.49 273.557 336.63 270.133 339.595 268.192C342.56 266.252 346.095 266.594 347.577 268.877C349.174 271.16 347.92 274.584 344.955 276.525Z" stroke="#8997A6" stroke-width="0.8184" stroke-miterlimit="10"/>
<path d="M160.189 74.8778H204.891C207.742 74.8778 209.908 72.2525 209.338 69.5131L207.628 60.0394L205.689 49.7667C205.347 47.598 203.408 46 201.242 46H156.54C153.689 46 151.522 48.6252 152.092 51.3646L153.689 60.2677L155.742 71.2253C156.198 73.2798 158.022 74.8778 160.189 74.8778Z" fill="url(#paint6_linear_15903_28035)"/>
<path d="M204.523 47.9453L183.65 61.9453L153.523 47.9453" stroke="#DBE2EF" stroke-width="0.6645" stroke-miterlimit="10"/>
<path d="M203.523 72.0234H179.006" stroke="#DBE2EF" stroke-width="0.6645" stroke-miterlimit="10" stroke-linecap="round" stroke-linejoin="round"/>
<path d="M175.584 72.0234C175.356 72.0234 175.242 72.0234 175.014 72.0234H171.593" stroke="#DBE2EF" stroke-width="0.6645" stroke-miterlimit="10" stroke-linecap="round" stroke-linejoin="round"/>
<defs>
<linearGradient id="paint0_linear_15903_28035" x1="36.5" y1="56" x2="323.5" y2="424" gradientUnits="userSpaceOnUse">
<stop stop-color="#FFE2D4"/>
<stop offset="1" stop-color="#FFF1EA" stop-opacity="0"/>
</linearGradient>
<linearGradient id="paint1_linear_15903_28035" x1="449.269" y1="122.824" x2="364.069" y2="122.824" gradientUnits="userSpaceOnUse">
<stop stop-color="#BBD7F1"/>
<stop offset="1" stop-color="#5EA9F2"/>
</linearGradient>
<linearGradient id="paint2_linear_15903_28035" x1="420.151" y1="151.805" x2="400.44" y2="151.805" gradientUnits="userSpaceOnUse">
<stop stop-color="#BBD7F1"/>
<stop offset="1" stop-color="#5EA9F2"/>
</linearGradient>
<linearGradient id="paint3_linear_15903_28035" x1="168.834" y1="249.328" x2="274.716" y2="249.328" gradientUnits="userSpaceOnUse">
<stop stop-color="#FAB882"/>
<stop offset="1" stop-color="#FF7300"/>
</linearGradient>
<linearGradient id="paint4_linear_15903_28035" x1="255.788" y1="256.336" x2="278.38" y2="256.336" gradientUnits="userSpaceOnUse">
<stop stop-color="#FAB882"/>
<stop offset="1" stop-color="#FF7300"/>
</linearGradient>
<linearGradient id="paint5_linear_15903_28035" x1="144.242" y1="255.191" x2="224.948" y2="255.191" gradientUnits="userSpaceOnUse">
<stop stop-color="#FAB882"/>
<stop offset="1" stop-color="#FF7300"/>
</linearGradient>
<linearGradient id="paint6_linear_15903_28035" x1="209.425" y1="60.4549" x2="152.047" y2="60.4549" gradientUnits="userSpaceOnUse">
<stop stop-color="#BBD7F1"/>
<stop offset="1" stop-color="#5EA9F2"/>
</linearGradient>
</defs>
</svg>
