<svg width="63" height="2393" viewBox="0 0 63 2393" fill="none" xmlns="http://www.w3.org/2000/svg">
<path opacity="0.4" d="M31 1L30.9999 2392" stroke="#0061BF" stroke-linecap="round" stroke-dasharray="20 20"/>
<rect y="140.112" width="44" height="44" rx="4" transform="rotate(-45 0 140.112)" fill="#0061BF"/>
<path d="M30.8193 148.112V134.816L28.0593 135.464V133.112L32.1153 131.312H34.0113V148.112H30.8193Z" fill="white"/>
<rect y="929.112" width="44" height="44" rx="4" transform="rotate(-45 0 929.112)" fill="#219FFF"/>
<path d="M31.4796 937.4C30.3756 937.4 29.3756 937.208 28.4796 936.824C27.5836 936.424 26.8636 935.816 26.3196 935C25.7756 934.184 25.4876 933.16 25.4556 931.928H28.4796C28.4956 932.744 28.7596 933.432 29.2716 933.992C29.7996 934.536 30.5356 934.808 31.4796 934.808C32.3756 934.808 33.0636 934.56 33.5436 934.064C34.0236 933.568 34.2636 932.944 34.2636 932.192C34.2636 931.312 33.9436 930.648 33.3036 930.2C32.6796 929.736 31.8716 929.504 30.8796 929.504H29.6316V926.984H30.9036C31.7196 926.984 32.3996 926.792 32.9436 926.408C33.4876 926.024 33.7596 925.456 33.7596 924.704C33.7596 924.08 33.5516 923.584 33.1356 923.216C32.7356 922.832 32.1756 922.64 31.4556 922.64C30.6716 922.64 30.0556 922.872 29.6076 923.336C29.1756 923.8 28.9356 924.368 28.8876 925.04H25.8876C25.9516 923.488 26.4876 922.264 27.4956 921.368C28.5196 920.472 29.8396 920.024 31.4556 920.024C32.6076 920.024 33.5756 920.232 34.3596 920.648C35.1596 921.048 35.7596 921.584 36.1596 922.256C36.5756 922.928 36.7836 923.672 36.7836 924.488C36.7836 925.432 36.5196 926.232 35.9916 926.888C35.4796 927.528 34.8396 927.96 34.0716 928.184C35.0156 928.376 35.7836 928.84 36.3756 929.576C36.9676 930.296 37.2636 931.208 37.2636 932.312C37.2636 933.24 37.0396 934.088 36.5916 934.856C36.1436 935.624 35.4876 936.24 34.6236 936.704C33.7756 937.168 32.7276 937.4 31.4796 937.4Z" fill="white"/>
<rect y="1811.11" width="44" height="44" rx="4" transform="rotate(-45 0 1811.11)" fill="#17BD8D"/>
<path d="M31.7146 1819.4C30.4826 1819.4 29.4186 1819.18 28.5226 1818.75C27.6426 1818.32 26.9466 1817.73 26.4346 1816.98C25.9386 1816.21 25.6506 1815.34 25.5706 1814.38H28.5706C28.7146 1815.07 29.0666 1815.65 29.6266 1816.11C30.1866 1816.56 30.8826 1816.78 31.7146 1816.78C32.6106 1816.78 33.3386 1816.46 33.8986 1815.8C34.4746 1815.14 34.7626 1814.33 34.7626 1813.35C34.7626 1812.34 34.4746 1811.54 33.8986 1810.95C33.3386 1810.36 32.6266 1810.06 31.7626 1810.06C31.0426 1810.06 30.4186 1810.24 29.8906 1810.59C29.3626 1810.94 28.9866 1811.38 28.7626 1811.91H25.8106L27.2506 1802.31H36.5626V1805H29.5546L28.7866 1808.89C29.1386 1808.5 29.6186 1808.19 30.2266 1807.95C30.8346 1807.7 31.5146 1807.57 32.2666 1807.57C33.4666 1807.57 34.4666 1807.84 35.2666 1808.38C36.0666 1808.91 36.6746 1809.62 37.0906 1810.5C37.5066 1811.36 37.7146 1812.3 37.7146 1813.33C37.7146 1814.5 37.4586 1815.54 36.9466 1816.45C36.4506 1817.36 35.7466 1818.08 34.8346 1818.61C33.9386 1819.14 32.8986 1819.4 31.7146 1819.4Z" fill="white"/>
<rect y="518.112" width="44" height="44" rx="4" transform="rotate(-45 0 518.112)" fill="#FF7300"/>
<path d="M25.3685 526.112V523.88C26.3925 523.032 27.3845 522.192 28.3445 521.36C29.3205 520.528 30.1845 519.704 30.9365 518.888C31.7045 518.072 32.3125 517.28 32.7605 516.512C33.2245 515.728 33.4565 514.968 33.4565 514.232C33.4565 513.544 33.2645 512.936 32.8805 512.408C32.5125 511.88 31.8965 511.616 31.0325 511.616C30.1525 511.616 29.4885 511.904 29.0405 512.48C28.5925 513.056 28.3685 513.752 28.3685 514.568H25.3925C25.4245 513.336 25.6965 512.312 26.2085 511.496C26.7205 510.664 27.4005 510.048 28.2485 509.648C29.0965 509.232 30.0485 509.024 31.1045 509.024C32.8165 509.024 34.1445 509.496 35.0885 510.44C36.0485 511.368 36.5285 512.576 36.5285 514.064C36.5285 514.992 36.3125 515.896 35.8805 516.776C35.4645 517.656 34.9125 518.504 34.2245 519.32C33.5365 520.136 32.7925 520.904 31.9925 521.624C31.1925 522.328 30.4165 522.984 29.6645 523.592H36.9365V526.112H25.3685Z" fill="white"/>
<rect y="1363.11" width="44" height="44" rx="4" transform="rotate(-45 0 1363.11)" fill="#FDAC33"/>
<path d="M32.6245 1371.11V1367.99H24.3445V1365.54L32.2165 1354.31H35.6965V1365.33H37.9045V1367.99H35.6965V1371.11H32.6245ZM27.6325 1365.33H32.8165V1357.7L27.6325 1365.33Z" fill="white"/>
<rect y="2233.11" width="44" height="44" rx="4" transform="rotate(-45 0 2233.11)" fill="#FF4E3E"/>
<path d="M31.3385 2241.4C30.0745 2241.4 29.0105 2241.17 28.1465 2240.7C27.2825 2240.24 26.5865 2239.62 26.0585 2238.83C25.5305 2238.05 25.1465 2237.18 24.9065 2236.22C24.6825 2235.26 24.5705 2234.27 24.5705 2233.26C24.5705 2231.39 24.8345 2229.77 25.3625 2228.39C25.8905 2227 26.6505 2225.93 27.6425 2225.18C28.6345 2224.41 29.8345 2224.02 31.2425 2224.02C32.3945 2224.02 33.3705 2224.26 34.1705 2224.72C34.9865 2225.17 35.6185 2225.76 36.0665 2226.5C36.5145 2227.23 36.7785 2228.02 36.8585 2228.87H34.0025C33.8585 2228.14 33.5465 2227.57 33.0665 2227.17C32.5865 2226.77 31.9705 2226.57 31.2185 2226.57C30.1465 2226.57 29.2825 2227.06 28.6265 2228.06C27.9705 2229.03 27.6185 2230.53 27.5705 2232.54C27.9545 2231.89 28.5305 2231.34 29.2985 2230.91C30.0665 2230.48 30.9225 2230.26 31.8665 2230.26C32.7945 2230.26 33.6665 2230.49 34.4825 2230.94C35.2985 2231.38 35.9545 2232.02 36.4505 2232.83C36.9625 2233.65 37.2185 2234.61 37.2185 2235.71C37.2185 2236.72 36.9705 2237.66 36.4745 2238.52C35.9945 2239.38 35.3065 2240.08 34.4105 2240.61C33.5305 2241.14 32.5065 2241.4 31.3385 2241.4ZM31.1705 2238.76C32.0665 2238.76 32.8025 2238.49 33.3785 2237.94C33.9705 2237.38 34.2665 2236.68 34.2665 2235.83C34.2665 2234.94 33.9705 2234.22 33.3785 2233.67C32.7865 2233.13 32.0345 2232.86 31.1225 2232.86C30.5305 2232.86 29.9945 2232.99 29.5145 2233.26C29.0505 2233.52 28.6825 2233.87 28.4105 2234.32C28.1385 2234.75 28.0025 2235.24 28.0025 2235.78C28.0025 2236.65 28.2985 2237.36 28.8905 2237.92C29.4985 2238.48 30.2585 2238.76 31.1705 2238.76Z" fill="white"/>
</svg>
